<svg xmlns="http://www.w3.org/2000/svg" width="403.947" height="795.502" viewBox="0 0 403.947 795.502">
  <g id="グループ_23745" data-name="グループ 23745" transform="translate(7.51 -25.479) rotate(-21)">
    <path id="パス_1061" data-name="パス 1061" d="M0,100.663a4,4,0,0,1-3.678-2.425,4,4,0,0,1,2.1-5.252C.789,91.972,237.289-8.334,444.991-3.852,652.971.636,792.656,90.657,794.043,91.566a4,4,0,0,1-4.384,6.692c-1.369-.9-139.268-89.676-344.84-94.112C238.873-.3,3.925,99.332,1.576,100.339A3.987,3.987,0,0,1,0,100.663Z" transform="translate(-235.201 753.481) rotate(-52)" fill="#5cb232"/>
    <path id="パス_1078" data-name="パス 1078" d="M29.369,18.454C6.985,81.638-.048,109.937,0,136.62c.062,33.263,9.658,59.593,31.723,87.03,11.015,13.7,26.537,25.778,56.914,44.3,13.67,8.332,32.579,20.227,42.224,26.559,9.569,6.282,18.017,11.707,18.682,12s-2.617-5.544-7.31-12.986c-13.437-21.306-23.832-43.135-35.661-74.879-.747-2.005-59.882-23.216-60.7-25.39-.619-1.639,57.158,15.975,56.452,14.13-2.311-6.042-4.577-11.816-6.9-17.563-.385-.954-59.513-23.305-60.017-24.541-.634-1.557,57.348,18,56.545,16.066-11.208-26.951-21.929-48.416-33.984-68.262-6.826-11.239-9.956-17.215-7.956-15.188,2.081,2.11,27.444,40.553,34.37,52.1C89.32,158.211,98.15,176,107.528,196.278c6.149,13.3,12.617,27.879,18.2,41.194l11.97,28.554.38-8.126c.21-4.481,1.495-20.732,2.863-36.224,3.4-38.427,2.344-61.636-3.591-79.132-7.928-23.378-13.626-31.553-40.661-58.342C66.918,54.7,59,44.408,46.828,19.365,41.661,8.734,37.112.043,36.693,0s-3.718,8.278-7.324,18.454" transform="translate(-14.952 181.197) rotate(32)" fill="#92c17a"/>
    <path id="パス_1079" data-name="パス 1079" d="M138.042,8.761C118.757,25.2,108.893,28.875,74.252,32.546c-27.46,2.911-34.134,5.441-46.118,17.485A102.865,102.865,0,0,0,5.746,85.1c-3.171,8.027-3.171,8.027,7.109.745A150.431,150.431,0,0,1,31.3,75.619c11.547-5.4,50.258-18.982,51.258-17.983.311.311-5.914,3.282-13.941,6.652-7.411,3.111-14.365,6.247-21.025,9.475-1.375.666,36.591,11.247,34.96,12.065-1.273.638-42.142-8.483-43.729-7.656C16.795,89.656,2.551,100.67.633,108.331c-2.574,10.28,3.309,67.018,6.73,64.907a4.225,4.225,0,0,0,1.127-3.088c0-4.08,9.339-21.827,14.747-28.023q11.3-12.957,43.411-27.074c25.911-11.394,32.823-15.034,42.246-22.241,14.7-11.243,25.223-28.84,32.663-54.609C144.727,27.219,149.8.8,148.885,0c-.154-.134-5.069,3.836-10.843,8.757" transform="matrix(0.777, 0.629, -0.629, 0.777, 96.001, 361.718)" fill="#5cb232"/>
    <path id="パス_1080" data-name="パス 1080" d="M102.255,5.188c-11.4,8.144-32.236,18.2-50.754,24.5C25.438,38.559,14.268,46.282,6.644,60.7c-8.311,15.721-8.831,33.607-1.523,52.4,1.324,3.4,1.527,3.155,4.46-5.487,6.935-20.439,18.125-34.5,38.079-47.845,7-4.679,10.28-6.469,7.27-3.964-11.14,9.276-19.759,18.253-26.354,27.63C27.7,84.679,62.525,73.455,61.5,75.1c-.416.664-36.7,14.175-37.245,15.127a73.527,73.527,0,0,0-5.6,12.175c-3.912,11.114-5.244,33.47-2.853,47.874l1.686,10.151,3.066-7.544c5.933-14.6,13.395-23.2,38.5-44.395C81.805,89.274,90.9,74.283,98.254,43.831c2.354-9.739,6.033-23.522,8.185-30.658S110.225.118,110.074,0s-3.7,2.244-7.819,5.184" transform="matrix(0.545, 0.839, -0.839, 0.545, 181.35, 305.423)" fill="#92c17a"/>
    <path id="パス_1084" data-name="パス 1084" d="M80.356,4.077c-8.96,6.4-25.332,14.3-39.884,19.256C19.99,30.3,11.212,36.37,5.221,47.7c-6.531,12.354-6.94,26.41-1.2,41.178,1.04,2.675,1.2,2.479,3.5-4.312,5.45-16.062,14.243-27.108,29.924-37.6,5.5-3.677,8.078-5.084,5.713-3.115A115.265,115.265,0,0,0,22.78,65.123c-.393.545,27.575-9.95,27.044-9.155-.3.446-29.256,12.42-29.684,13.111a58.826,58.826,0,0,0-5.485,11.394c-3.074,8.734-4.121,26.3-2.242,37.621l1.325,7.977,2.409-5.929c4.662-11.471,10.526-18.233,30.253-34.887,17.885-15.1,25.029-26.88,30.811-50.811,1.85-7.653,4.741-18.485,6.432-24.092S86.619.092,86.5,0a55.239,55.239,0,0,0-6.144,4.074" transform="matrix(0.407, 0.914, -0.914, 0.407, 254.944, 249.641)" fill="#315221"/>
    <path id="パス_1081" data-name="パス 1081" d="M11.7,88.931a51.358,51.358,0,0,0,1.265-10.46c.089-6.7-1.938-13.663-7.29-25.023C2.2,46.078.022,38.55,0,33.875c-.014-2.972.423-4.357,3.059-9.7,2.547-5.161,3.7-6.842,6.751-9.808A55.365,55.365,0,0,1,29.027,2.4l6.4-2.4L32.19,7.549c-3.887,9.073-5.349,15.845-6.457,31.213-.022.311-10.694,18.321-10.742,19.029-.024.355,10.571-16.528,10.521-15.742-.48,7.567-1.083,14.988-1.345,16.567s-.318,2.811-.128,2.752c.6-.186,2.3-9.788,3.621-20.406.664-5.343,1.853-12.546,2.643-16.007,1.345-5.895,6.139-20.606,6.789-20.83a11.1,11.1,0,0,1,.241,3.43c-.017,2.379,1.437,7.693,4.481,16.39,3.967,11.332,4.511,13.593,4.549,18.926q.2,27.43-31.271,48.118a23.225,23.225,0,0,1-4.279,2.476c-.163-.079.238-2.129.887-4.535" transform="translate(246.921 227.743) rotate(176)" fill="#315221"/>
    <path id="パス_1083" data-name="パス 1083" d="M32.58,4.024A46.281,46.281,0,0,1,29.473,13C26.9,18.461,22.506,23.3,13.683,30.383,7.96,34.98,3.219,40.215,1.355,43.994.17,46.4-.024,47.69,0,53.055c.024,5.186.3,7,1.593,10.611A49.892,49.892,0,0,0,12.431,80.953l4.233,4.471.363-7.392c.469-9.564,2.161-15.857,8.221-30.581,2.6-6.319,5.044-12.567,5.455-13.949s.853-2.4.984-2.28c.41.386-2,8.837-5.128,17.958-.19.554,13.941-12.556,13.636-11.629-.13.393-14.7,14.833-14.965,15.675-1.126,3.541-2.312,7.639-2.855,9.963-1.239,5.305-3.168,19.115-2.73,19.553a10,10,0,0,0,1.55-2.683c.926-1.934,4.2-5.664,10.1-11.505,7.69-7.611,9.023-9.227,11.161-13.532q11-22.139-6.319-51.326A20.928,20.928,0,0,0,33.653,0,15.534,15.534,0,0,0,32.58,4.024" transform="matrix(0.105, 0.995, -0.995, 0.105, 313.741, 229.708)" fill="#5cb232"/>
    <path id="パス_1082" data-name="パス 1082" d="M61.63,176.691c-6.678-12.318-20.994-30.492-34.876-44.273C7.216,113.023.562,101.185.032,84.881c-.578-17.774,6.8-34.078,21.6-47.765,2.682-2.48,2.755-2.166,1.6,6.887C20.51,65.414,24.4,82.954,36.488,103.7c4.237,7.272,6.4,10.321,4.8,6.75a180.705,180.705,0,0,1-7.424-19.171c-.354-1.105,32.359,19.586,31.916,18.053-.171-.59-33.5-23.386-33.746-24.293-3.115-11.63-4.087-22.376-2.929-32.375,1.356-11.7,9.959-32.382,18.422-44.279L53.489,0l-.552,8.125C51.871,23.845,54.806,34.85,68.078,64.9c12.033,27.248,13.632,44.706,6.9,75.3-2.154,9.786-4.889,23.787-6.083,31.144s-2.32,13.393-2.506,13.429-2.345-3.641-4.755-8.087" transform="translate(102.372 369.509) rotate(-173)" fill="#315221"/>
    <path id="パス_1085" data-name="パス 1085" d="M42.68,122.363c-4.625-8.531-14.539-21.116-24.152-30.66C5,78.271.389,70.073.022,58.782c-.4-12.309,4.706-23.6,14.96-33.078,1.858-1.717,1.908-1.5,1.11,4.769C14.2,45.3,16.9,57.447,25.269,71.814c2.934,5.036,4.435,7.147,3.322,4.675-1.649-3.667-3.061-7.181-4.344-10.859-.4-1.154,22.757,13.105,22.31,11.646-.318-1.034-24.235-17.791-24.6-19.217a59.137,59.137,0,0,1-1.8-21.588c.939-8.105,6.9-22.425,12.758-30.664L37.043,0l-.382,5.627c-.739,10.887,1.294,18.508,10.485,39.32,8.333,18.87,9.441,30.96,4.776,52.148-1.492,6.777-3.386,16.473-4.213,21.568s-1.607,9.275-1.735,9.3a48.679,48.679,0,0,1-3.293-5.6" transform="translate(167.88 295.685) rotate(-166)" fill="#5cb232"/>
  </g>
</svg>
