<svg xmlns="http://www.w3.org/2000/svg" xmlns:xlink="http://www.w3.org/1999/xlink" width="340.599" height="73.498" viewBox="0 0 340.599 73.498">
  <defs>
    <clipPath id="clip-path">
      <rect id="長方形_188" data-name="長方形 188" width="340.599" height="73.498" transform="translate(0 0)" fill="none"/>
    </clipPath>
  </defs>
  <g id="グループ_310" data-name="グループ 310" transform="translate(0 0)">
    <g id="グループ_309" data-name="グループ 309" clip-path="url(#clip-path)">
      <path id="パス_1000" data-name="パス 1000" d="M174.977,64.937c-12.118.009-20.88-4.819-21.617-19.091V13.974h10.925V45.182a11.069,11.069,0,0,0,1.818,6.266c2.127,3.043,4.985,4.078,8.453,4.1,3.623.023,6.946-.585,9.241-4.125a11.9,11.9,0,0,0,1.525-6.167l.1-31.282h11.153V44.207c.443,14.289-9.611,20.721-21.6,20.73" fill="#231815"/>
      <path id="パス_1001" data-name="パス 1001" d="M66.445,67.952A3.145,3.145,0,1,1,63.3,64.806a3.147,3.147,0,0,1,3.145,3.146" fill="#e6211a"/>
      <path id="パス_1002" data-name="パス 1002" d="M77.291,70.355A3.1,3.1,0,0,1,74.228,73.5a3.246,3.246,0,0,1-3.238-3.158,3.166,3.166,0,0,1,3.128-3.146,3.084,3.084,0,0,1,3.173,3.162" fill="#e6211a"/>
      <path id="パス_1003" data-name="パス 1003" d="M87.773,68.091a3.114,3.114,0,0,1-3.063,3.141,3.152,3.152,0,1,1,3.063-3.141" fill="#e6211a"/>
      <path id="パス_1004" data-name="パス 1004" d="M134.85,63.918,122.207,45.4h-5.051V63.887H106.1V13.945h17.695c13.929-.027,19.989,5.836,20.643,15.121.491,6.983-5.19,13-10.838,14.605l14.329,20.248ZM133.818,29.14c.01-3.909-4.535-6.128-9.1-5.975H117.3V36.147h7.2c4.6.156,9.3-2.989,9.314-7.007" fill="#231815"/>
      <path id="パス_1005" data-name="パス 1005" d="M238.894,25.175a39.749,39.749,0,0,0-14.3-3.049c-3.116,0-8.748.3-8.748,5.409,0,10.572,25.852.3,25.852,22.128,0,12.1-12.631,15.292-21.724,15.292a35.666,35.666,0,0,1-15.285-3.441l-.052-9.293c4.109,2.125,11.068,3.035,15.247,3.144,5.694.149,10.756-2.6,10.756-5.653,0-10.639-25.656-1.967-25.656-21.145,0-11.055,7.717-15.833,20.987-15.833,4.392,0,9.172,1.752,12.926,3.1Z" fill="#231815"/>
      <path id="パス_1006" data-name="パス 1006" d="M273.326,11.666a20.957,20.957,0,0,0-12.648,3.888V12.373H248.956V63.887h11.722V47.032A20.418,20.418,0,0,0,273.326,51c9.459,0,20.371-7.42,20.371-19.959,0-10.72-8.994-19.373-20.371-19.373m-.272,31.006A12.881,12.881,0,0,1,267.3,41.35c1.959.8,5.408.328,7.666-.933,2.4-1.34,4.78-3.808,5.59-8.537a11.663,11.663,0,0,0-2.517-8.853,13.363,13.363,0,0,0-3.982-3.016c6.133.342,11.292,5.461,11.292,11.32,0,6.4-5.6,11.341-12.3,11.341" fill="#231815"/>
      <path id="パス_1007" data-name="パス 1007" d="M286.312,14.124l-4.9-2.029L283.373,0l5.8,2.548Z" fill="#f4ba1b"/>
      <path id="パス_1008" data-name="パス 1008" d="M291.115,18.233l-3.981-3.509L292.91,3.917l4.658,4.292Z" fill="#f4ba1b"/>
      <path id="パス_1009" data-name="パス 1009" d="M320.057,13.607h-9.786L290.144,64.165h11.464l2.145-5.573h8.537V51.173h4.974V58.5h9.6l2.122,5.742H340.6Z" fill="#231815"/>
      <path id="パス_1010" data-name="パス 1010" d="M96.091,44.212V13.959l-10.838,0,.008,27.1c-2.32.426-6.592,1.5-8.956-1.007-2.178-2.315-6.124-6.849-12.311-4.234V13.959H52.872V45.852c.738,14.281,9.5,19.1,21.617,19.1,13.515,0,22.045-6.444,21.6-20.743" fill="#231815"/>
      <path id="パス_1011" data-name="パス 1011" d="M21.712,36.173v9.158H33.1v10.13c-1.156,0-4.267.073-6.747.073-10.505,0-14.954-7.6-14.954-16.817,0-10.141,8.72-16.37,15.4-16.521,5.658-.129,12.153.764,15.482,2.323v-9.7c-2.9-1.346-8.16-1.917-15.74-1.917C10.744,12.9,0,26.1,0,38.717c0,15.674,8.663,26.27,26.789,26.27a52.291,52.291,0,0,0,17.1-2.716l.1-16.94V36.173Z" fill="#231815"/>
      <path id="パス_1012" data-name="パス 1012" d="M63.994,35.818c0,12.022-1.143,19.818,10.623,19.818,11.936,0,10.644-8.891,10.644-14.577-2.3.413-6.559,1.538-8.956-1.007-2.2-2.335-6.031-6.821-12.311-4.234" fill="#204994"/>
      <path id="パス_1013" data-name="パス 1013" d="M280.561,31.88c-.81,4.729-3.188,7.2-5.59,8.537-2.335,1.3-5.947,1.773-7.865.85a11.066,11.066,0,0,1-6.337-10.178,10.049,10.049,0,0,1,2.453-6.48,13.137,13.137,0,0,1,10.83-4.6,13.284,13.284,0,0,1,3.992,3.019,11.667,11.667,0,0,1,2.517,8.853" fill="#f4ba1b"/>
      <path id="パス_1014" data-name="パス 1014" d="M306.571,51.173h17.548l-8.6-23.258Z" fill="#5db131"/>
    </g>
  </g>
</svg>
