<svg xmlns="http://www.w3.org/2000/svg" width="22.84" height="441.163" viewBox="0 0 22.84 441.163">
  <g id="グループ_23288" data-name="グループ 23288" transform="translate(17120.92 9368.995)">
    <path id="パス_108152" data-name="パス 108152" d="M9.48.42c6.24,0,9.3-3.12,9.3-6.78,0-7.74-11.91-5.34-11.91-8.55,0-1.05.9-1.89,3.39-1.89a12.408,12.408,0,0,1,5.82,1.62l1.83-4.41a15.727,15.727,0,0,0-7.62-1.83c-6.24,0-9.3,3.06-9.3,6.81,0,7.8,11.94,5.37,11.94,8.7,0,1.02-.96,1.71-3.42,1.71A13.243,13.243,0,0,1,2.58-6.27L.63-1.89A16.539,16.539,0,0,0,9.48.42ZM34.11-21h-9.6V0h5.94V-5.49h3.66c5.73,0,9.33-2.97,9.33-7.74C43.44-18.03,39.84-21,34.11-21Zm-.36,10.83h-3.3v-6.15h3.3c2.46,0,3.69,1.14,3.69,3.09C37.44-11.31,36.21-10.17,33.75-10.17ZM63.99,0h6.18l-9.3-21H55.02L45.75,0h6.06l1.65-4.08h8.88ZM55.2-8.46l2.7-6.72,2.7,6.72ZM99.57,0h6.36L101.4-6.6a6.968,6.968,0,0,0,4.11-6.63c0-4.8-3.6-7.77-9.33-7.77h-9.6V0h5.94V-5.58h3.24Zm-.06-13.23c0,1.92-1.23,3.06-3.69,3.06h-3.3v-6.15h3.3C98.28-16.32,99.51-15.18,99.51-13.23Zm18.15,8.64V-8.43h9.33v-4.44h-9.33v-3.54h10.59V-21H111.78V0h16.86V-4.59ZM142.32.42c6.24,0,9.3-3.12,9.3-6.78,0-7.74-11.91-5.34-11.91-8.55,0-1.05.9-1.89,3.39-1.89a12.408,12.408,0,0,1,5.82,1.62l1.83-4.41a15.727,15.727,0,0,0-7.62-1.83c-6.24,0-9.3,3.06-9.3,6.81,0,7.8,11.94,5.37,11.94,8.7,0,1.02-.96,1.71-3.42,1.71a13.243,13.243,0,0,1-6.93-2.07l-1.95,4.38A16.539,16.539,0,0,0,142.32.42Zm25.62,0c6.72,0,11.67-4.62,11.67-10.92s-4.95-10.92-11.67-10.92S156.27-16.8,156.27-10.5,161.22.42,167.94.42Zm0-4.92a5.624,5.624,0,0,1-5.67-6,5.624,5.624,0,0,1,5.67-6,5.624,5.624,0,0,1,5.67,6A5.624,5.624,0,0,1,167.94-4.5ZM198.72,0h6.36l-4.53-6.6a6.968,6.968,0,0,0,4.11-6.63c0-4.8-3.6-7.77-9.33-7.77h-9.6V0h5.94V-5.58h3.24Zm-.06-13.23c0,1.92-1.23,3.06-3.69,3.06h-3.3v-6.15h3.3C197.43-16.32,198.66-15.18,198.66-13.23ZM215.1,0h5.94V-16.29h6.42V-21H208.65v4.71h6.45Zm66.84-5.19a7.547,7.547,0,0,1-3.21.69,5.685,5.685,0,0,1-5.94-6,5.653,5.653,0,0,1,6-6,6.55,6.55,0,0,1,5.1,2.34l3.78-3.42c-2.07-2.49-5.25-3.84-9.18-3.84-6.81,0-11.7,4.53-11.7,10.92S271.68.42,278.37.42a15.664,15.664,0,0,0,8.82-2.67v-8.7h-5.25ZM303.66.42c6.21,0,9.87-3.51,9.87-9.78V-21h-5.85V-9.54c0,3.6-1.5,5.04-3.96,5.04-2.49,0-3.99-1.44-3.99-5.04V-21h-5.94V-9.36C293.79-3.09,297.45.42,303.66.42ZM333.54,0h6.36l-4.53-6.6a6.968,6.968,0,0,0,4.11-6.63c0-4.8-3.6-7.77-9.33-7.77h-9.6V0h5.94V-5.58h3.24Zm-.06-13.23c0,1.92-1.23,3.06-3.69,3.06h-3.3v-6.15h3.3C332.25-16.32,333.48-15.18,333.48-13.23ZM355.44.42c6.21,0,9.87-3.51,9.87-9.78V-21h-5.85V-9.54c0,3.6-1.5,5.04-3.96,5.04-2.49,0-3.99-1.44-3.99-5.04V-21h-5.94V-9.36C345.57-3.09,349.23.42,355.44.42Zm24.27,0c6.24,0,9.3-3.12,9.3-6.78,0-7.74-11.91-5.34-11.91-8.55,0-1.05.9-1.89,3.39-1.89a12.408,12.408,0,0,1,5.82,1.62l1.83-4.41a15.727,15.727,0,0,0-7.62-1.83c-6.24,0-9.3,3.06-9.3,6.81,0,7.8,11.94,5.37,11.94,8.7,0,1.02-.96,1.71-3.42,1.71a13.243,13.243,0,0,1-6.93-2.07l-1.95,4.38A16.539,16.539,0,0,0,379.71.42ZM404.34-21h-9.6V0h5.94V-5.49h3.66c5.73,0,9.33-2.97,9.33-7.74C413.67-18.03,410.07-21,404.34-21Zm-.36,10.83h-3.3v-6.15h3.3c2.46,0,3.69,1.14,3.69,3.09C407.67-11.31,406.44-10.17,403.98-10.17ZM434.22,0h6.18l-9.3-21h-5.85L415.98,0h6.06l1.65-4.08h8.88Zm-8.79-8.46,2.7-6.72,2.7,6.72Z" transform="translate(-17120 -9369) rotate(90)" fill="none" stroke="#3c3636" stroke-width="1"/>
    <line id="線_1" data-name="線 1" y1="30" transform="translate(-17109.5 -9139)" fill="none" stroke="#3c3636" stroke-width="1"/>
  </g>
</svg>
