<?xml version="1.0" encoding="UTF-8"?><svg id="_レイヤー_2" xmlns="http://www.w3.org/2000/svg" viewBox="0 0 340.6 73.5"><defs><style>.cls-1{fill:#f4ba1b;}.cls-2{fill:#e6211a;}.cls-3{fill:#204994;}.cls-4{fill:#231815;}.cls-5{fill:#5db131;}</style></defs><g id="_レイヤー_1-2"><g><path class="cls-4" d="M174.98,64.94c-12.12,0-20.88-4.82-21.62-19.09V13.97h10.92v31.21c0,2.24,.6,4.52,1.82,6.27,2.13,3.04,4.99,4.08,8.45,4.1,3.62,.02,6.95-.58,9.24-4.12,1.07-1.65,1.53-4.05,1.53-6.17l.1-31.28h11.15v30.23c.44,14.29-9.61,20.72-21.6,20.73Z"/><g><path class="cls-2" d="M66.44,67.95c0,1.74-1.41,3.15-3.14,3.15s-3.14-1.41-3.14-3.15,1.41-3.15,3.14-3.15,3.14,1.41,3.14,3.15Z"/><path class="cls-2" d="M77.29,70.35c-.03,1.6-1.15,3.08-3.06,3.14-1.5,.05-3.21-1.23-3.24-3.16-.02-1.76,1.46-3.11,3.13-3.15,1.81-.03,3.2,1.4,3.17,3.16Z"/><path class="cls-2" d="M87.77,68.09c-.03,1.6-1.15,3.06-3.06,3.14-1.64,.07-3.21-1.23-3.24-3.16-.02-1.76,1.46-3.17,3.13-3.15,1.77,.03,3.2,1.4,3.17,3.16Z"/><g><path class="cls-4" d="M134.85,63.92l-12.64-18.51h-5.05v18.48h-11.06V13.95h17.69c13.93-.03,19.99,5.84,20.64,15.12,.49,6.98-5.19,13-10.84,14.6l14.33,20.25h-13.08Zm-1.03-34.78c.01-3.91-4.54-6.13-9.1-5.97h-7.41v12.98h7.2c4.6,.16,9.3-2.99,9.31-7.01Z"/><path class="cls-4" d="M238.89,25.17c-3.75-1.49-8.9-3.05-14.3-3.05-3.12,0-8.75,.29-8.75,5.41,0,10.57,25.85,.29,25.85,22.13,0,12.1-12.63,15.29-21.72,15.29-6.64,0-11.25-1.67-15.29-3.44l-.05-9.29c4.11,2.13,11.07,3.04,15.25,3.15,5.69,.15,10.76-2.6,10.76-5.65,0-10.64-25.66-1.97-25.66-21.15,0-11.05,7.72-15.83,20.99-15.83,4.39,0,9.17,1.75,12.93,3.1v9.34Z"/><path class="cls-4" d="M273.33,11.67c-5.02,0-9.33,1.43-12.65,3.89v-3.18h-11.72V63.89h11.72v-16.85c3.25,2.49,7.52,3.97,12.65,3.97,9.46,0,20.37-7.42,20.37-19.96,0-10.72-8.99-19.37-20.37-19.37Zm-.27,31.01c-2.13,0-4.07-.49-5.75-1.32,1.96,.8,5.41,.33,7.67-.93,2.4-1.34,4.78-3.81,5.59-8.54,.51-2.98-.6-6.56-2.52-8.85-1.27-1.52-3.68-2.97-3.98-3.02,6.13,.34,11.29,5.46,11.29,11.32,0,6.4-5.59,11.34-12.3,11.34Z"/><polygon class="cls-1" points="286.31 14.12 281.41 12.1 283.37 0 289.17 2.55 286.31 14.12"/><polygon class="cls-1" points="291.11 18.23 287.13 14.72 292.91 3.92 297.57 8.21 291.11 18.23"/><path class="cls-4" d="M320.06,13.61h-9.79l-20.13,50.56h11.46l2.14-5.57h8.54v-7.42h4.97v7.33h9.6l2.12,5.74h11.61l-20.54-50.64Z"/><path class="cls-4" d="M96.09,44.21V13.96h-10.84s0,27.1,0,27.1c-2.32,.43-6.59,1.5-8.96-1.01-2.18-2.31-6.12-6.85-12.31-4.23V13.96h-11.12v31.89c.74,14.28,9.5,19.1,21.62,19.1,13.51,0,22.04-6.44,21.6-20.74Z"/><path class="cls-4" d="M21.71,36.17v9.16h11.39v10.13c-1.16,0-4.27,.07-6.75,.07-10.51,0-14.95-7.6-14.95-16.82,0-10.14,8.72-16.37,15.4-16.52,5.66-.13,12.15,.76,15.48,2.32V14.82c-2.9-1.35-8.16-1.92-15.74-1.92C10.74,12.9,0,26.1,0,38.72c0,15.67,8.66,26.27,26.79,26.27,6.23,0,11.69-.9,17.1-2.72l.1-16.94v-9.16H21.71Z"/><path class="cls-3" d="M63.99,35.82c0,12.02-1.14,19.82,10.62,19.82s10.64-8.89,10.64-14.58c-2.3,.41-6.56,1.54-8.96-1.01-2.2-2.34-6.03-6.82-12.31-4.23Z"/><path class="cls-1" d="M280.56,31.88c-.81,4.73-3.19,7.2-5.59,8.54-2.33,1.3-5.95,1.77-7.86,.85-2.78-1.34-6.34-4.56-6.34-10.18,0-2.47,.83-4.36,2.45-6.48,2.36-3.08,6.96-4.9,10.83-4.6,.27,.02,2.71,1.49,3.99,3.02,1.91,2.29,3.03,5.87,2.52,8.85Z"/><polygon class="cls-5" points="306.57 51.17 324.12 51.17 315.52 27.91 306.57 51.17"/></g></g></g></g></svg>