<svg xmlns="http://www.w3.org/2000/svg" width="38.057" height="38.057" viewBox="0 0 38.057 38.057">
  <g id="グループ_23686" data-name="グループ 23686" transform="translate(-487.943 -6678.852)">
    <circle id="楕円形_290" data-name="楕円形 290" cx="19.028" cy="19.028" r="19.028" transform="translate(487.943 6678.852)" fill="#e81e23"/>
    <path id="楕円形_290_-_アウトライン" data-name="楕円形 290 - アウトライン" d="M19.028,1A18.028,18.028,0,0,0,6.28,31.776a18.028,18.028,0,1,0,25.5-25.5A17.91,17.91,0,0,0,19.028,1m0-1A19.028,19.028,0,1,1,0,19.028,19.028,19.028,0,0,1,19.028,0Z" transform="translate(487.943 6678.852)" fill="#3c3636"/>
    <path id="パス_108409" data-name="パス 108409" d="M.176,0,5.962-15.4h2.53L14.278,0H11.044L10.01-3.058H4.356L3.322,0Zm5.1-5.7H9.108L7.216-11.286Z" transform="translate(499.215 6704.934)" fill="#fff"/>
  </g>
</svg>
