<svg xmlns="http://www.w3.org/2000/svg" width="27.106" height="27.106" viewBox="0 0 27.106 27.106">
  <path id="前面オブジェクトで型抜き_20" data-name="前面オブジェクトで型抜き 20" d="M-2858.447,27.106a13.465,13.465,0,0,1-9.584-3.97A13.464,13.464,0,0,1-2872,13.553a13.464,13.464,0,0,1,3.969-9.584A13.465,13.465,0,0,1-2858.447,0a13.465,13.465,0,0,1,9.583,3.97,13.465,13.465,0,0,1,3.969,9.584,13.465,13.465,0,0,1-3.969,9.584A13.465,13.465,0,0,1-2858.447,27.106Zm-2.793-20.277a.5.5,0,0,0-.5.5V19.776a.5.5,0,0,0,.5.5.5.5,0,0,0,.292-.1l8.536-6.223a.5.5,0,0,0,.205-.4.5.5,0,0,0-.205-.4l-8.536-6.223A.5.5,0,0,0-2861.24,6.829Z" transform="translate(2872)" fill="#fff"/>
</svg>
