<svg xmlns="http://www.w3.org/2000/svg" width="23.582" height="23.979" viewBox="0 0 23.582 23.979">
  <g id="グループ_23169" data-name="グループ 23169" transform="translate(0 -0.702)">
    <circle id="楕円形_183" data-name="楕円形 183" cx="10" cy="10" r="10" transform="translate(3.582 0.702)" fill="#f4ba1d"/>
    <path id="パス_1575" data-name="パス 1575" d="M0,.351,1.673,0l.006,2.283-1.4.153Z" transform="translate(10.44 24.681) rotate(-160)" fill="#f4ba1d"/>
    <path id="パス_1574" data-name="パス 1574" d="M0,.054,1.833,0l.006,2.283-1.4.153Z" transform="matrix(-0.848, -0.53, 0.53, -0.848, 6.903, 23.334)" fill="#f4ba1d"/>
    <path id="パス_1573" data-name="パス 1573" d="M0,0,1.59.577,1.243,2.414.06,2.112Z" transform="matrix(-0.848, -0.53, 0.53, -0.848, 3.821, 20.791)" fill="#f4ba1d"/>
    <path id="パス_1572" data-name="パス 1572" d="M.251,0,1.4.865l-.6,1.2L0,1.664Z" transform="matrix(-0.848, -0.53, 0.53, -0.848, 1.96, 17.547)" fill="#f4ba1d"/>
    <path id="パス_1571" data-name="パス 1571" d="M.573,0l.708.962-.5.89L0,1.093Z" transform="matrix(-0.848, -0.53, 0.53, -0.848, 1.086, 14.11)" fill="#f4ba1d"/>
    <path id="パス_1576" data-name="パス 1576" d="M.2,0,1.879.1l-.7,1.908L0,1.882Z" transform="translate(14.563 24.366) rotate(174)" fill="#f4ba1d"/>
  </g>
</svg>
