<svg xmlns="http://www.w3.org/2000/svg" xmlns:xlink="http://www.w3.org/1999/xlink" width="180" height="6" viewBox="0 0 180 6">
  <defs>
    <clipPath id="clip-path">
      <rect id="長方形_7545" data-name="長方形 7545" width="180" height="6" transform="translate(231 699)" fill="#fff" stroke="#707070" stroke-width="1"/>
    </clipPath>
  </defs>
  <g id="マスクグループ_189" data-name="マスクグループ 189" transform="translate(-231 -699)" clip-path="url(#clip-path)">
    <path id="パス_107761" data-name="パス 107761" d="M-7078.863,3.649a18.484,18.484,0,0,0-5.105-3.1,2.125,2.125,0,0,0-.514-.08c-.218,0-.251,0-.5.613a2.219,2.219,0,0,1-2.076,1.715,3.018,3.018,0,0,1-2.468-1.507c-.427-.567-.574-.71-.871-.71s-.444.143-.871.71a3.019,3.019,0,0,1-2.468,1.506,3.019,3.019,0,0,1-2.468-1.507c-.427-.567-.574-.71-.871-.71s-.443.143-.87.71a3.02,3.02,0,0,1-2.469,1.507,3.018,3.018,0,0,1-2.468-1.507c-.427-.567-.574-.71-.871-.71s-.443.143-.871.71a3.019,3.019,0,0,1-2.468,1.507,3.018,3.018,0,0,1-2.468-1.507c-.427-.567-.574-.71-.87-.71s-.443.143-.871.71a3.02,3.02,0,0,1-2.469,1.507,3.018,3.018,0,0,1-2.468-1.507c-.427-.567-.574-.71-.871-.71s-.443.143-.871.71a3.02,3.02,0,0,1-2.469,1.507,3.018,3.018,0,0,1-2.468-1.507c-.427-.567-.574-.71-.87-.71s-.443.143-.871.71a3.018,3.018,0,0,1-2.468,1.507,3.02,3.02,0,0,1-2.469-1.507c-.427-.567-.574-.71-.871-.71s-.443.143-.87.71A3.018,3.018,0,0,1-7133.8,2.8a3.019,3.019,0,0,1-2.469-1.507c-.427-.567-.574-.71-.87-.71s-.444.143-.872.71a3.019,3.019,0,0,1-2.468,1.506,3.019,3.019,0,0,1-2.469-1.507c-.427-.567-.574-.71-.87-.71s-.443.143-.871.71a3.019,3.019,0,0,1-2.468,1.507,3.02,3.02,0,0,1-2.469-1.507c-.427-.567-.574-.71-.871-.71s-.443.143-.87.71a3.017,3.017,0,0,1-2.468,1.507,3.02,3.02,0,0,1-2.469-1.506c-.427-.567-.574-.71-.871-.71s-.443.143-.87.71a3.018,3.018,0,0,1-2.468,1.507,3.019,3.019,0,0,1-2.468-1.507c-.427-.567-.574-.71-.871-.71s-.443.143-.87.71a3.018,3.018,0,0,1-2.468,1.507,3.02,3.02,0,0,1-2.469-1.507c-.427-.567-.574-.71-.871-.71s-.443.143-.87.71a3.018,3.018,0,0,1-2.468,1.507,3.019,3.019,0,0,1-2.468-1.506c-.427-.567-.574-.71-.871-.71s-.443.143-.871.71a3.018,3.018,0,0,1-2.468,1.507,3.018,3.018,0,0,1-2.468-1.507c-.427-.567-.574-.71-.87-.71s-.444.143-.871.71A3.019,3.019,0,0,1-7187.22,2.8a3.02,3.02,0,0,1-2.469-1.507c-.427-.567-.574-.71-.871-.71s-.443.143-.87.71A3.018,3.018,0,0,1-7193.9,2.8a3.019,3.019,0,0,1-2.468-1.506c-.427-.567-.574-.71-.871-.71s-.443.143-.871.71a3.018,3.018,0,0,1-2.468,1.507,3.019,3.019,0,0,1-2.468-1.507c-.427-.567-.574-.71-.871-.71s-.444.143-.871.71a3.019,3.019,0,0,1-2.468,1.506,3.017,3.017,0,0,1-2.467-1.506c-.427-.567-.574-.71-.871-.71s-.443.143-.871.71a3.019,3.019,0,0,1-2.468,1.507,3.018,3.018,0,0,1-2.468-1.507c-.427-.567-.574-.71-.87-.71s-.444.143-.871.71a3.019,3.019,0,0,1-2.468,1.506,3.019,3.019,0,0,1-2.468-1.507c-.427-.567-.574-.71-.87-.71s-.444.143-.871.71a3.019,3.019,0,0,1-2.468,1.506,3.019,3.019,0,0,1-2.468-1.507c-.427-.567-.574-.71-.871-.71s-.444.143-.871.71a3.019,3.019,0,0,1-2.468,1.506,3.017,3.017,0,0,1-2.468-1.507c-.427-.567-.574-.71-.87-.71s-.444.143-.872.71a3.019,3.019,0,0,1-2.468,1.506,3.019,3.019,0,0,1-2.468-1.507c-.427-.567-.574-.71-.871-.71s-.443.143-.871.71a3.019,3.019,0,0,1-2.468,1.507,3.018,3.018,0,0,1-2.468-1.507c-.427-.567-.574-.71-.871-.71s-.444.143-.871.71A3.019,3.019,0,0,1-7254,2.8a3.018,3.018,0,0,1-2.468-1.507c-.427-.567-.574-.71-.87-.71s-.443.143-.871.71a3.019,3.019,0,0,1-2.468,1.507,3.019,3.019,0,0,1-2.468-1.507c-.427-.567-.574-.71-.871-.71s-.443.143-.87.71a3.019,3.019,0,0,1-2.469,1.507,3.019,3.019,0,0,1-2.468-1.506c-.427-.567-.574-.71-.871-.71s-.443.143-.871.71a3.019,3.019,0,0,1-2.468,1.507,2.218,2.218,0,0,1-2.076-1.715c-.246-.613-.28-.613-.5-.613a2.121,2.121,0,0,0-.514.08,18.5,18.5,0,0,0-5.1,3.1h203.358m2.778,1H-7285s4.889-4.354,7.632-5.066a3.075,3.075,0,0,1,.766-.112c1.776,0,1.084,2.328,2.573,2.328,1.669,0,1.669-2.216,3.339-2.216s1.67,2.216,3.339,2.216,1.67-2.216,3.339-2.216,1.669,2.216,3.339,2.216,1.669-2.216,3.339-2.216S-7255.666,1.8-7254,1.8s1.67-2.216,3.339-2.216h0c1.669,0,1.669,2.217,3.338,2.217s1.67-2.217,3.339-2.217h0c1.669,0,1.669,2.217,3.339,2.217s1.669-2.217,3.34-2.217,1.669,2.216,3.338,2.216,1.669-2.216,3.339-2.216,1.669,2.216,3.339,2.216,1.669-2.216,3.339-2.216,1.669,2.216,3.338,2.216,1.669-2.216,3.339-2.216,1.669,2.216,3.338,2.216,1.669-2.216,3.339-2.216,1.67,2.216,3.338,2.216,1.669-2.216,3.339-2.216,1.669,2.216,3.339,2.216,1.669-2.216,3.338-2.216,1.67,2.216,3.339,2.216,1.67-2.216,3.338-2.216h0c1.669,0,1.669,2.217,3.339,2.217s1.669-2.217,3.339-2.217,1.669,2.216,3.338,2.216,1.669-2.216,3.338-2.216,1.67,2.216,3.339,2.216,1.669-2.216,3.338-2.216,1.669,2.216,3.339,2.216,1.669-2.216,3.338-2.216,1.669,2.216,3.339,2.216,1.669-2.216,3.338-2.216,1.67,2.216,3.34,2.216,1.668-2.216,3.337-2.216,1.669,2.216,3.339,2.216,1.669-2.216,3.339-2.216,1.669,2.216,3.339,2.216,1.669-2.216,3.339-2.216h0c1.669,0,1.669,2.217,3.339,2.217s1.669-2.217,3.338-2.217,1.669,2.217,3.339,2.217,1.669-2.216,3.338-2.217,1.669,2.216,3.338,2.216,1.67-2.216,3.339-2.216,1.669,2.216,3.338,2.216,1.67-2.216,3.339-2.216,1.669,2.216,3.338,2.216,1.669-2.216,3.339-2.216,1.669,2.216,3.338,2.216,1.67-2.216,3.339-2.216,1.669,2.216,3.339,2.216,1.669-2.216,3.339-2.216,1.669,2.216,3.338,2.216.595-2.929,3.339-2.216S-7076.085,4.649-7076.085,4.649Z" transform="translate(7501.233 701.84)" fill="#214995"/>
  </g>
</svg>
