<svg xmlns="http://www.w3.org/2000/svg" width="22" height="22" viewBox="0 0 22 22">
  <g id="グループ_23685" data-name="グループ 23685" transform="translate(-584.325 -1682.25)">
    <circle id="楕円形_1" data-name="楕円形 1" cx="11" cy="11" r="11" transform="translate(584.325 1682.25)" fill="#fff"/>
    <path id="楕円形_1_-_アウトライン" data-name="楕円形 1 - アウトライン" d="M11,.5A10.5,10.5,0,1,0,21.5,11,10.512,10.512,0,0,0,11,.5M11,0A11,11,0,1,1,0,11,11,11,0,0,1,11,0Z" transform="translate(584.325 1682.25)" fill="#3c3636"/>
    <path id="多角形_1" data-name="多角形 1" d="M4.1.533a.5.5,0,0,1,.8,0L8.4,5.2A.5.5,0,0,1,8,6H1a.5.5,0,0,1-.4-.8Z" transform="translate(591.325 1698.25) rotate(-90)" fill="#3c3636"/>
  </g>
</svg>
