<svg xmlns="http://www.w3.org/2000/svg" width="38.057" height="38.057" viewBox="0 0 38.057 38.057">
  <g id="グループ_22893" data-name="グループ 22893" transform="translate(886.057 1566.715) rotate(180)">
    <g id="楕円形_308" data-name="楕円形 308" transform="translate(848 1528.658)" fill="#fff" stroke="#3c3636" stroke-width="1">
      <circle cx="19.028" cy="19.028" r="19.028" stroke="none"/>
      <circle cx="19.028" cy="19.028" r="18.528" fill="none"/>
    </g>
    <g id="グループ_22887" data-name="グループ 22887" transform="translate(-1.009)">
      <path id="多角形_62" data-name="多角形 62" d="M7.679.428a.5.5,0,0,1,.752,0l6.951,7.918a.5.5,0,0,1-.376.83H1.1a.5.5,0,0,1-.376-.83Z" transform="translate(877.185 1539.632) rotate(90)" fill="#3c3636"/>
      <path id="多角形_63" data-name="多角形 63" d="M7.658.518a.5.5,0,0,1,.794,0L15.493,9.7a.5.5,0,0,1-.4.8H1.013a.5.5,0,0,1-.4-.8Z" transform="translate(872.515 1539.632) rotate(90)" fill="#3c3636"/>
    </g>
  </g>
</svg>
