<svg id="グループ_22892" data-name="グループ 22892" xmlns="http://www.w3.org/2000/svg" width="57.039" height="57.039" viewBox="0 0 57.039 57.039">
  <ellipse id="楕円形_307" data-name="楕円形 307" cx="28.52" cy="28.52" rx="28.52" ry="28.52" fill="#fff"/>
  <path id="楕円形_307_-_アウトライン" data-name="楕円形 307 - アウトライン" d="M28.52,1A27.527,27.527,0,0,0,17.808,53.877,27.527,27.527,0,0,0,39.231,3.162,27.346,27.346,0,0,0,28.52,1m0-1A28.52,28.52,0,1,1,0,28.52,28.52,28.52,0,0,1,28.52,0Z" fill="#3c3636"/>
  <path id="多角形_61" data-name="多角形 61" d="M11.676.518a.5.5,0,0,1,.794,0L23.529,14.943a.5.5,0,0,1-.4.8H1.013a.5.5,0,0,1-.4-.8Z" transform="translate(17.523 40.592) rotate(-90)" fill="#3c3636"/>
</svg>
