<svg id="グループ_23665" data-name="グループ 23665" xmlns="http://www.w3.org/2000/svg" xmlns:xlink="http://www.w3.org/1999/xlink" width="272.926" height="56.051" viewBox="0 0 272.926 56.051">
  <defs>
    <clipPath id="clip-path">
      <rect id="長方形_7949" data-name="長方形 7949" width="272.926" height="56.051" fill="none"/>
    </clipPath>
  </defs>
  <g id="グループ_23664" data-name="グループ 23664" clip-path="url(#clip-path)">
    <path id="パス_108424" data-name="パス 108424" d="M41.141,38.173c0,9.871-9.733,17.879-22.572,17.879C7.042,56.052,0,49.494,0,42.522c0-4.625,3.176-8.491,7.662-8.491,2.692,0,4.763,1.795,4.763,3.106s-2.21,2.416-2.21,6.144c0,4.556,3.59,8.766,10.148,8.766,6.143,0,10.907-4.072,10.907-9.871,0-11.6-20.709-12.839-20.709-26.231C10.562,6.9,20.3,0,31.753,0c6.9,0,13.322,2.623,13.322,8.352,0,5.315-5.246,7.593-9.249,7.593-3.383,0-4.9-1.311-4.9-2.416a.672.672,0,0,1,.553-.69c2.761-.829,4.349-2.278,4.349-4.625,0-2.624-2.416-4.073-5.385-4.073-4.624,0-10.078,2.968-10.078,8.491,0,10.491,20.777,11.458,20.777,25.54" transform="translate(0 -0.001)" fill="#1a1311"/>
    <path id="パス_108425" data-name="パス 108425" d="M116.682,85.923c-2.251,2.251-4.632,3.537-7.4,3.537-5.4,0-7.525-5.467-7.525-10.741,0-7.269,2.959-14.022,6.432-14.022,2.509,0,3.988,1.479,3.988,3.6,0,1.158-.514,1.415-1.351,3.152a17.629,17.629,0,0,0-1.865,8.04c0,3.924,1.865,5.275,3.216,5.275,1.094,0,2.187-.772,3.28-2.058a18.846,18.846,0,0,1-.514-4.31c0-6.174,2.573-12.671,6.368-12.671,2.572,0,3.6,2.059,3.6,4.374,0,3.666-1.672,7.4-2.637,9.519.193,2.638,1.029,5.082,3.473,5.082,3.409,0,6.368-5.145,6.368-10.677,0-2.9-1.415-5.211-3.217-5.468-.45-.064-.707-.193-.707-.965a4.688,4.688,0,0,1,4.631-4.245c3.667,0,5.532,3.409,5.532,7.2,0,7.462-7.075,18.975-15.309,18.975a6.973,6.973,0,0,1-6.368-3.6" transform="translate(-57.225 -35.623)" fill="#1a1311"/>
    <path id="パス_108426" data-name="パス 108426" d="M202.584,87.371c-6.272,0-8.059-4.7-5.973-7.087a.561.561,0,0,1,.531-.172,12.223,12.223,0,0,0,8.814-2.056c4.71-3.147,6.145-6.4,4.014-9.748-1.936-3.05-6.294-3.088-10.017-2.026a18.255,18.255,0,0,0-10.668,9.023,14.635,14.635,0,0,0-1.674,6.011,8.431,8.431,0,0,0,.351,2.781c.256.694,1.6,5.92,8.806,6.384,5.255.337,10.578-1.069,16.416-6.436L212.878,82s-3.8,5.375-10.294,5.375m-3.731-15.692c1.425-2.97,3.363-3.766,4.722-3.783s2.669,1.972.862,5.881-4.575,4.38-5.584,3.93c-1.493-.666-1.425-3.059,0-6.029" transform="translate(-105.503 -36.92)" fill="#1a1311"/>
    <path id="パス_108427" data-name="パス 108427" d="M287.093,65.515c-1.069,1.047-3.394,4.157-6.025,4.388S278,67.22,278.392,65.4s2.168-10.578,3.76-14.936c.129-.354.277-.751.439-1.179a2.455,2.455,0,0,1,.9-.366c.427-.09,2.338-.1,2.679-.107s1.537.105,1.842-.944-1.042-1.207-1.378-1.274-2.482-.143-2.482-.143c-.354-.189.176-1.359.177-1.364,1.286-2.9,3.085-6.871,3.149-7.085.1-.306.628-1.57-.434-2.235a1.564,1.564,0,0,0-.957-.053,10.845,10.845,0,0,0-1.555.4,46.094,46.094,0,0,0-5.965,2.542,3.668,3.668,0,0,0-1.751,1.9c-.527,1.151-1.833,6.278-1.833,6.278a8.495,8.495,0,0,1-1.451,0,1.125,1.125,0,0,0-1.208,1.394,1.6,1.6,0,0,0,1.4,1.331,3.628,3.628,0,0,0,.495.056c-1.463,5.2-3.024,10.929-3.307,12.205a19.476,19.476,0,0,0-.4,3.424c-.561.739-4.242,5.271-10.2,5.271-6.272,0-8.066-4.71-5.973-7.094a.576.576,0,0,1,.53-.172,12.249,12.249,0,0,0,8.814-2.049c4.71-3.155,6.138-6.4,4.015-9.756-1.936-3.05-6.295-3.087-10.017-2.026a18.307,18.307,0,0,0-10.668,9.023c-2.325,4.979-1.555,7.154-1.555,7.154l.232,1.637s1.6,5.92,8.806,6.392c5.155.33,10.376-1.026,16.084-6.15.293,3.068,1.537,6.17,5.186,6.486,6.384.553,12.753-7.7,13.007-8.148s.358-.618.15-.815c-.194-.119-.762-.531-1.832.516m-30.51-10.7c1.42-2.968,3.364-3.76,4.717-3.783s2.669,1.973.867,5.883-4.575,4.38-5.584,3.932c-1.495-.666-1.428-3.058,0-6.033" transform="translate(-137.966 -20.062)" fill="#1a1311"/>
    <path id="パス_108428" data-name="パス 108428" d="M485.643,45.492c-.386-.411-.667-.3-.9-.1a24.387,24.387,0,0,1-2.808,2.391,6.941,6.941,0,0,1-5.155.611s5.822-10.75,2.628-15.9-9.044-2.721-11.151-1.682a27.392,27.392,0,0,0-3.945,2.421.209.209,0,0,1-.326-.23C464.864,30.326,468.3,19.959,470,16.6c1.958-3.874,2.27-4.025,2.178-5.161s-.6-1.776-1.437-1.626-7.636,1.654-8.515,3.2A102.61,102.61,0,0,0,456.5,29.682c-1.714,6.947-2.735,10.516-2.688,15.788,0,0-3.8,5.144-6.937,4.972s-1.509-7.115-1.179-8.73c.294-1.445,1.486-6.341,3.878-9.538.8-1.075,1.488-1.411,1.6-1.962a.857.857,0,0,0-.859-1.07c-.453-.022-6.05.357-9.074,3.668,0,0-3.145-3.563-7.438-3.066s-9.187,2.287-12.052,8.117-2,8.26-2,8.26-4.11,2.687-7.717,2.51-16.03-1.92-16.8-2.6,1.372-.871,3.438-3.471c1.525-1.917,5.244-9.789,6.253-19.487s3.5-16.186,5.3-17.943,4.01-1.984,5-1.228a2.66,2.66,0,0,1-.089,4.046c-1.585,1.476-2.4,1.544-2.927,3.327a3.637,3.637,0,0,0,1.778,4.3c1.555.916,5.675,1.054,7.194-1.722,1.482-2.709,2.093-5.773-.087-8.795S413.917.594,410,1.235s-10.986,4.255-13.764,14.081a126.882,126.882,0,0,0-3.889,20c-.142,1.4-1.166,7.139-2.115,8.211s-1.121,1.342-3.482.761-6.813-.263-7.83,3.193.488,5.807,2.756,6.19a10.285,10.285,0,0,0,7.8-2.232c2.356-1.944,2.231-2.655,3.088-2.5s2.575,1.617,4.059,2.783,7.291,5.236,11.193,4.929a11.858,11.858,0,0,0,8.251-4.02c1.822-2.011,4.084-4.151,4.084-4.151s1.714,4.925,6.649,5.655c4.679.691,6.951-.88,7.461-1.173.928-.535,3.53-2.6,3.53-2.6s.758,3.2,3.757,3.645a9.681,9.681,0,0,0,8.944-2.713,21.316,21.316,0,0,0,3.743-4.113,8.106,8.106,0,0,0,5.525,6.363c5.047,1.782,10.14-.109,12.052-.958,1.3-.576,3.118-2.259,3.972-2.119a7.768,7.768,0,0,0,5.268-.364,15.969,15.969,0,0,0,4.411-3.5c.286-.309.562-.7.176-1.109m-48.564.82c-2.266,4.871-4.968,5.821-6.528,5.449-3.813-.909-3.31-5.786-1.454-12.15s5.354-7.472,7.156-7.3,2.718,2.094,3.007,3.449.085,5.677-2.181,10.548m34.932-5.633a17.729,17.729,0,0,1-.28,2.133c-.075.334-.363.662-.689.584a3.875,3.875,0,0,0-3.954,1.139c-1.349,1.734.028,3.8.379,4.425a2.241,2.241,0,0,1,.36.876.6.6,0,0,1-.186.477c-.29.284-.58.547-.864.792a3.575,3.575,0,0,1-5.958-1.565c-.93-2.645.659-7.637,2.45-11.554s5.17-5.251,6.52-5c1.873.344,2.753,2.031,2.222,7.7" transform="translate(-212.907 -0.61)" fill="#1a1311"/>
  </g>
</svg>
