<svg xmlns="http://www.w3.org/2000/svg" width="103.738" height="643.14" viewBox="0 0 103.738 643.14">
  <g id="グループ_23721" data-name="グループ 23721" transform="translate(-37.48 -2818.293)">
    <ellipse id="楕円形_589" data-name="楕円形 589" cx="16.879" cy="16.879" rx="16.879" ry="16.879" transform="matrix(0.999, 0.035, -0.035, 0.999, 98.349, 3221.246)" fill="#fff"/>
    <ellipse id="楕円形_590" data-name="楕円形 590" cx="12.759" cy="12.759" rx="12.759" ry="12.759" transform="translate(103.841 2821.845) rotate(-8)" fill="#fff"/>
    <ellipse id="楕円形_593" data-name="楕円形 593" cx="6.379" cy="6.379" rx="6.379" ry="6.379" transform="translate(80.181 2889.984) rotate(-8)" fill="#f4ba1d"/>
    <ellipse id="楕円形_588" data-name="楕円形 588" cx="4.5" cy="4.5" rx="4.5" ry="4.5" transform="matrix(1, 0.017, -0.017, 1, 90.17, 3153.94)" fill="#fff"/>
    <ellipse id="楕円形_592" data-name="楕円形 592" cx="6.33" cy="6.33" rx="6.33" ry="6.33" transform="matrix(0.999, 0.035, -0.035, 0.999, 128.566, 3448.339)" fill="#fff"/>
    <ellipse id="楕円形_591" data-name="楕円形 591" cx="12.659" cy="12.659" rx="12.659" ry="12.659" transform="matrix(0.999, 0.035, -0.035, 0.999, 114.281, 3414.063)" fill="#f4ba1d"/>
    <g id="グループ_23533" data-name="グループ 23533" transform="matrix(1, 0.017, -0.017, 1, 46.36, 2918.685)">
      <ellipse id="楕円形_525" data-name="楕円形 525" cx="16.587" cy="16.587" rx="16.587" ry="16.587" transform="matrix(1, 0.017, -0.017, 1, -8.001, -15.919)" fill="#f4ba1d"/>
      <ellipse id="楕円形_521" data-name="楕円形 521" cx="31.898" cy="31.897" rx="31.898" ry="31.897" transform="translate(0 9.98) rotate(-9)" fill="#f4ba1d"/>
    </g>
  </g>
</svg>
