<svg xmlns="http://www.w3.org/2000/svg" width="95.031" height="591.14" viewBox="0 0 95.031 591.14">
  <g id="グループ_23719" data-name="グループ 23719" transform="translate(-46.185 -1293)">
    <ellipse id="楕円形_519" data-name="楕円形 519" cx="16.879" cy="16.879" rx="16.879" ry="16.879" transform="matrix(0.999, -0.035, 0.035, 0.999, 97.17, 1499.449)" fill="#fff"/>
    <ellipse id="楕円形_520" data-name="楕円形 520" cx="12.759" cy="12.759" rx="12.759" ry="12.759" transform="translate(102.393 1855.318) rotate(8)" fill="#fff"/>
    <circle id="楕円形_522" data-name="楕円形 522" cx="4.5" cy="4.5" r="4.5" transform="matrix(1, -0.017, 0.017, 1, 90.013, 1591.494)" fill="#fff"/>
    <ellipse id="楕円形_524" data-name="楕円形 524" cx="6.33" cy="6.33" rx="6.33" ry="6.33" transform="matrix(0.999, -0.035, 0.035, 0.999, 128.124, 1293.441)" fill="#fff"/>
    <ellipse id="楕円形_523" data-name="楕円形 523" cx="12.659" cy="12.659" rx="12.659" ry="12.659" transform="matrix(0.999, -0.035, 0.035, 0.999, 113.397, 1315.067)" fill="#f4ba1d"/>
    <g id="グループ_23513" data-name="グループ 23513" transform="matrix(1, -0.017, 0.017, 1, 44.963, 1755.753)">
      <ellipse id="楕円形_525" data-name="楕円形 525" cx="16.587" cy="16.587" rx="16.587" ry="16.587" transform="matrix(1, -0.017, 0.017, 1, 48.513, 0.579)" fill="#f4ba1d"/>
      <ellipse id="楕円形_521" data-name="楕円形 521" cx="31.898" cy="31.897" rx="31.898" ry="31.897" transform="translate(9.98 7.019) rotate(9)" fill="#f4ba1d"/>
    </g>
  </g>
</svg>
