<svg xmlns="http://www.w3.org/2000/svg" width="75.722" height="606.714" viewBox="0 0 75.722 606.714">
  <g id="グループ_23720" data-name="グループ 23720" transform="translate(-1237.278 -896.26)">
    <ellipse id="楕円形_529" data-name="楕円形 529" cx="8.987" cy="8.987" rx="8.987" ry="8.987" transform="translate(1244.489 1226.51) rotate(7)" fill="#fff"/>
    <ellipse id="楕円形_527" data-name="楕円形 527" cx="14.638" cy="14.638" rx="14.638" ry="14.638" transform="translate(1249.005 1168.394) rotate(7)" fill="#f4ba1d"/>
    <ellipse id="楕円形_528" data-name="楕円形 528" cx="11.26" cy="11.26" rx="11.26" ry="11.26" transform="matrix(0.985, 0.174, -0.174, 0.985, 1241.188, 1476.885)" fill="#fff"/>
    <ellipse id="楕円形_532" data-name="楕円形 532" cx="4.504" cy="4.504" rx="4.504" ry="4.504" transform="translate(1300.527 912.024)" fill="#fff"/>
    <ellipse id="楕円形_531" data-name="楕円形 531" cx="11.26" cy="11.26" rx="11.26" ry="11.26" transform="translate(1266.804 933.968)" fill="#f4ba1d"/>
    <ellipse id="楕円形_533" data-name="楕円形 533" cx="7.882" cy="7.882" rx="7.882" ry="7.882" transform="translate(1262.329 896.26)" fill="#fff"/>
    <g id="グループ_23514" data-name="グループ 23514" transform="translate(1247.777 1390.192)">
      <ellipse id="楕円形_526" data-name="楕円形 526" cx="28.151" cy="28.151" rx="28.151" ry="28.151" transform="matrix(0.985, 0.174, -0.174, 0.985, 9.777, 4.504)" fill="#f4ba1d"/>
      <ellipse id="楕円形_530" data-name="楕円形 530" cx="9.008" cy="9.008" rx="9.008" ry="9.008" transform="translate(43.742 0)" fill="#f4ba1d"/>
    </g>
  </g>
</svg>
