<svg xmlns="http://www.w3.org/2000/svg" width="75.724" height="606.714" viewBox="0 0 75.724 606.714">
  <g id="グループ_23724" data-name="グループ 23724" transform="translate(-1237.277 -2316.434)">
    <ellipse id="楕円形_595" data-name="楕円形 595" cx="8.987" cy="8.987" rx="8.987" ry="8.987" transform="translate(1242.299 2575.058) rotate(-7)" fill="#fff"/>
    <ellipse id="楕円形_594" data-name="楕円形 594" cx="14.639" cy="14.638" rx="14.639" ry="14.638" transform="translate(1245.438 2621.954) rotate(-7)" fill="#f4ba1d"/>
    <ellipse id="楕円形_596" data-name="楕円形 596" cx="11.26" cy="11.26" rx="11.26" ry="11.26" transform="matrix(0.985, -0.174, 0.174, 0.985, 1237.277, 2320.344)" fill="#fff"/>
    <ellipse id="楕円形_597" data-name="楕円形 597" cx="11.26" cy="11.26" rx="11.26" ry="11.26" transform="translate(1266.804 2862.919)" fill="#f4ba1d"/>
    <ellipse id="楕円形_599" data-name="楕円形 599" cx="7.882" cy="7.882" rx="7.882" ry="7.882" transform="translate(1262.329 2907.383)" fill="#fff"/>
    <g id="グループ_23534" data-name="グループ 23534" transform="translate(1247.777 2359.487)">
      <ellipse id="楕円形_526" data-name="楕円形 526" cx="28.151" cy="28.151" rx="28.151" ry="28.151" transform="matrix(0.985, -0.174, 0.174, 0.985, 0, 9.777)" fill="#f4ba1d"/>
      <ellipse id="楕円形_530" data-name="楕円形 530" cx="13.508" cy="13.508" rx="13.508" ry="13.508" transform="translate(-10 44.207)" fill="#f4ba1d"/>
    </g>
    <ellipse id="楕円形_598" data-name="楕円形 598" cx="4.504" cy="4.504" rx="4.504" ry="4.504" transform="translate(1300.527 2898.375)" fill="#fff"/>
  </g>
</svg>
