<svg xmlns="http://www.w3.org/2000/svg" width="314" height="90.692" viewBox="0 0 314 90.692">
  <g id="グループ_24136" data-name="グループ 24136" transform="translate(-1325 -452.808)">
    <g id="グループ_24134" data-name="グループ 24134">
      <g id="グループ_24132" data-name="グループ 24132" transform="translate(1340.227 24.424)">
        <text id="が好きならそれでヨシ_" data-name="が好きならそれでヨシ!" transform="translate(141.773 511.076)" fill="#fff" font-size="28" font-family="NotoSansJP-Black, Noto Sans JP" font-weight="800" letter-spacing="0.08em"><tspan x="-156.338" y="0">が</tspan><tspan y="0">好</tspan><tspan y="0">きならそれでヨシ!</tspan></text>
      </g>
      <g id="グループ_24133" data-name="グループ 24133" transform="translate(1307 22.808)">
        <path id="長方形_7855" data-name="長方形 7855" d="M26,0h99a0,0,0,0,1,0,0V52a0,0,0,0,1,0,0H26A26,26,0,0,1,0,26v0A26,26,0,0,1,26,0Z" transform="translate(50 430)" fill="#744018" opacity="0.998"/>
        <path id="長方形_7863" data-name="長方形 7863" d="M0,0H99a26,26,0,0,1,26,26v0A26,26,0,0,1,99,52H0a0,0,0,0,1,0,0V0A0,0,0,0,1,0,0Z" transform="translate(175 430)" fill="#004e64" opacity="0.998"/>
        <text id="サウナ" transform="translate(112.5 466.5)" fill="#fdfcfc" font-size="26" font-family="NotoSansJP-Black, Noto Sans JP" font-weight="800" letter-spacing="0.08em"><tspan x="-41.08" y="0">サウナ</tspan></text>
        <text id="温泉" transform="translate(237.5 465.5)" fill="#fdfcfc" font-size="26" font-family="NotoSansJP-Black, Noto Sans JP" font-weight="800" letter-spacing="0.08em"><tspan x="-27.04" y="0">温泉</tspan></text>
        <text id="_" data-name="&amp;" transform="translate(175 463.837)" fill="none" stroke="#fff" stroke-width="1" font-size="26" font-family="Afacad-Bold, Afacad" font-weight="700" letter-spacing="0.08em"><tspan x="-7.222" y="0">&amp;</tspan></text>
      </g>
    </g>
  </g>
</svg>
