<svg xmlns="http://www.w3.org/2000/svg" width="156" height="160" viewBox="0 0 156 160">
  <g id="グループ_24242" data-name="グループ 24242" transform="translate(-1191 -587)">
    <ellipse id="楕円形_59" data-name="楕円形 59" cx="78" cy="78.5" rx="78" ry="78.5" transform="translate(1191 590)" fill="#f5e569"/>
    <path id="楕円形_59_-_アウトライン" data-name="楕円形 59 - アウトライン" d="M78,2A75.316,75.316,0,0,0,35.514,15.06a76.738,76.738,0,0,0,0,126.879,75.519,75.519,0,0,0,84.972,0,76.738,76.738,0,0,0,0-126.879A75.316,75.316,0,0,0,78,2m0-2c43.078,0,78,35.146,78,78.5S121.078,157,78,157,0,121.854,0,78.5,34.922,0,78,0Z" transform="translate(1191 590)" fill="#004e64"/>
    <path id="楕円形_60" data-name="楕円形 60" d="M72,1A70.129,70.129,0,0,0,44.366,6.617a70.848,70.848,0,0,0-12.06,6.591,71.735,71.735,0,0,0,0,118.583,70.848,70.848,0,0,0,12.06,6.591,70.778,70.778,0,0,0,55.268,0,70.848,70.848,0,0,0,12.06-6.591,71.735,71.735,0,0,0,0-118.583,70.848,70.848,0,0,0-12.06-6.591A70.129,70.129,0,0,0,72,1m0-1c39.764,0,72,32.459,72,72.5S111.764,145,72,145,0,112.541,0,72.5,32.235,0,72,0Z" transform="translate(1197 596)" fill="#004e64"/>
    <g id="グループ_24155" data-name="グループ 24155">
      <path id="パス_108829" data-name="パス 108829" d="M-42.015,0h7.44V-1.86h-2.4c-.525,0-1.26.06-1.815.12,2.025-1.98,3.69-4.14,3.69-6.15a3.256,3.256,0,0,0-3.5-3.42A4.456,4.456,0,0,0-42.12-9.63l1.2,1.2a2.9,2.9,0,0,1,2.04-1.14,1.586,1.586,0,0,1,1.665,1.8c0,1.71-1.785,3.8-4.8,6.5ZM-29.07.21c2.265,0,3.75-1.98,3.75-5.8S-26.8-11.31-29.07-11.31s-3.765,1.875-3.765,5.715C-32.835-1.77-31.335.21-29.07.21Zm0-1.725c-.96,0-1.68-.96-1.68-4.08s.72-4,1.68-4,1.665.9,1.665,4S-28.11-1.515-29.07-1.515ZM-23.685,0h7.44V-1.86h-2.4c-.525,0-1.26.06-1.815.12,2.025-1.98,3.69-4.14,3.69-6.15a3.256,3.256,0,0,0-3.495-3.42A4.456,4.456,0,0,0-23.79-9.63l1.2,1.2a2.9,2.9,0,0,1,2.04-1.14,1.586,1.586,0,0,1,1.665,1.8c0,1.71-1.785,3.8-4.8,6.5Zm12.66.21A3.751,3.751,0,0,0-7.14-3.69a3.223,3.223,0,0,0-3.42-3.525,2.915,2.915,0,0,0-1.335.315l.21-2.355H-7.65v-1.86h-5.94l-.3,5.4,1.005.66A2.656,2.656,0,0,1-11.22-5.64,1.8,1.8,0,0,1-9.345-3.63,1.864,1.864,0,0,1-11.31-1.59a3.45,3.45,0,0,1-2.445-1.125l-1.02,1.41A5.059,5.059,0,0,0-11.025.21ZM-1.2-3.6V-5.88h2.6V-3.6Zm9.57,0H3.24V-5.88H7.2V-7.545H3.24V-9.33H7.545v-1.725H-.93a9.576,9.576,0,0,0,.495-1.23L-2.25-12.75A11.568,11.568,0,0,1-5.4-7.755,13.805,13.805,0,0,1-3.855-6.6a13.48,13.48,0,0,0,2.04-2.73h3.21v1.785h-4.38V-3.6h-2.37v1.71h6.75V1.32H3.24V-1.89H8.37ZM10.56,0h6.675V-1.785H15.15v-9.33H13.515a6.925,6.925,0,0,1-2.58.945v1.365h2.01v7.02H10.56ZM22.92.21c2.265,0,3.75-1.98,3.75-5.8s-1.485-5.715-3.75-5.715-3.765,1.875-3.765,5.715C19.155-1.77,20.655.21,22.92.21Zm0-1.725c-.96,0-1.68-.96-1.68-4.08s.72-4,1.68-4,1.665.9,1.665,4S23.88-1.515,22.92-1.515ZM32.235-4.9c.06-.63.09-1.26.1-1.83h6.015V-4.9Zm6.12-5.355v1.83H32.34v-1.83ZM40.245-12h-9.75v4.935c0,2.28-.21,5.145-2.475,7.08A7.045,7.045,0,0,1,29.4,1.3,8.069,8.069,0,0,0,31.935-3.18h6.42V-1c0,.315-.12.435-.48.435-.33,0-1.59.015-2.64-.045a7.657,7.657,0,0,1,.75,1.875A9.074,9.074,0,0,0,39.3.915c.69-.3.945-.81.945-1.89Z" transform="translate(1266 635)" fill="#004e64"/>
      <path id="パス_108828" data-name="パス 108828" d="M-48.23-10.514v1.68h10.612v-1.68Zm.966,4.466v1.694h8.54V-6.048Zm-1.75,4.718V.378h12.152V-1.33ZM-31.836-4.2v-.63h2.324v.63Zm0-2.254h2.324v.63h-2.324Zm6.454,0v.63h-2.45v-.63Zm0,2.254h-2.45v-.63h2.45Zm-2.45,3.71v-.742h4.676V-2.478h-4.676v-.63h4.158V-7.546h-4.158v-.532h5.488v-1.3h-5.488v-.728c1.526-.112,2.982-.266,4.2-.462l-.77-1.288a76.494,76.494,0,0,1-9.422.7,4.391,4.391,0,0,1,.336,1.274c1.26-.014,2.632-.056,3.976-.112v.616H-34.86v1.3h5.348v.532H-33.46v4.438h3.948v.63h-4.41v1.246h4.41V-.49h-5.432V.826h12.7V-.49Zm16.7-9.044h-4.62v-.7h4.62Zm0,1.792h-4.62V-8.47h4.62Zm0,1.764h-4.62v-.714h4.62Zm1.638-5.39h-7.826v6.524h7.826Zm-8.274,9.114A9.938,9.938,0,0,1-20.748,0,14.021,14.021,0,0,1-19.39,1.12a13.9,13.9,0,0,0,3.36-2.73Zm9.758-.392v-1.47H-18.284v-6.412h-1.68v8.176h1.68v-.294h3.122V1.218h1.75V-2.646ZM-12.53-1.47a28.616,28.616,0,0,1,3.15,2.6L-7.84.1A29.557,29.557,0,0,0-11.1-2.366ZM3.024-11.116A21.459,21.459,0,0,0,5.362-5.39,6.571,6.571,0,0,1,6.72-6.748a15.728,15.728,0,0,1-2.184-4.844Zm-2.716-.42A12.359,12.359,0,0,1-1.806-6.384,8.738,8.738,0,0,1-.392-5.264,16.655,16.655,0,0,0,2.03-11.186ZM-1.092-4.2c-.252-.392-1.428-1.988-1.834-2.478v-.77h1.568v-1.54H-2.926v-2.87H-4.494v2.87H-6.328v1.54h1.68a13.764,13.764,0,0,1-2.044,4.7A7.59,7.59,0,0,1-5.908-1.2,11.875,11.875,0,0,0-4.494-4.13V1.2h1.568v-5.88c.35.63.7,1.3.9,1.75Zm4.228.952c.35.616.714,1.3,1.036,1.988-.924.056-1.848.112-2.716.168.63-1.442,1.3-3.29,1.848-4.914L1.372-6.44A34.165,34.165,0,0,1-.238-1.008c-.532.028-1.008.056-1.428.07l.28,1.68C.294.63,2.59.448,4.8.252a8.059,8.059,0,0,1,.322.994L6.706.434A23.864,23.864,0,0,0,4.578-3.934Zm8.484-8.078-.238.07H8.344V1.218H9.786V-9.772h1.092c-.224.952-.518,2.17-.8,3.052a3.747,3.747,0,0,1,.966,2.45c0,.392-.056.672-.21.784a.725.725,0,0,1-.392.126c-.182,0-.364,0-.616-.014a3.53,3.53,0,0,1,.364,1.414,5.985,5.985,0,0,0,.9-.028,2,2,0,0,0,.812-.294,2.055,2.055,0,0,0,.616-1.792,4.31,4.31,0,0,0-1.022-2.814c.392-1.092.854-2.618,1.218-3.808Zm6.874,5.362A9.929,9.929,0,0,1,17.3-3.052,10.228,10.228,0,0,1,15.89-5.964Zm.812-1.554-.28.056H14.91V-9.59h5.6v-1.5l-5.6-.014h-.938v.014h-.63v4.074c0,2.156-.126,5.152-1.652,7.2a5.409,5.409,0,0,1,1.26.994,11.625,11.625,0,0,0,1.862-5.852,12.009,12.009,0,0,0,1.484,2.9A6.939,6.939,0,0,1,13.832-.154,5.871,5.871,0,0,1,14.8,1.232,9.162,9.162,0,0,0,17.374-.5,8.458,8.458,0,0,0,19.936,1.2,6.632,6.632,0,0,1,21.014-.21a7.688,7.688,0,0,1-2.59-1.568,12.544,12.544,0,0,0,1.918-5.446ZM35.028-8.47v-1.624H29.47v-1.82H27.692v1.82H22.26V-8.47h5.446V-7h-4.13V-.462h1.68V-5.376h2.45V1.232h1.736V-5.376h2.674V-2.3c0,.154-.07.224-.294.224s-1.05,0-1.75-.028a5.975,5.975,0,0,1,.56,1.638,6.676,6.676,0,0,0,2.478-.28c.574-.252.742-.728.742-1.526V-7h-4.41V-8.47ZM42.2-9.786v1.792a37.575,37.575,0,0,0,6.02,0V-9.8A28.788,28.788,0,0,1,42.2-9.786Zm1.12,5.978-1.61-.154a8.553,8.553,0,0,0-.238,1.82c0,1.442,1.162,2.3,3.57,2.3A19.827,19.827,0,0,0,48.65-.112L48.622-2a16.549,16.549,0,0,1-3.514.364c-1.428,0-1.96-.378-1.96-.994A4.752,4.752,0,0,1,43.316-3.808ZM40.04-10.724l-1.96-.168c-.014.448-.1.98-.14,1.372a39.038,39.038,0,0,0-.588,5.544A17.9,17.9,0,0,0,37.9.6L39.522.49c-.014-.2-.028-.42-.028-.574a4.225,4.225,0,0,1,.07-.658c.154-.742.616-2.268,1.008-3.43L39.7-4.858c-.2.462-.42.952-.63,1.428a6.754,6.754,0,0,1-.056-.91,37.132,37.132,0,0,1,.672-5.138C39.746-9.73,39.928-10.43,40.04-10.724Z" transform="translate(1269 655)" fill="#004e64"/>
      <path id="パス_108827" data-name="パス 108827" d="M-29.966.375a9.762,9.762,0,0,1-3.854-.76,10.142,10.142,0,0,1-3.156-2.094,9.721,9.721,0,0,1-2.135-3.1,9.4,9.4,0,0,1-.771-3.792,9.4,9.4,0,0,1,.771-3.792,9.721,9.721,0,0,1,2.135-3.1,10.142,10.142,0,0,1,3.156-2.094,9.762,9.762,0,0,1,3.854-.76,9.762,9.762,0,0,1,3.854.76,10.142,10.142,0,0,1,3.156,2.094,9.721,9.721,0,0,1,2.135,3.1,9.4,9.4,0,0,1,.771,3.792,9.4,9.4,0,0,1-.771,3.792,9.721,9.721,0,0,1-2.135,3.1A10.142,10.142,0,0,1-26.112-.385,9.762,9.762,0,0,1-29.966.375Zm0-3.625a5.741,5.741,0,0,0,3.042-.823,6.118,6.118,0,0,0,2.156-2.219,6.078,6.078,0,0,0,.8-3.083,6.062,6.062,0,0,0-.8-3.094,6.143,6.143,0,0,0-2.156-2.208,5.741,5.741,0,0,0-3.042-.823,5.8,5.8,0,0,0-3.052.823,6.033,6.033,0,0,0-2.156,2.208,6.124,6.124,0,0,0-.792,3.094,6.141,6.141,0,0,0,.792,3.083,6.009,6.009,0,0,0,2.156,2.219A5.8,5.8,0,0,0-29.966-3.25ZM-16.264,0V-18.75H-10.6a8.446,8.446,0,0,1,3.323.583,6.016,6.016,0,0,1,2.2,1.531,6.157,6.157,0,0,1,1.219,2.062,6.7,6.7,0,0,1,.385,2.2A6.805,6.805,0,0,1-3.847-10.2,5.935,5.935,0,0,1-5.066-8.135,6.136,6.136,0,0,1-7.264-6.6a8.429,8.429,0,0,1-3.333.583h-2.042V0Zm3.625-9.271h1.833A4.1,4.1,0,0,0-8.691-9.74a2.807,2.807,0,0,0,1.125-1.177,3.3,3.3,0,0,0,.344-1.458,3.413,3.413,0,0,0-.333-1.448,2.783,2.783,0,0,0-1.115-1.2,4.071,4.071,0,0,0-2.135-.479h-1.833ZM-.187,0V-18.75h10v3.25H3.438v2.875H8.354V-9.5H3.438v6.125H9.813V0ZM28.347.625,17.1-10.6V0H13.6V-19.375L24.847-8.167V-18.75h3.5Zm6.285-7.5-.75-11.875h4.25l-.75,11.875ZM36.007.417a2.111,2.111,0,0,1-1.552-.635,2.111,2.111,0,0,1-.635-1.552,2.111,2.111,0,0,1,.635-1.552,2.111,2.111,0,0,1,1.552-.635,2.111,2.111,0,0,1,1.552.635,2.111,2.111,0,0,1,.635,1.552A2.111,2.111,0,0,1,37.56-.219,2.111,2.111,0,0,1,36.007.417Z" transform="translate(1268 713)" fill="#004e64"/>
      <path id="パス_108825" data-name="パス 108825" d="M-48.761.388a11.192,11.192,0,0,1-4.1-.743,10.167,10.167,0,0,1-3.337-2.1A9.643,9.643,0,0,1-58.427-5.64a9.924,9.924,0,0,1-.8-4,10,10,0,0,1,.8-4.015A9.731,9.731,0,0,1-56.2-16.867,10.428,10.428,0,0,1-52.884-19a10.748,10.748,0,0,1,4.08-.764,10.783,10.783,0,0,1,3.7.624,9.8,9.8,0,0,1,3.057,1.765l-1.1,4.435a7.015,7.015,0,0,0-2.25-2.25A6.2,6.2,0,0,0-48.8-16.1a6.384,6.384,0,0,0-3.272.84,6.087,6.087,0,0,0-2.271,2.3,6.61,6.61,0,0,0-.829,3.315A6.637,6.637,0,0,0-54.348-6.3a6.031,6.031,0,0,0,2.271,2.282,6.406,6.406,0,0,0,3.251.829,7.338,7.338,0,0,0,1.636-.172,4.931,4.931,0,0,0,1.356-.517V-7.621h-3.94V-10.85h7.47v9.408A11.4,11.4,0,0,1-45.285-.1,12.26,12.26,0,0,1-48.761.388Zm17.474.065a7.686,7.686,0,0,1-3.638-.84,6.211,6.211,0,0,1-2.508-2.4,7.259,7.259,0,0,1-.915-3.735V-19.375h4V-6.717a3.494,3.494,0,0,0,.872,2.5,2.952,2.952,0,0,0,2.25.926,3.014,3.014,0,0,0,2.239-.893,3.266,3.266,0,0,0,.883-2.4V-19.375h3.875V-6.588a7.493,7.493,0,0,1-.9,3.778A6.118,6.118,0,0,1-27.617-.388,7.716,7.716,0,0,1-31.288.452ZM-19.863,0V-19.375h5.92a7.261,7.261,0,0,1,3.606.84,5.907,5.907,0,0,1,2.293,2.228,6.015,6.015,0,0,1,.8,3.046A5.7,5.7,0,0,1-7.9-10.527,5.523,5.523,0,0,1-9.767-8.5L-4.643,0H-8.884L-13.19-7.362h-2.928V0Zm3.746-10.592h2.088a3.325,3.325,0,0,0,1.722-.4A2.573,2.573,0,0,0-11.317-12a2.674,2.674,0,0,0,.323-1.259,2.4,2.4,0,0,0-.84-1.884,3.191,3.191,0,0,0-2.2-.743h-2.088ZM3.875.452A7.686,7.686,0,0,1,.237-.388a6.211,6.211,0,0,1-2.508-2.4,7.259,7.259,0,0,1-.915-3.735V-19.375h4V-6.717a3.494,3.494,0,0,0,.872,2.5,2.952,2.952,0,0,0,2.25.926,3.014,3.014,0,0,0,2.239-.893,3.266,3.266,0,0,0,.883-2.4V-19.375h3.875V-6.588a7.493,7.493,0,0,1-.9,3.778A6.118,6.118,0,0,1,7.545-.388,7.716,7.716,0,0,1,3.875.452ZM20.208.431A8.647,8.647,0,0,1,16.86-.226a7.915,7.915,0,0,1-2.53-1.582l1.055-4.306a6.262,6.262,0,0,0,2.131,2.185,5.214,5.214,0,0,0,2.82.872A2.59,2.59,0,0,0,22.2-3.7a2.089,2.089,0,0,0,.678-1.572,2.088,2.088,0,0,0-.355-1.249,3.244,3.244,0,0,0-.84-.818,6.806,6.806,0,0,0-.85-.5L18.55-8.977a12.382,12.382,0,0,1-1.894-1.173,5.4,5.4,0,0,1-1.475-1.69,5.021,5.021,0,0,1-.57-2.5,5.421,5.421,0,0,1,.743-2.863,5.079,5.079,0,0,1,2.1-1.916,6.95,6.95,0,0,1,3.186-.689,8.064,8.064,0,0,1,3.068.549,10.03,10.03,0,0,1,2.185,1.173l-.99,4.2a6.826,6.826,0,0,0-2.056-1.8,4.786,4.786,0,0,0-2.379-.678,2.278,2.278,0,0,0-1.625.538,1.761,1.761,0,0,0-.57,1.335,1.719,1.719,0,0,0,.226.883,2.205,2.205,0,0,0,.657.689,8.975,8.975,0,0,0,1.012.6l2.3,1.141a12.193,12.193,0,0,1,1.27.721,7.492,7.492,0,0,1,1.335,1.109,5.369,5.369,0,0,1,1.055,1.6,5.539,5.539,0,0,1,.409,2.228,5.95,5.95,0,0,1-.775,3.025A5.624,5.624,0,0,1,23.577-.355,6.818,6.818,0,0,1,20.208.431ZM30.125,0V-19.375h5.856a8.727,8.727,0,0,1,3.434.6,6.217,6.217,0,0,1,2.271,1.582,6.362,6.362,0,0,1,1.259,2.131,6.92,6.92,0,0,1,.4,2.271,7.032,7.032,0,0,1-.387,2.25A6.133,6.133,0,0,1,41.7-8.407a6.341,6.341,0,0,1-2.271,1.582,8.71,8.71,0,0,1-3.444.6h-2.11V0Zm3.746-9.58h1.894a4.233,4.233,0,0,0,2.185-.484,2.9,2.9,0,0,0,1.162-1.216,3.414,3.414,0,0,0,.355-1.507,3.527,3.527,0,0,0-.344-1.5,2.876,2.876,0,0,0-1.152-1.238,4.207,4.207,0,0,0-2.207-.5H33.871ZM42.992,0l8.547-20.064h.043L60.128,0h-3.9L54.789-3.444H48.2L46.759,0Zm6.5-6.544h4l-.84-1.981q-.344-.8-.635-1.539a15.607,15.607,0,0,1-.549-1.733,15.647,15.647,0,0,1-.517,1.722q-.28.753-.624,1.55Z" transform="translate(1269 685)" fill="#004e64"/>
      <path id="パス_108826" data-name="パス 108826" d="M-11.48,1.99l.72-.32a9.337,9.337,0,0,1-1.26-4.8,9.389,9.389,0,0,1,1.26-4.8l-.72-.31a9.423,9.423,0,0,0-1.48,5.11A9.432,9.432,0,0,0-11.48,1.99ZM-1.32-4.72l-.17.06H-3.33l.19-.31c-.26-.13-.6-.28-.98-.45A15.66,15.66,0,0,0-1.65-7.38l-.68-.52-.2.05H-8.6v.86h5.16A10.49,10.49,0,0,1-5.06-5.81c-.59-.25-1.19-.48-1.69-.68l-.48.7c.78.31,1.77.75,2.58,1.13H-9.54v.89h4.02V-.31c0,.15-.05.19-.24.2S-6.65-.1-7.3-.13a4.526,4.526,0,0,1,.35.9A6.475,6.475,0,0,0-5.08.62c.4-.13.53-.39.53-.91V-3.77h2.49a9.864,9.864,0,0,1-.98,1.41l.78.47a13.828,13.828,0,0,0,1.7-2.5ZM1.84-6.43H8.33v1.42h.95v-2.3H5.58V-8.38H4.59v1.07H.93v2.3h.91ZM5.57-2.15H8.43v-.87H5.57V-4.49H7.93v-.89H2.3v.89H4.61V-.61A2.862,2.862,0,0,1,2.98-2.37a12.229,12.229,0,0,0,.24-1.31l-.96-.09A5.505,5.505,0,0,1,.44.2a5.03,5.03,0,0,1,.77.64A5.09,5.09,0,0,0,2.62-1.24C3.53.33,4.97.66,6.93.66H9.31a2.8,2.8,0,0,1,.35-.94c-.57.02-2.25.02-2.68.02A10.449,10.449,0,0,1,5.57-.35Zm5.91,4.14a9.355,9.355,0,0,0,1.49-5.12,9.346,9.346,0,0,0-1.49-5.11l-.72.31a9.389,9.389,0,0,1,1.26,4.8,9.337,9.337,0,0,1-1.26,4.8Z" transform="translate(1269 729)" fill="#004e64"/>
      <rect id="長方形_7868" data-name="長方形 7868" width="76" height="27" rx="3" transform="translate(1231 587)" fill="#004e64"/>
      <path id="パス_108830" data-name="パス 108830" d="M-14.262.458l-8.25-8.235V0h-2.567V-14.208l8.25,8.219V-13.75h2.567ZM-10.845,0V-13.75h7.333v2.383H-8.186v2.108h3.606v2.292H-8.186v4.492h4.675V0ZM3.542.489-2.111-13.75h2.9L3.114-7.883q.168.413.328.863T3.8-5.928q.2-.642.39-1.092t.359-.863l2.628-6.325L9.836-7.883q.168.413.367.863a10.3,10.3,0,0,1,.4,1.092q.2-.642.367-1.092l.321-.863L13.58-13.75h2.765L10.692.489,7.85-6.294q-.168-.412-.351-.871t-.382-1.1q-.2.642-.382,1.092l-.351.863ZM21.458.306A6.137,6.137,0,0,1,19.082-.16a5.617,5.617,0,0,1-1.8-1.123l.749-3.056a4.444,4.444,0,0,0,1.513,1.551,3.7,3.7,0,0,0,2,.619,1.838,1.838,0,0,0,1.322-.458,1.482,1.482,0,0,0,.481-1.115,1.482,1.482,0,0,0-.252-.886,2.3,2.3,0,0,0-.6-.581,4.83,4.83,0,0,0-.6-.351l-1.619-.81A8.787,8.787,0,0,1,18.937-7.2a3.833,3.833,0,0,1-1.047-1.2,3.563,3.563,0,0,1-.4-1.772,3.847,3.847,0,0,1,.527-2.032,3.6,3.6,0,0,1,1.49-1.36,4.932,4.932,0,0,1,2.261-.489,5.723,5.723,0,0,1,2.177.39,7.118,7.118,0,0,1,1.551.833l-.7,2.979a4.844,4.844,0,0,0-1.459-1.276,3.4,3.4,0,0,0-1.688-.481,1.617,1.617,0,0,0-1.153.382,1.25,1.25,0,0,0-.4.947,1.22,1.22,0,0,0,.16.626,1.565,1.565,0,0,0,.466.489,6.369,6.369,0,0,0,.718.428l1.635.81a8.653,8.653,0,0,1,.9.512,5.317,5.317,0,0,1,.947.787,3.811,3.811,0,0,1,.749,1.138,3.931,3.931,0,0,1,.29,1.581,4.222,4.222,0,0,1-.55,2.147A3.991,3.991,0,0,1,23.849-.252,4.839,4.839,0,0,1,21.458.306Z" transform="translate(1268 608)" fill="#f5e569"/>
    </g>
  </g>
</svg>
