<svg xmlns="http://www.w3.org/2000/svg" width="156" height="157" viewBox="0 0 156 157">
  <g id="グループ_24243" data-name="グループ 24243" transform="translate(-166 -570)">
    <ellipse id="楕円形_59" data-name="楕円形 59" cx="78" cy="78.5" rx="78" ry="78.5" transform="translate(166 570)" fill="#71360b"/>
    <path id="パス_108832" data-name="パス 108832" d="M-31.108-4.972v-.374h1.045c.528,0,.913.011,1.089.033V-6.479a7.31,7.31,0,0,1-1.1.066h-1.034V-7.689a7.172,7.172,0,0,1,.066-.957h-1.243a7.6,7.6,0,0,1,.055.957v1.276h-2.9V-7.678a5.929,5.929,0,0,1,.066-.88h-1.243a6.036,6.036,0,0,1,.066.88v1.265h-1.078A6.838,6.838,0,0,1-38.467-6.5v1.2c.176-.022.627-.044,1.144-.044h1.078V-3.7c0,.462-.044.913-.055,1.067h1.221A9.781,9.781,0,0,1-35.134-3.7v-1.65h2.9v.44c0,2.915-.968,3.861-3.025,4.62l.935.88C-31.746-.561-31.108-2.134-31.108-4.972Zm9.262-3.916h-1.331a4.99,4.99,0,0,1,.077.913v.946h-2.4a10.452,10.452,0,0,1-1.067-.055,8.188,8.188,0,0,1,.044.891v1.925c0,.242-.022.561-.044.792h1.2A5.049,5.049,0,0,1-25.41-4.2v-1.8h5.852A7.632,7.632,0,0,1-20.57-2.97,5.656,5.656,0,0,1-23.342-.9a6.906,6.906,0,0,1-1.32.363l.9,1.045a7.012,7.012,0,0,0,4.411-3.2,10.232,10.232,0,0,0,1.056-3.223,4.135,4.135,0,0,1,.187-.748l-.759-.473a2.415,2.415,0,0,1-.825.11h-2.222v-.946A7.868,7.868,0,0,1-21.846-8.888Zm10.329,1.474v1.353h-3.069A9.719,9.719,0,0,1-15.7-6.127v1.21a10.763,10.763,0,0,1,1.133-.044h3.047A4.825,4.825,0,0,1-14.5-.3l1.078.8a5.862,5.862,0,0,0,3.091-5.467h2.717c.385,0,.869.011,1.067.033V-6.116A8.078,8.078,0,0,1-7.6-6.061h-2.728V-7.414A10.106,10.106,0,0,1-10.252-8.6h-1.386A5.715,5.715,0,0,1-11.517-7.414ZM-4.664-4.1l.539,1.089a22.506,22.506,0,0,0,4.059-1.7V-.891A12.747,12.747,0,0,1-.132.407H1.232a8.272,8.272,0,0,1-.077-1.3V-5.456A18.556,18.556,0,0,0,4.114-7.865l-.924-.88A13.578,13.578,0,0,1,.132-6.127,18.164,18.164,0,0,1-4.664-4.1Zm11.451-.8v1.364C7.161-3.575,7.821-3.6,8.426-3.6H14.41c.484,0,.99.044,1.232.055V-4.906c-.275.022-.7.066-1.232.066H8.426C7.832-4.84,7.15-4.884,6.787-4.906ZM25.421-8.888l-.7.3a13.13,13.13,0,0,1,.869,1.518l.726-.308A15.94,15.94,0,0,0,25.421-8.888Zm1.243-.473-.7.3a11.04,11.04,0,0,1,.9,1.518l.715-.319A13,13,0,0,0,26.664-9.361ZM22.627-8.294l-1.276-.418a5.154,5.154,0,0,1-.407.99A9.408,9.408,0,0,1,17.49-4.081l.968.715A11.4,11.4,0,0,0,21.241-6.05h3.443A8.26,8.26,0,0,1,23.012-2.8,8.8,8.8,0,0,1,18.6-.066l1.023.924a10,10,0,0,0,4.4-3.047,10.887,10.887,0,0,0,1.936-3.74,3.765,3.765,0,0,1,.308-.671l-.9-.55a2.937,2.937,0,0,1-.825.11H21.89c.066-.1.11-.187.165-.286C22.176-7.546,22.407-7.964,22.627-8.294Zm11.2,8.052.726.605a3.419,3.419,0,0,1,.418-.275A11.574,11.574,0,0,0,38.72-2.948l-.671-.946a7.738,7.738,0,0,1-2.992,2.53V-7.447a6.625,6.625,0,0,1,.055-.88H33.836a8.062,8.062,0,0,1,.066.88V-.935A3.173,3.173,0,0,1,33.825-.242Zm-5.071-.1,1.056.7a6.18,6.18,0,0,0,1.958-3.08,24.1,24.1,0,0,0,.341-4.7,8.233,8.233,0,0,1,.055-.88H30.888a3.428,3.428,0,0,1,.088.891,19.073,19.073,0,0,1-.319,4.389A5.092,5.092,0,0,1,28.754-.341Z" transform="translate(244 604)" fill="#f4f1ef"/>
    <path id="パス_108833" data-name="パス 108833" d="M-34.692-10.836a29.113,29.113,0,0,0,3.948,5.544,8.618,8.618,0,0,1,1.4-1.456,18.818,18.818,0,0,1-3.682-4.774Zm-3.934-.714a11.972,11.972,0,0,1-3.486,5,10.824,10.824,0,0,1,1.6,1.246A17.044,17.044,0,0,0-36.722-11ZM-34.454-3.7c.518.686,1.078,1.484,1.582,2.268-1.624.084-3.262.168-4.774.238A52.5,52.5,0,0,0-35.154-6.3l-2-.462A34.239,34.239,0,0,1-39.55-1.106l-1.946.07.224,1.75C-38.808.6-35.28.392-31.92.168a9.521,9.521,0,0,1,.574,1.12l1.736-.91a32.107,32.107,0,0,0-3.22-4.83Zm11.046-.952h2.24v-1.61h-6.006v1.61h2.114v3.374c-1.008.168-1.932.308-2.646.42l.462,1.68c1.806-.392,4.27-.9,6.566-1.4L-20.8-2.058c-.854.168-1.75.336-2.6.49Zm8.218-3.206V-9.478h-1.316l.952-.826a10.457,10.457,0,0,0-1.834-1.554l-1.106.91a9.911,9.911,0,0,1,1.638,1.47h-2.212c-.028-.756-.028-1.54-.014-2.31h-1.792c0,.77.014,1.554.042,2.31h-6.874v1.624h6.958c.336,4.928,1.386,9.072,3.78,9.072,1.33,0,1.89-.644,2.142-3.29a4.683,4.683,0,0,1-1.456-.98c-.07,1.778-.238,2.52-.532,2.52-1.022,0-1.876-3.234-2.17-7.322ZM-3.682-6.188V-6.65h1.036c.742,0,1.232.014,1.54.042V-8.47a8.3,8.3,0,0,1-1.54.1H-3.682v-1.47a8.82,8.82,0,0,1,.1-1.3h-2a9.239,9.239,0,0,1,.084,1.3v1.47H-8.82V-9.758a8.556,8.556,0,0,1,.084-1.26h-1.988c.042.42.084.854.084,1.26v1.386h-1.19A9.094,9.094,0,0,1-13.342-8.5v1.9c.308-.028.812-.056,1.512-.056h1.19v1.9a11.322,11.322,0,0,1-.084,1.47h1.96c-.014-.28-.056-.854-.056-1.47v-1.9H-5.5v.532c0,3.444-1.19,4.648-3.892,5.586L-7.9.882C-4.522-.6-3.682-2.716-3.682-6.188Zm4.7.742L1.9-3.682A28.053,28.053,0,0,0,6.846-5.7v4.48a15.679,15.679,0,0,1-.1,1.834H8.96a9.625,9.625,0,0,1-.126-1.834V-6.874A25.679,25.679,0,0,0,12.6-9.912l-1.512-1.442a17.948,17.948,0,0,1-3.948,3.4A22.512,22.512,0,0,1,1.022-5.446Zm17.836,4.1a15.377,15.377,0,0,1-.14,1.96H20.9c-.056-.574-.126-1.554-.126-1.96V-5.306A40.437,40.437,0,0,1,25.83-3.22l.8-1.932a45.725,45.725,0,0,0-5.852-2.17V-9.394a15.221,15.221,0,0,1,.126-1.68H18.718a9.718,9.718,0,0,1,.14,1.68ZM35.406-1.82c0-.532.532-.868,1.33-.868a4.322,4.322,0,0,1,1.12.154v.252c0,.826-.294,1.274-1.148,1.274C35.966-1.008,35.406-1.246,35.406-1.82Zm4.158-9.142h-2a5.945,5.945,0,0,1,.1.924c0,.294.014.868.014,1.554-.322.014-.658.014-.98.014a23.327,23.327,0,0,1-2.45-.126V-6.93c.826.056,1.624.084,2.45.084.322,0,.658,0,.994-.014.014.994.07,2.016.1,2.884a6.228,6.228,0,0,0-.91-.056c-1.9,0-3.108.98-3.108,2.394,0,1.47,1.2,2.282,3.136,2.282,1.89,0,2.646-.952,2.73-2.3A14.685,14.685,0,0,1,41.342-.238l.966-1.47a9.163,9.163,0,0,0-2.716-1.806c-.056-.952-.126-2.072-.154-3.43.77-.056,1.5-.14,2.17-.238v-1.75a19.182,19.182,0,0,1-2.17.322c.014-.616.028-1.134.042-1.442A8.766,8.766,0,0,1,39.564-10.962Zm-6.832.154L30.8-10.976A13.355,13.355,0,0,1,30.66-9.6a44.337,44.337,0,0,0-.574,5.838,16.444,16.444,0,0,0,.56,4.48L32.228.588C32.214.392,32.2.154,32.2.014a3.907,3.907,0,0,1,.07-.658c.168-.756.616-2.184,1.008-3.332l-.854-.7c-.21.476-.448.952-.63,1.442a6.617,6.617,0,0,1-.056-.91,37.372,37.372,0,0,1,.672-5.418A9.09,9.09,0,0,1,32.732-10.808Zm-56.4,19.63V10.67c1.134.1,2.352.154,3.822.154,1.33,0,3.066-.084,4.046-.168V8.794c-1.078.112-2.674.2-4.06.2A36.726,36.726,0,0,1-23.667,8.822Zm1.176,5.936-1.834-.168a9.057,9.057,0,0,0-.28,2.016c0,1.918,1.61,3,4.816,3a21.573,21.573,0,0,0,4.858-.476l-.014-1.974a19.223,19.223,0,0,1-4.914.56c-2.016,0-2.87-.644-2.87-1.54A5.159,5.159,0,0,1-22.491,14.758ZM-6.069,7.842l-1.988-.084a6.349,6.349,0,0,1-.07,1.414c-.028.168-.056.364-.084.574a20.009,20.009,0,0,1-2.744-.266v1.736c.714.07,1.54.112,2.422.126a22.4,22.4,0,0,1-1.6,4.7l1.652.588a5.174,5.174,0,0,1,.392-.616A4.844,4.844,0,0,1-4.207,14.38c1.372,0,2.086.7,2.086,1.54,0,2.058-3.094,2.436-6.16,1.932l.49,1.806c4.522.49,7.56-.644,7.56-3.794,0-1.792-1.5-3-3.766-3a6.822,6.822,0,0,0-3.472.882c.21-.686.434-1.582.63-2.436,1.876-.1,4.1-.364,5.558-.6l-.028-1.666a34.279,34.279,0,0,1-5.18.658c.028-.154.056-.308.084-.434C-6.307,8.808-6.223,8.332-6.069,7.842ZM6.573,7.73,6.125,9.41c1.092.28,4.214.938,5.628,1.12l.42-1.708A42.851,42.851,0,0,1,6.573,7.73Zm.084,2.814-1.876-.266a51.649,51.649,0,0,1-.7,5.852l1.61.406a3.392,3.392,0,0,1,.518-.812A4.984,4.984,0,0,1,10.1,14.072c1.218,0,2.086.672,2.086,1.582,0,1.778-2.226,2.8-6.426,2.226l.532,1.834c5.824.49,7.84-1.47,7.84-4.018,0-1.694-1.428-3.206-3.878-3.206a6.853,6.853,0,0,0-4.13,1.33C6.223,13.022,6.475,11.314,6.657,10.544ZM22.491,15.4h1.428l.378-4.788.07-2.086H22.043l.07,2.086Zm.714,3.724a1.239,1.239,0,1,0-1.232-1.232A1.191,1.191,0,0,0,23.2,19.126Z" transform="translate(244 683)" fill="#f4f1ef"/>
    <path id="パス_108831" data-name="パス 108831" d="M-30.3-17.516h-9.86v4.988h6.641l2.465,2.494v7.511L-33.524,0h-7.018l-2.494-2.523v-2l2.871-2.755v4.756h6.235v-7.511h-6.612l-2.494-2.494v-4.988l2.494-2.523h7.714ZM-13.688,0H-16.53V-7.511h-6.815V0h-2.871V-17.516l2.523-2.523h10.005Zm-1.044-17.516h-8.613v9.657l2.175-2.175h4.64v-5.684ZM4.379,0H1.537V-2.146L-.609,0H-5.626L-8.149-2.523V-20.039h2.871V-2.523H1.537V-20.039H4.379ZM24.07-.029H18.531L13.659-17.487H11.194l1.8,1.711V-.029H10.121V-20.068h5.568L20.5-2.552H23L21.2-4.379V-20.068H24.07ZM42.137,0H39.295V-7.511H32.48V0H29.609V-17.516l2.523-2.523H42.137ZM41.093-17.516H32.48v9.657l2.175-2.175h4.64v-5.684ZM-29.609,27H-39.614V11.949l2.523-2.465h-2.871V6.961h10.353V9.484h-7.134v7.134l2.117-2.146h5.017v2.494h-7.134v7.511h7.134Zm16.617,0h-2.842V19.489h-6.815V27H-25.52V9.484L-23,6.961h10.005ZM-14.036,9.484h-8.613v9.657l2.175-2.175h4.64V11.282Zm19.662,0H-4.727V24.477H2.059V16.966H-2.61l2.523-2.494H4.93V27H2.059V24.854L-.087,27H-5.1L-7.6,24.477V9.484L-5.1,6.961H3.1ZM22.3,27H10.121V6.961h2.871V24.477H19.43V21.983L22.3,19.141Zm13.746,0h-10V11.949l2.523-2.465H25.694V6.961H36.047V9.484H28.913v7.134l2.117-2.146h5.017v2.494H28.913v7.511h7.134Z" transform="translate(244 634)" fill="#f4f1ef"/>
    <path id="Icon_ion-arrow-forward" data-name="Icon ion-arrow-forward" d="M8.777,7.875l4.4,4.4-4.4,4.4m3.791-4.4H1.031" transform="translate(263.221 684.352)" fill="none" stroke="#71360b" stroke-linecap="round" stroke-linejoin="round" stroke-width="2"/>
  </g>
</svg>
