<svg xmlns="http://www.w3.org/2000/svg" width="208" height="657" viewBox="0 0 208 657">
  <g id="グループ_24123" data-name="グループ 24123" transform="translate(-579 -63.255)">
    <g id="グループ_23875" data-name="グループ 23875" transform="translate(578.591 63.877)">
      <path id="前面オブジェクトで型抜き_1" data-name="前面オブジェクトで型抜き 1" d="M0,209H0V0A104.278,104.278,0,0,1,20.96,2.123,102.978,102.978,0,0,1,40.483,8.211a103.669,103.669,0,0,1,17.664,9.636A104.787,104.787,0,0,1,73.539,30.605a105.012,105.012,0,0,1,12.7,15.465,104.6,104.6,0,0,1,9.59,17.753,104.312,104.312,0,0,1,6.061,19.616A105.854,105.854,0,0,1,104,104.5a105.854,105.854,0,0,1-2.113,21.059,104.312,104.312,0,0,1-6.061,19.616,104.423,104.423,0,0,1-9.59,17.751,104.923,104.923,0,0,1-12.7,15.467,104.74,104.74,0,0,1-15.393,12.76,103.669,103.669,0,0,1-17.664,9.636,103.226,103.226,0,0,1-19.522,6.088A104.157,104.157,0,0,1,0,209Z" transform="translate(104.409 0.377)" fill="#004e64"/>
      <path id="前面オブジェクトで型抜き_2" data-name="前面オブジェクトで型抜き 2" d="M0,209V0A104.284,104.284,0,0,1,20.96,2.123,103.116,103.116,0,0,1,40.482,8.212a103.853,103.853,0,0,1,17.666,9.635,104.857,104.857,0,0,1,15.392,12.76,105.14,105.14,0,0,1,12.7,15.466,104.667,104.667,0,0,1,9.589,17.751,104.336,104.336,0,0,1,6.06,19.616A105.76,105.76,0,0,1,104,104.5a105.761,105.761,0,0,1-2.113,21.06,104.339,104.339,0,0,1-6.06,19.616,104.669,104.669,0,0,1-9.589,17.751,105.143,105.143,0,0,1-12.7,15.466,104.854,104.854,0,0,1-15.392,12.76,103.85,103.85,0,0,1-17.666,9.635,103.108,103.108,0,0,1-19.522,6.089A104.282,104.282,0,0,1,0,209Z" transform="translate(104.409 208.377) rotate(180)" fill="#71360b"/>
      <text id="温_泉" data-name="温
泉" transform="translate(145.409 98.377)" fill="#fdfcfc" font-size="42" font-family="NotoSansJP-Black, Noto Sans JP" font-weight="800" letter-spacing="0.08em"><tspan x="-21" y="0">温</tspan><tspan x="-21" y="51">泉</tspan></text>
      <text id="_" data-name="&amp;" transform="translate(103.409 119.377)" fill="none" stroke="#fff" stroke-width="1" font-size="42" font-family="Afacad-Bold, Afacad" font-weight="700" letter-spacing="0.08em"><tspan x="-11.667" y="0">&amp;</tspan></text>
      <text id="サ_ウ_ナ" data-name="サ
ウ
ナ" transform="translate(59.409 79.377)" fill="#fdfcfc" font-size="41" font-family="NotoSansJP-Black, Noto Sans JP" font-weight="800" letter-spacing="0.08em"><tspan x="-20.5" y="0">サ</tspan><tspan x="-20.5" y="43">ウ</tspan><tspan x="-20.5" y="86">ナ</tspan></text>
    </g>
    <text id="が_好_き_な_ら_そ_れ_で_ヨ_シ_" data-name="が
好
き
な
ら
そ
れ
で
ヨ
シ
！" transform="translate(682.5 278.255)" fill="#fdfcfc" font-size="41" font-family="NotoSansJP-Black, Noto Sans JP" font-weight="800" letter-spacing="0.08em"><tspan x="-20.5" y="0">が</tspan><tspan x="-20.5" y="43">好</tspan><tspan x="-20.5" y="86">き</tspan><tspan x="-20.5" y="129">な</tspan><tspan x="-20.5" y="172">ら</tspan><tspan x="-20.5" y="215">そ</tspan><tspan x="-20.5" y="258">れ</tspan><tspan x="-20.5" y="301">で</tspan><tspan x="-20.5" y="344">ヨ</tspan><tspan x="-20.5" y="387">シ</tspan><tspan x="-20.5" y="430">！</tspan></text>
  </g>
</svg>
