<svg xmlns="http://www.w3.org/2000/svg" width="234.498" height="38.266" viewBox="0 0 234.498 38.266">
  <path id="パス_755" data-name="パス 755" d="M7.144,0,3.876-26.6h7.41L14.06-3.572H10.146L22.306-26.6H29.26L31.806-3.572H28.12L40.2-26.6h7.448L33.706,0H25.65L23.294-19.57h2.28L15.238,0ZM56.7.342A13.342,13.342,0,0,1,50.939-.817,9.034,9.034,0,0,1,47.12-4.085a8.909,8.909,0,0,1-1.368-4.959,11.907,11.907,0,0,1,1.558-6.1,11.25,11.25,0,0,1,4.37-4.237,13.267,13.267,0,0,1,6.536-1.558,11.906,11.906,0,0,1,5.415,1.14,8.417,8.417,0,0,1,3.5,3.173,8.931,8.931,0,0,1,1.235,4.731,12.935,12.935,0,0,1-.114,1.748q-.114.836-.3,1.634H51.414l.684-3.8H64.6l-3,1.1a4.362,4.362,0,0,0-.1-2.489,3.082,3.082,0,0,0-1.33-1.558,4.445,4.445,0,0,0-2.3-.551A4.528,4.528,0,0,0,55-14.934a5.2,5.2,0,0,0-1.672,2.375,9.357,9.357,0,0,0-.551,3.249A3.9,3.9,0,0,0,53.96-6.175a5.323,5.323,0,0,0,3.534,1.007A8.419,8.419,0,0,0,60.173-5.6a7.287,7.287,0,0,0,2.3-1.235l3,4.522a12.342,12.342,0,0,1-4.2,2.052A17.559,17.559,0,0,1,56.7.342ZM71.212,0l5.624-28.2h7.22L78.432,0ZM85.006,0,90.63-28.2h7.22L92.226,0ZM99.94-8.056l1.1-5.548H112.1L111-8.056ZM115.444,0l5.624-28.2h7.22l-2.2,11.1-1.748,6.726-1.1,5.738L122.322,0Zm14.022.342a9.347,9.347,0,0,1-3.914-.779,5.705,5.705,0,0,1-2.66-2.47,8.91,8.91,0,0,1-.95-4.389,20.278,20.278,0,0,1,.646-5.187,14.294,14.294,0,0,1,1.919-4.351,9.7,9.7,0,0,1,3.135-3,8.27,8.27,0,0,1,4.294-1.1,8.632,8.632,0,0,1,4.237,1.1,8.527,8.527,0,0,1,3.23,3.173,9.743,9.743,0,0,1,1.235,5.073,12.58,12.58,0,0,1-.874,4.75,11.843,11.843,0,0,1-2.413,3.781A11.056,11.056,0,0,1,133.8-.551,10.566,10.566,0,0,1,129.466.342ZM128.44-5.472a4.54,4.54,0,0,0,2.546-.722,4.9,4.9,0,0,0,1.729-2.014,6.8,6.8,0,0,0,.627-3,4,4,0,0,0-1.026-2.869,3.787,3.787,0,0,0-2.888-1.083,4.48,4.48,0,0,0-2.527.741,4.988,4.988,0,0,0-1.748,2.033,6.8,6.8,0,0,0-.627,3,3.932,3.932,0,0,0,1.026,2.85A3.824,3.824,0,0,0,128.44-5.472ZM155.382.342a13.342,13.342,0,0,1-5.757-1.159,9.034,9.034,0,0,1-3.819-3.268,8.909,8.909,0,0,1-1.368-4.959,11.907,11.907,0,0,1,1.558-6.1,11.25,11.25,0,0,1,4.37-4.237,13.267,13.267,0,0,1,6.536-1.558,11.906,11.906,0,0,1,5.415,1.14,8.417,8.417,0,0,1,3.5,3.173,8.931,8.931,0,0,1,1.235,4.731,12.934,12.934,0,0,1-.114,1.748q-.114.836-.3,1.634H150.1l.684-3.8h12.5l-3,1.1a4.361,4.361,0,0,0-.1-2.489,3.082,3.082,0,0,0-1.33-1.558,4.445,4.445,0,0,0-2.3-.551,4.528,4.528,0,0,0-2.869.874,5.2,5.2,0,0,0-1.672,2.375,9.357,9.357,0,0,0-.551,3.249,3.9,3.9,0,0,0,1.178,3.135,5.323,5.323,0,0,0,3.534,1.007,8.419,8.419,0,0,0,2.679-.437,7.287,7.287,0,0,0,2.3-1.235l3,4.522a12.342,12.342,0,0,1-4.2,2.052A17.559,17.559,0,0,1,155.382.342ZM169.9,0,174-20.6h7.182L177.08,0Zm8.7-22.876a4.254,4.254,0,0,1-3.021-1.045,3.329,3.329,0,0,1-1.121-2.527,3.825,3.825,0,0,1,1.273-2.926,4.755,4.755,0,0,1,3.363-1.178,4.479,4.479,0,0,1,3.04.988,3.134,3.134,0,0,1,1.14,2.47,3.926,3.926,0,0,1-1.292,3.04A4.825,4.825,0,0,1,178.6-22.876Zm22.04,1.938a8.565,8.565,0,0,1,4.446,1.083,6,6,0,0,1,2.6,3.192,9.648,9.648,0,0,1,.133,5.263L205.542,0h-7.22l2.128-10.716a4.109,4.109,0,0,0-.247-3.04,2.66,2.66,0,0,0-2.451-1.064,4.408,4.408,0,0,0-3.078,1.14,6.342,6.342,0,0,0-1.748,3.5L190.874,0h-7.22l4.1-20.6h6.84L193.42-14.82l-.912-1.672a9.063,9.063,0,0,1,3.667-3.382A10.1,10.1,0,0,1,200.64-20.938ZM221.426,7.714a22.239,22.239,0,0,1-5.624-.665,13.278,13.278,0,0,1-4.408-1.995l3.23-5.016a9.7,9.7,0,0,0,3.1,1.539,12.958,12.958,0,0,0,3.9.589,6.059,6.059,0,0,0,4.142-1.2,6.1,6.1,0,0,0,1.786-3.439l.646-3.192,1.444-5.358,1.14-5.814L231.5-20.6h6.878L235.03-3.8q-1.216,6.118-4.693,8.816A14.111,14.111,0,0,1,221.426,7.714Zm.532-8.778a9.737,9.737,0,0,1-4.484-1.045,8.245,8.245,0,0,1-3.287-3,8.686,8.686,0,0,1-1.235-4.731,10.97,10.97,0,0,1,.855-4.332,10.908,10.908,0,0,1,2.394-3.534,11.168,11.168,0,0,1,3.591-2.375,11.444,11.444,0,0,1,4.446-.855,9.012,9.012,0,0,1,4.047.874,5.619,5.619,0,0,1,2.66,2.888,10.358,10.358,0,0,1,.437,5.472,16.4,16.4,0,0,1-1.615,5.757,9.2,9.2,0,0,1-3.211,3.629A8.4,8.4,0,0,1,221.958-1.064Zm2.128-5.776a5.076,5.076,0,0,0,2.527-.608,4.4,4.4,0,0,0,1.71-1.729,5.243,5.243,0,0,0,.627-2.6,3.181,3.181,0,0,0-1.007-2.451,4.015,4.015,0,0,0-2.831-.931,5.058,5.058,0,0,0-2.546.627,4.5,4.5,0,0,0-1.729,1.748,5.244,5.244,0,0,0-.627,2.6,3.067,3.067,0,0,0,1.045,2.432A4.156,4.156,0,0,0,224.086-6.84Z" transform="translate(-3.876 30.552)" fill="#3c3636"/>
</svg>
