<svg xmlns="http://www.w3.org/2000/svg" width="132.655" height="133.477" viewBox="0 0 132.655 133.477">
  <g id="グループ_23673" data-name="グループ 23673" transform="translate(-191 -2515)">
    <g id="グループ_23422" data-name="グループ 23422" transform="translate(191 2515)">
      <ellipse id="楕円形_183" data-name="楕円形 183" cx="58.437" cy="58.438" rx="58.437" ry="58.438" transform="translate(15.78 0)" fill="#f4ba1d"/>
      <path id="パス_1575" data-name="パス 1575" d="M0,1.9,9.048,0l.031,12.347-7.554.826Z" transform="translate(56.459 133.476) rotate(-160)" fill="#f4ba1d"/>
      <path id="パス_1574" data-name="パス 1574" d="M0,.291,9.911,0l.031,12.347-7.554.826Z" transform="matrix(-0.848, -0.53, 0.53, -0.848, 37.333, 126.191)" fill="#f4ba1d"/>
      <path id="パス_1573" data-name="パス 1573" d="M0,0,8.6,3.118,6.72,13.057.327,11.423Z" transform="matrix(-0.848, -0.53, 0.53, -0.848, 20.667, 112.437)" fill="#f4ba1d"/>
      <path id="パス_1572" data-name="パス 1572" d="M1.359,0l6.2,4.68L4.292,11.185,0,9Z" transform="matrix(-0.848, -0.53, 0.53, -0.848, 10.6, 94.893)" fill="#f4ba1d"/>
      <path id="パス_1571" data-name="パス 1571" d="M3.1,0,6.925,5.2,4.212,10.015,0,5.911Z" transform="matrix(-0.848, -0.53, 0.53, -0.848, 5.873, 76.311)" fill="#f4ba1d"/>
      <path id="パス_1576" data-name="パス 1576" d="M1.07,0l9.091.533L6.375,10.849,0,10.179Z" transform="matrix(-0.995, 0.105, -0.105, -0.995, 78.757, 131.773)" fill="#f4ba1d"/>
    </g>
    <path id="パス_108406" data-name="パス 108406" d="M10.8-9.9l2.525-1.825q.8.725,1.712,1.575T16.85-8.425q.9.875,1.688,1.725T19.85-5.175L17.1-3.025a18.066,18.066,0,0,0-1.212-1.562q-.738-.862-1.6-1.787T12.525-8.212Q11.625-9.125,10.8-9.9Zm.025-11.4h3.4V-15a21.656,21.656,0,0,1-.163,2.613A14.94,14.94,0,0,1,13.475-9.7,12.971,12.971,0,0,1,12.3-7.062,12.353,12.353,0,0,1,10.387-4.6,14.828,14.828,0,0,1,7.6-2.425a5.355,5.355,0,0,0-.65-.837q-.425-.463-.887-.925A8.22,8.22,0,0,0,5.2-4.95,11,11,0,0,0,7.775-6.675,8.648,8.648,0,0,0,9.413-8.687a9.2,9.2,0,0,0,.912-2.15,12.473,12.473,0,0,0,.4-2.15q.1-1.062.1-2.038ZM2.15-17.175H21.1v3.25H5.475V2.35H2.15Zm17.5,0h3.3v15.8A5.259,5.259,0,0,1,22.638.65,2.234,2.234,0,0,1,21.5,1.775a5.589,5.589,0,0,1-2.038.487q-1.212.088-2.888.088a6.218,6.218,0,0,0-.225-1.075q-.175-.6-.4-1.187A9.267,9.267,0,0,0,15.5-.925l1.413.05q.738.025,1.312.025h.8a.8.8,0,0,0,.5-.15.632.632,0,0,0,.125-.45ZM32.35-20.4H47.2v3.075H32.35Zm-1.625,0h3.15v8.925q0,1.575-.112,3.425a33.818,33.818,0,0,1-.437,3.725,21.5,21.5,0,0,1-.95,3.612A11.921,11.921,0,0,1,30.725,2.4a5.917,5.917,0,0,0-.775-.625q-.5-.35-1.025-.675A7.576,7.576,0,0,0,28,.6a10.024,10.024,0,0,0,1.5-2.738,17.219,17.219,0,0,0,.813-3.125,28.2,28.2,0,0,0,.337-3.212q.075-1.6.075-3Zm15.125,0h3.275q-.05,2.5-.062,4.887t-.013,4.525q0,2.138.063,3.913t.175,3.062A12.959,12.959,0,0,0,49.588-2q.188.725.463.725.15,0,.262-1t.137-2.45q.4.7.9,1.437A9.576,9.576,0,0,0,52.275-2.1,14.4,14.4,0,0,1,51.838.375,3.233,3.233,0,0,1,51.05,1.85a1.879,1.879,0,0,1-1.35.475,2.282,2.282,0,0,1-1.987-1.2,9.582,9.582,0,0,1-1.162-3.35A38.837,38.837,0,0,1,46-7.238q-.15-2.863-.15-6.212ZM38.3-14.2h2.875V-1.275H38.3ZM37.075-9.8v2.425h5.4V-9.8ZM34.55-12.3H45.125v7.425H34.55Zm9.05-4.8,2.15,2.375a32.816,32.816,0,0,1-3.425.675q-1.875.275-3.812.412t-3.737.212a5.56,5.56,0,0,0-.3-1.25,12.014,12.014,0,0,0-.475-1.2q1.275-.075,2.6-.187t2.588-.263q1.263-.15,2.4-.35T43.6-17.1ZM33.55-2.275l3.213-.175q1.812-.1,3.825-.225l4.012-.25v2.7q-1.9.175-3.825.337L37.05.425q-1.8.15-3.3.25Zm8.425-1.95,2.5-.75a16.87,16.87,0,0,1,.938,1.862q.438,1.012.763,1.975A13.553,13.553,0,0,1,46.65.6l-2.7.875a14.02,14.02,0,0,0-.425-1.738q-.3-.988-.7-2.012T41.975-4.225Zm16.1-4.1h19.05V2.3H73.55V-5.2H61.5V2.3H58.075ZM62.85-17.1v3.375h9.2V-17.1Zm-3.275-3.05H75.55v9.475H59.575Zm.175,18.5H75.525V1.475H59.75Zm6.025-10.675,3.75.8q-.45,1.425-.875,2.837t-.8,2.438L64.9-7q.2-.775.375-1.7t.313-1.863Q65.725-11.5,65.775-12.325Z" transform="translate(225 2584.416)" fill="#3c3636"/>
  </g>
</svg>
