<svg xmlns="http://www.w3.org/2000/svg" width="132.655" height="133.477" viewBox="0 0 132.655 133.477">
  <g id="グループ_23428" data-name="グループ 23428" transform="translate(-191 -5370.585)">
    <g id="グループ_23422" data-name="グループ 23422" transform="translate(191 5370.585)">
      <ellipse id="楕円形_183" data-name="楕円形 183" cx="58.437" cy="58.438" rx="58.437" ry="58.438" transform="translate(15.78 0)" fill="#f4ba1d"/>
      <path id="パス_1575" data-name="パス 1575" d="M0,1.9,9.048,0l.031,12.347-7.554.826Z" transform="translate(56.459 133.476) rotate(-160)" fill="#f4ba1d"/>
      <path id="パス_1574" data-name="パス 1574" d="M0,.291,9.911,0l.031,12.347-7.554.826Z" transform="matrix(-0.848, -0.53, 0.53, -0.848, 37.333, 126.191)" fill="#f4ba1d"/>
      <path id="パス_1573" data-name="パス 1573" d="M0,0,8.6,3.118,6.72,13.057.327,11.423Z" transform="matrix(-0.848, -0.53, 0.53, -0.848, 20.667, 112.437)" fill="#f4ba1d"/>
      <path id="パス_1572" data-name="パス 1572" d="M1.359,0l6.2,4.68L4.292,11.185,0,9Z" transform="matrix(-0.848, -0.53, 0.53, -0.848, 10.6, 94.893)" fill="#f4ba1d"/>
      <path id="パス_1571" data-name="パス 1571" d="M3.1,0,6.925,5.2,4.212,10.015,0,5.911Z" transform="matrix(-0.848, -0.53, 0.53, -0.848, 5.873, 76.311)" fill="#f4ba1d"/>
      <path id="パス_1576" data-name="パス 1576" d="M1.07,0l9.091.533L6.375,10.849,0,10.179Z" transform="matrix(-0.995, 0.105, -0.105, -0.995, 78.757, 131.773)" fill="#f4ba1d"/>
    </g>
    <path id="パス_108408" data-name="パス 108408" d="M3.225-20.5H21.75v2.275H3.225ZM5.175-15H10v1.55H5.175Zm-.7,2.175H10v1.55H4.475Zm10.375,0H20.4v1.55H14.85Zm-.5,12.7h6.575V1.85H14.35ZM7.15-4.5h3.975v2.175H7.15ZM14.875-15H19.7v1.55H14.875ZM10.8-19.5h3.25v8.475H10.8ZM1.375-17.575h22.3v4.625H20.6v-2.625H4.3v2.625H1.375ZM5.15-8.6v1.1H8.3V-8.6Zm-2.6-1.975h8.525V-5.5H2.55Zm10.85,7.3H22V2.25H19.125V-1.375h-2.95V2.3H13.4Zm1.775-5.85a8.092,8.092,0,0,0,2.25,1.988A14.222,14.222,0,0,0,20.675-5.7a23.574,23.574,0,0,0,3.975.85,5.882,5.882,0,0,0-.9,1.063A11.935,11.935,0,0,0,23-2.575a19.224,19.224,0,0,1-4.112-1.2A14.6,14.6,0,0,1,15.513-5.75,10.585,10.585,0,0,1,13.05-8.5Zm.1-2.25,2.425.4a14.085,14.085,0,0,1-2.113,2.688A13.768,13.768,0,0,1,12.5-6.025a7.89,7.89,0,0,0-.8-.887,5.588,5.588,0,0,0-.9-.738,11.1,11.1,0,0,0,2.737-1.738A9.3,9.3,0,0,0,15.275-11.375Zm5,1.075h.5l.425-.125,1.75.925a11.242,11.242,0,0,1-2.737,3.325,17.137,17.137,0,0,1-3.837,2.4A27.726,27.726,0,0,1,12.025-2.2,6.541,6.541,0,0,0,11.4-3.3a10.808,10.808,0,0,0-.775-1.025,21.837,21.837,0,0,0,2.988-.825A18.031,18.031,0,0,0,16.4-6.4a12.979,12.979,0,0,0,2.313-1.625,7.23,7.23,0,0,0,1.563-1.9ZM1.2-.375Q2.575-.45,4.3-.562T7.938-.825Q9.85-.975,11.75-1.1l.025,2.35q-2.75.25-5.487.475l-4.838.4ZM15.7-10.3h5.375v1.9h-6.7ZM5.65-6.275H8.4V.45L5.65.575ZM2.225-4.9h2.4V.225l-2.4.25ZM41.65-10.675A16.378,16.378,0,0,0,43.675-6.2a11.383,11.383,0,0,0,3.362,3.312A15.127,15.127,0,0,0,52.025-.9a7.423,7.423,0,0,0-.812.925q-.438.575-.825,1.188t-.662,1.112a15.459,15.459,0,0,1-5.4-2.538A13.615,13.615,0,0,1,40.75-4.325,27.407,27.407,0,0,1,38.375-10Zm-12.05-1.4H50.5V-8.65H29.6Zm-.775-7.65H51.15V-16.3H28.825Zm9.15.9H41.55v6.25a24.117,24.117,0,0,1-.237,3.313,15.058,15.058,0,0,1-.888,3.387A11.625,11.625,0,0,1,38.5-2.662,13.978,13.978,0,0,1,35.2.163,20.108,20.108,0,0,1,30.15,2.35a6.344,6.344,0,0,0-.538-.987Q29.25.8,28.837.262T28.1-.625a19.486,19.486,0,0,0,4.413-1.788,11.1,11.1,0,0,0,2.875-2.3,9.855,9.855,0,0,0,1.65-2.6,10.713,10.713,0,0,0,.75-2.7,19.011,19.011,0,0,0,.188-2.588ZM4.85,9.6H19.7v3.075H4.85Zm-1.625,0h3.15v8.925q0,1.575-.113,3.425a33.818,33.818,0,0,1-.437,3.725,21.5,21.5,0,0,1-.95,3.613A11.921,11.921,0,0,1,3.225,32.4a5.917,5.917,0,0,0-.775-.625q-.5-.35-1.025-.675A7.576,7.576,0,0,0,.5,30.6,10.024,10.024,0,0,0,2,27.862a17.219,17.219,0,0,0,.813-3.125,28.2,28.2,0,0,0,.338-3.212q.075-1.6.075-3Zm15.125,0h3.275q-.05,2.5-.062,4.887t-.013,4.525q0,2.137.063,3.912t.175,3.063a12.959,12.959,0,0,0,.3,2.013q.188.725.463.725.15,0,.262-1t.137-2.45q.4.7.9,1.438a9.577,9.577,0,0,0,.925,1.188,14.4,14.4,0,0,1-.437,2.475,3.233,3.233,0,0,1-.788,1.475,1.879,1.879,0,0,1-1.35.475,2.282,2.282,0,0,1-1.988-1.2,9.582,9.582,0,0,1-1.162-3.35,38.836,38.836,0,0,1-.55-5.012q-.15-2.863-.15-6.213ZM10.8,15.8h2.875V28.725H10.8ZM9.575,20.2v2.425h5.4V20.2ZM7.05,17.7H17.625v7.425H7.05Zm9.05-4.8,2.15,2.375a32.815,32.815,0,0,1-3.425.675q-1.875.275-3.812.412t-3.737.213a5.56,5.56,0,0,0-.3-1.25,12.013,12.013,0,0,0-.475-1.2q1.275-.075,2.6-.187t2.588-.263q1.262-.15,2.4-.35T16.1,12.9ZM6.05,27.725l3.212-.175q1.812-.1,3.825-.225l4.012-.25v2.7q-1.9.175-3.825.337l-3.725.313q-1.8.15-3.3.25Zm8.425-1.95,2.5-.75a16.869,16.869,0,0,1,.938,1.863q.437,1.012.762,1.975A13.552,13.552,0,0,1,19.15,30.6l-2.7.875a14.02,14.02,0,0,0-.425-1.738q-.3-.987-.7-2.012T14.475,25.775Zm16.1-4.1h19.05V32.3H46.05V24.8H34v7.5H30.575ZM35.35,12.9v3.375h9.2V12.9ZM32.075,9.85H48.05v9.475H32.075Zm.175,18.5H48.025v3.125H32.25Zm6.025-10.675,3.75.8q-.45,1.425-.875,2.837t-.8,2.438L37.4,23q.2-.775.375-1.7t.313-1.862Q38.225,18.5,38.275,17.675Z" transform="translate(239 5423)" fill="#3c3636"/>
  </g>
</svg>
