<svg xmlns="http://www.w3.org/2000/svg" width="64.39" height="48.758" viewBox="0 0 64.39 48.758">
  <g id="グループ_23674" data-name="グループ 23674" transform="translate(-294.3 -3789.649)">
    <path id="パス_108407" data-name="パス 108407" d="M2.31-7.91V-6.7H4.59c.03.34.07.7.14,1.08l-.61-.11C3.57-3.1,2.38-1.17.3-.12A9.5,9.5,0,0,1,1.39.85,8.653,8.653,0,0,0,5.08-4.09,8.449,8.449,0,0,0,8.76.84,6.4,6.4,0,0,1,9.72-.2,8.348,8.348,0,0,1,5.77-7.91ZM20.52-6.29A10.486,10.486,0,0,0,18.57-8.5l-.93.58a10.2,10.2,0,0,1,1.86,2.3ZM15.59-8.38a6.446,6.446,0,0,1-1.8,2.17,8.739,8.739,0,0,1,.98.76,9.808,9.808,0,0,0,1.98-2.57Zm-1.25.94a7.531,7.531,0,0,0-1.81-.98l-.65.88a6.867,6.867,0,0,1,1.77,1.08Zm-.55,2.66a6.977,6.977,0,0,0-1.85-.95l-.63.89a7.767,7.767,0,0,1,1.8,1.05ZM12.57.73c.54-.95,1.08-2.05,1.54-3.09l-.91-.72A29.622,29.622,0,0,1,11.54,0Zm2.8-3.72a9.872,9.872,0,0,0,1.91-2.24,9.6,9.6,0,0,0,2,2.24Zm.67,2.42V-1.93h2.45V-.57Zm.61-5.87a7.938,7.938,0,0,1-2.86,3.09,5.723,5.723,0,0,1,.65,1.05,4.734,4.734,0,0,0,.46-.32V.87h1.14V.48h2.45V.8h1.18V-2.69c.16.12.31.22.47.32a6.737,6.737,0,0,1,.69-1.12,8.008,8.008,0,0,1-3.01-2.95Zm8.02-.36v1.76h-.92V-6.8Zm-.92,4.68V-4h.92v1.88Zm2.03-5.74H22.65V-.18h1.1v-.88h2.03Zm.59,5.96A7.035,7.035,0,0,1,27.51-.22l1.02-.59a6.9,6.9,0,0,0-1.21-1.64Zm5.29-2.56V-5.5H29.38v-.88h2V-7.42h-2V-8.47H28.21v1.05H26.29v1.04h1.92v.88H25.95v1.04h3.53v.86H25.97v1.03h3.51V-.42c0,.14-.05.18-.21.18s-.71,0-1.19-.02A4.011,4.011,0,0,1,28.46.86a4.427,4.427,0,0,0,1.67-.2c.39-.18.5-.48.5-1.05V-2.57h.96V-3.6h-.96v-.86Zm10.61.94a3.808,3.808,0,0,0-4.04-3.9,4.443,4.443,0,0,0-4.59,4.28c0,1.69.92,2.91,2.03,2.91,1.09,0,1.95-1.24,2.55-3.26a20.223,20.223,0,0,0,.6-2.71,2.472,2.472,0,0,1,2.1,2.64A2.714,2.714,0,0,1,38.64-.88a7.691,7.691,0,0,1-.93.16L38.46.47C40.98.08,42.27-1.41,42.27-3.52Zm-7.35.25a3.148,3.148,0,0,1,2.54-2.9,15.01,15.01,0,0,1-.53,2.42c-.41,1.35-.8,1.98-1.22,1.98C35.32-1.77,34.92-2.26,34.92-3.27Zm12.6-4.14a7.807,7.807,0,0,0-1.91-1.02l-.65.89a7.551,7.551,0,0,1,1.86,1.1Zm-.66,2.62a8.048,8.048,0,0,0-1.95-.95l-.61.9a7.688,7.688,0,0,1,1.9,1.05ZM46.61-3.2A26.638,26.638,0,0,1,44.72-.05l1.01.8c.6-.97,1.23-2.11,1.76-3.15ZM51.09-.58V-2.41h2.02V-3.53H51.09V-5.17h2.38V-6.31h-2.3L51.75-7a10.022,10.022,0,0,0-2.37-1.49l-.79.92a10.7,10.7,0,0,1,1.95,1.26H47.58v1.14h2.27v1.64H47.94v1.12h1.91V-.58H47.23V.54h6.45V-.58ZM61.25-7.02c-.08.21-.2.46-.29.65l.14.03H58.88l.13-.03a6.093,6.093,0,0,0-.24-.65Zm3.09.68H62.13c.13-.18.27-.4.42-.65l-.15-.03h1.41v-.92H60.58v-.53H59.4v.53H56.18v.92h1.45l-.05.01a6.07,6.07,0,0,1,.25.67H55.69v.92h8.65ZM56.23.67A3.816,3.816,0,0,0,57.61-1.3l-1-.35A3.306,3.306,0,0,1,55.3.04Zm1.64-3.83h4.32v.45H57.87Zm0-1.12h4.32v.44H57.87ZM59.56-.19c-.45,0-.53-.03-.53-.3v-1a6.24,6.24,0,0,1,1.41.86l.72-.74a6.358,6.358,0,0,0-1.04-.61h3.25V-5.01H56.74v3.03h2.5l-.41.4.12.05H57.87V-.48c0,.95.31,1.24,1.57,1.24h1.61c.93,0,1.25-.28,1.38-1.39a3.208,3.208,0,0,1-1.01-.38c-.05.71-.11.82-.48.82Zm2.58-1.07A8.289,8.289,0,0,1,63.71.61l.98-.57a7.344,7.344,0,0,0-1.63-1.81Z" transform="translate(294 3837.537)" fill="#fff"/>
    <path id="パス_108256" data-name="パス 108256" d="M38,29.956v.967a.5.5,0,0,0-.05.1,3.425,3.425,0,0,1-3.683,2.867H3.729c-.136,0-.272,0-.408,0a3.418,3.418,0,0,1-3.15-2.361A3.5,3.5,0,0,1,.56,28.568Q6.315,18.6,12.053,8.626q1.983-3.442,3.969-6.882A3.345,3.345,0,0,1,19.6.055a3.5,3.5,0,0,1,2.507,1.9Q28.89,13.75,35.68,25.541A21.554,21.554,0,0,1,38,29.956M20.242,22.945c.009-.138.018-.258.024-.379q.129-2.374.257-4.748c.139-2.634.288-5.267.408-7.9a1.932,1.932,0,1,0-3.863,0c.028.717.1,1.433.144,2.149q.311,4.577.623,9.154c.039.575.088,1.15.132,1.723Zm-1.227,5.4a1.562,1.562,0,1,0-1.574-1.534,1.553,1.553,0,0,0,1.574,1.534" transform="translate(308 3789.648)" fill="#fff"/>
  </g>
</svg>
