<svg xmlns="http://www.w3.org/2000/svg" width="247" height="180" viewBox="0 0 247 180">
  <g id="グループ_24122" data-name="グループ 24122" transform="translate(-725 -1651)">
    <rect id="_07f4c313ffc8abe1bc83c51995f4ff6d" data-name="07f4c313ffc8abe1bc83c51995f4ff6d" width="247" height="180" transform="translate(725 1651)" fill="#fff"/>
    <g id="グループ_24116" data-name="グループ 24116" transform="translate(0.76)">
      <g id="グループ_23613" data-name="グループ 23613" transform="matrix(0.891, 0.454, -0.454, 0.891, 902.66, 1701.621)">
        <path id="パス_108361" data-name="パス 108361" d="M0,43.769V0H22.654c2.561,0,4.663,3.484,4.663,7.772V74.041c0,3.315-1.469,6.715-4.885,7.723a6.086,6.086,0,0,1-6.851-2.426,10.355,10.355,0,0,1-.94-6.9c.752-4.594,4.254-22.7,3.007-28.667H0Z" transform="translate(0 0)" fill="#e81e23"/>
        <line id="線_2587" data-name="線 2587" x2="16.947" transform="translate(0.152 7.294)" fill="none" stroke="#fff" stroke-linecap="round" stroke-linejoin="round" stroke-width="1.3"/>
        <line id="線_2588" data-name="線 2588" x2="16.947" transform="translate(0.152 14.589)" fill="none" stroke="#fff" stroke-linecap="round" stroke-linejoin="round" stroke-width="1.3"/>
        <line id="線_2589" data-name="線 2589" x2="16.947" transform="translate(0.152 21.884)" fill="none" stroke="#fff" stroke-linecap="round" stroke-linejoin="round" stroke-width="1.3"/>
        <line id="線_2590" data-name="線 2590" x2="16.947" transform="translate(0.152 29.179)" fill="none" stroke="#fff" stroke-linecap="round" stroke-linejoin="round" stroke-width="1.3"/>
        <line id="線_2591" data-name="線 2591" x2="16.947" transform="translate(0.152 36.474)" fill="none" stroke="#fff" stroke-linecap="round" stroke-linejoin="round" stroke-width="1.3"/>
        <path id="パス_108362" data-name="パス 108362" d="M0,43.769H17.494c1.247,5.963-2.255,24.072-3.007,28.667a10.355,10.355,0,0,0,.94,6.9,6.086,6.086,0,0,0,6.851,2.426c3.415-1.008,4.885-4.408,4.885-7.723V7.772C27.163,3.484,25.062,0,22.5,0H0" transform="translate(0.152 0)" fill="none" stroke="#e81e23" stroke-linecap="round" stroke-linejoin="round" stroke-width="1.3"/>
      </g>
      <g id="グループ_24114" data-name="グループ 24114" transform="matrix(0.985, -0.174, 0.174, 0.985, 790.955, 1693.957)">
        <path id="パス_108592" data-name="パス 108592" d="M94.888,12.878v.927c-.152.332-.293.671-.458,1q-3.7,7.308-7.406,14.613c-.78,1.535-1.59,1.88-3.247,1.391-2.366-.7-4.729-1.409-7.094-2.11-.337-.1-.681-.175-1.123-.288v1.327q0,24.84,0,49.682a7.863,7.863,0,0,1-.114,1.378,1.879,1.879,0,0,1-1.646,1.634,7.557,7.557,0,0,1-1.285.11q-25.073.008-50.145,0a7.239,7.239,0,0,1-1.377-.124,1.859,1.859,0,0,1-1.574-1.6,7.743,7.743,0,0,1-.118-1.377q-.009-24.887,0-49.775V28.409c-.45.114-.778.185-1.1.28q-3.5,1.037-7.007,2.08c-1.793.531-2.554.217-3.385-1.42Q4.137,22.126.485,14.9c-.918-1.817-.557-2.856,1.292-3.714,4-1.855,8.063-3.593,12-5.578A65.187,65.187,0,0,1,30.322.131c1.97-.4,2.831.1,3.361,2.011A14.156,14.156,0,0,0,47.361,12.735,14.171,14.171,0,0,0,61.184,2.091C61.7.272,62.555-.257,64.4.109c.272.054.547.1.814.176,3.7,1.05,7.533,1.792,11.081,3.228,5.626,2.278,11.061,5.03,16.586,7.559a3.668,3.668,0,0,1,2,1.807" transform="translate(0 0)" fill="#e54246"/>
        <path id="パス_108593" data-name="パス 108593" d="M95.89,3.765a38.976,38.976,0,0,0,17.611.011c-.722,3.375-4.452,6.195-8.33,6.365A9.2,9.2,0,0,1,95.89,3.765" transform="translate(-57.298 -2.25)" fill="#e54246"/>
      </g>
      <g id="グループ_24115" data-name="グループ 24115" transform="translate(781.746 1728.976) rotate(11)">
        <path id="パス_108594" data-name="パス 108594" d="M32.1,1.692A4.915,4.915,0,0,1,34.794.033a3.252,3.252,0,0,1,2.822.875c3.2,3.187,6.413,6.37,9.582,9.592,1.517,1.542,1.4,3.344-.217,4.966Q32.654,29.8,18.322,44.126c-.975.976-1.944,1.958-2.927,2.926a3.2,3.2,0,0,1-4.907,0q-4.677-4.657-9.335-9.334a3.476,3.476,0,0,1,.41-5.489.61.61,0,0,1,.492-.057c.379.136.737.329,1.1.5a3.3,3.3,0,0,0,4.21-.729q6.575-6.595,13.144-13.194Q26.326,12.9,32.136,7.058a3.055,3.055,0,0,0,.644-4.006c-.219-.444-.441-.886-.677-1.36M10.271,41.821a9.633,9.633,0,0,0,1.074-.8Q26.21,26.176,41.06,11.315a3.074,3.074,0,0,0,.429-.475,1.14,1.14,0,0,0-.1-1.5,1.16,1.16,0,0,0-1.559-.087,4.028,4.028,0,0,0-.416.39Q24.558,24.495,9.705,39.353c-.151.151-.377.3-.413.477a2.129,2.129,0,0,0-.048,1.2c.148.319.613.491,1.027.791M38.839,7.5c-.01-1.051-.791-1.61-1.54-1.305a2.369,2.369,0,0,0-.736.538Q21.674,21.612,6.8,36.5a3.567,3.567,0,0,0-.341.364,1.165,1.165,0,0,0,.064,1.562,1.185,1.185,0,0,0,1.614.042c.182-.152.344-.328.512-.5l22.3-22.3Q34.576,12.039,38.2,8.4a5.577,5.577,0,0,0,.637-.9M13.082,44.7a9.675,9.675,0,0,0,1.2-.866q14.814-14.791,29.61-29.6a5.5,5.5,0,0,0,.394-.411,1.162,1.162,0,0,0-1.649-1.636c-.146.121-.276.262-.41.4q-14.8,14.8-29.6,29.608c-.167.168-.417.328-.461.528a2.181,2.181,0,0,0-.033,1.2c.125.3.561.478.949.779" transform="translate(0 0)" fill="#facfcb"/>
        <path id="パス_108595" data-name="パス 108595" d="M183.984,190.646l6.8-7.142c2.387,1.976,4.7,3.883,7,5.794q9.393,7.783,18.786,15.567a7.838,7.838,0,0,1,2.65,8.482,8.014,8.014,0,0,1-13.741,3.229c-7.236-8.581-14.386-17.234-21.567-25.861a1.593,1.593,0,0,1-.114-.18l.189.11" transform="translate(-148.761 -148.525)" fill="#e81e23"/>
        <path id="パス_108596" data-name="パス 108596" d="M37.45,10.42a7.019,7.019,0,0,1-.631.849q-4.9,4.943-9.81,9.868L12.309,35.9c-.724.727-.987.767-1.868.287-.542-.3-1.083-.595-1.625-.89-1-.545-1.062-.932-.272-1.723q1.159-1.162,2.321-2.322L34.428,7.693c.854-.854,1.252-.8,1.812.258.311.588.621,1.176.923,1.769.1.188.162.391.288.7" transform="translate(-6.478 -5.747)" fill="#e81e23"/>
        <path id="パス_108597" data-name="パス 108597" d="M149.271,134.451c.766.782,1.537,1.555,2.292,2.343a2.137,2.137,0,0,1,0,3.225c-1.226,1.259-2.482,2.491-3.725,3.734q-3.553,3.553-7.105,7.106c-1.308,1.307-2.563,1.3-3.885-.008-.674-.667-1.36-1.322-2.012-1.955l14.44-14.446" transform="translate(-109.13 -108.823)" fill="#e81e23"/>
        <path id="パス_108598" data-name="パス 108598" d="M49.211,80c-.414-.3-.879-.472-1.027-.791a2.131,2.131,0,0,1,.048-1.2c.037-.18.263-.326.414-.477Q63.5,62.67,78.352,47.815a4.01,4.01,0,0,1,.416-.39,1.16,1.16,0,0,1,1.559.087,1.141,1.141,0,0,1,.1,1.5,3.074,3.074,0,0,1-.429.475Q65.146,64.348,50.285,79.2a9.674,9.674,0,0,1-1.074.8" transform="translate(-38.94 -38.176)" fill="#fff"/>
        <path id="パス_108599" data-name="パス 108599" d="M65.108,33.462a5.584,5.584,0,0,1-.637.9q-3.613,3.652-7.257,7.272l-22.3,22.3c-.168.168-.331.344-.512.5a1.185,1.185,0,0,1-1.614-.041,1.165,1.165,0,0,1-.065-1.562,3.59,3.59,0,0,1,.341-.364Q47.946,47.575,62.832,32.695a2.373,2.373,0,0,1,.736-.538c.749-.3,1.531.254,1.54,1.305" transform="translate(-26.27 -25.96)" fill="#fff"/>
        <path id="パス_108600" data-name="パス 108600" d="M64.286,95.152c-.388-.3-.824-.476-.949-.779a2.181,2.181,0,0,1,.033-1.2c.044-.2.294-.36.461-.528q14.8-14.8,29.6-29.608c.134-.134.264-.275.41-.4a1.162,1.162,0,0,1,1.649,1.636,5.49,5.49,0,0,1-.394.411q-14.8,14.8-29.61,29.6a9.677,9.677,0,0,1-1.2.866" transform="translate(-51.203 -50.451)" fill="#fff"/>
      </g>
    </g>
  </g>
</svg>
