<svg xmlns="http://www.w3.org/2000/svg" width="180" height="180" viewBox="0 0 180 180">
  <g id="グループ_23678" data-name="グループ 23678" transform="translate(-391 -1194)">
    <rect id="_6c04829a8341b402938a363799010af5" data-name="6c04829a8341b402938a363799010af5" width="180" height="180" rx="3" transform="translate(391 1194)" fill="#fff"/>
    <g id="グループ_23618" data-name="グループ 23618" transform="translate(-16813.363 8780.01)">
      <g id="グループ_23610" data-name="グループ 23610" transform="translate(17298.234 -7543.009)">
        <path id="パス_108363" data-name="パス 108363" d="M488.6,148.937l-1.17,11.347h-7.8l-.994-9.671-.175-1.677Z" transform="translate(-466.21 -148.937)" fill="#214995"/>
        <path id="パス_108364" data-name="パス 108364" d="M485.843,154.777v8.559h-6.4v-8.579h6.4Z" transform="translate(-465.272 -143.41)" fill="#214995"/>
        <path id="パス_108365" data-name="パス 108365" d="M493.584,159.157v6.649H476.777v-6.649h16.807Z" transform="translate(-467.807 -139.231)" fill="#214995"/>
        <path id="パス_108366" data-name="パス 108366" d="M506.942,227.084a2.423,2.423,0,0,1-2.418,2.5H474.6a2.4,2.4,0,0,1-2.418-2.5l2.184-62.177a2.41,2.41,0,0,1,2.4-2.34h25.6a2.41,2.41,0,0,1,2.4,2.34Z" transform="translate(-472.176 -135.992)" fill="#214995"/>
        <path id="パス_108367" data-name="パス 108367" d="M497.954,162.567h4.406a2.41,2.41,0,0,1,2.4,2.34l2.184,62.177a2.423,2.423,0,0,1-2.418,2.5H474.6a2.4,2.4,0,0,1-2.418-2.5l2.184-62.177a2.41,2.41,0,0,1,2.4-2.34h21.194Z" transform="translate(-472.176 -135.992)" fill="none"/>
        <path id="パス_108368" data-name="パス 108368" d="M493.584,165.806v-6.649H476.777v6.649" transform="translate(-467.807 -139.231)" fill="none"/>
        <line id="線_2592" data-name="線 2592" y1="8.559" transform="translate(14.177 11.367)" fill="none"/>
        <line id="線_2593" data-name="線 2593" y1="8.559" transform="translate(20.571 11.367)" fill="none"/>
        <path id="パス_108369" data-name="パス 108369" d="M478.633,150.614l-.175-1.677H488.6l-1.17,11.347h-7.8Z" transform="translate(-466.21 -148.937)" fill="none"/>
        <path id="パス_108370" data-name="パス 108370" d="M472.658,152.156a.472.472,0,0,0,.051-.037l-2-2.621c.311-.238,1.582-1.055,4.861-1.567,2.072-.324,5.258-.132,9.738.586a1.65,1.65,0,0,1-.522,3.258c-5.077-.814-7.537-.767-8.706-.584A9.846,9.846,0,0,0,472.658,152.156Z" transform="translate(-471.654 -147.501)" fill="#214995"/>
      </g>
      <path id="パス_108363-2" data-name="パス 108363" d="M488.6,148.937l-1.17,11.347h-7.8l-.994-9.671-.175-1.677Z" transform="translate(16789.154 -7691.946)" fill="#e81e23"/>
      <path id="パス_108364-2" data-name="パス 108364" d="M485.843,154.777v8.559h-6.4v-8.579h6.4Z" transform="translate(16790.094 -7686.419)" fill="#e81e23"/>
      <path id="パス_108365-2" data-name="パス 108365" d="M493.584,159.157v6.649H476.777v-6.649h16.807Z" transform="translate(16787.559 -7682.24)" fill="#e81e23"/>
      <path id="パス_108366-2" data-name="パス 108366" d="M506.942,227.084a2.423,2.423,0,0,1-2.418,2.5H474.6a2.4,2.4,0,0,1-2.418-2.5l2.184-62.177a2.41,2.41,0,0,1,2.4-2.34h25.6a2.41,2.41,0,0,1,2.4,2.34Z" transform="translate(16783.188 -7679.001)" fill="#e81e23"/>
      <path id="パス_108367-2" data-name="パス 108367" d="M497.954,162.567h4.406a2.41,2.41,0,0,1,2.4,2.34l2.184,62.177a2.423,2.423,0,0,1-2.418,2.5H474.6a2.4,2.4,0,0,1-2.418-2.5l2.184-62.177a2.41,2.41,0,0,1,2.4-2.34h21.194Z" transform="translate(16783.188 -7679.001)" fill="none"/>
      <path id="パス_108368-2" data-name="パス 108368" d="M493.584,165.806v-6.649H476.777v6.649" transform="translate(16787.559 -7682.24)" fill="none"/>
      <line id="線_2592-2" data-name="線 2592" y1="8.559" transform="translate(17269.541 -7531.642)" fill="none"/>
      <line id="線_2593-2" data-name="線 2593" y1="8.559" transform="translate(17275.934 -7531.642)" fill="none"/>
      <path id="パス_108369-2" data-name="パス 108369" d="M478.633,150.614l-.175-1.677H488.6l-1.17,11.347h-7.8Z" transform="translate(16789.154 -7691.946)" fill="none"/>
      <path id="パス_108370-2" data-name="パス 108370" d="M472.658,152.156a.472.472,0,0,0,.051-.037l-2-2.621c.311-.238,1.582-1.055,4.861-1.567,2.072-.324,5.258-.132,9.738.586a1.65,1.65,0,0,1-.522,3.258c-5.077-.814-7.537-.767-8.706-.584A9.846,9.846,0,0,0,472.658,152.156Z" transform="translate(16783.709 -7690.511)" fill="#e81e23"/>
    </g>
  </g>
</svg>
