<svg xmlns="http://www.w3.org/2000/svg" width="247" height="180" viewBox="0 0 247 180">
  <g id="グループ_24120" data-name="グループ 24120" transform="translate(-189 -1651)">
    <rect id="_07f4c313ffc8abe1bc83c51995f4ff6d" data-name="07f4c313ffc8abe1bc83c51995f4ff6d" width="247" height="180" transform="translate(189 1651)" fill="#fff"/>
    <g id="グループ_23612" data-name="グループ 23612" transform="translate(-18001.982 6811.348) rotate(8)">
      <path id="パス_108324" data-name="パス 108324" d="M14.52,47.86A15.656,15.656,0,0,1,30.106,32.274a15.573,15.573,0,0,1,11.246,26.36,15.374,15.374,0,0,1-11.246,4.836,15.728,15.728,0,0,1-8.389-2.452h-.022A.022.022,0,0,0,21.672,61,15.589,15.589,0,0,1,14.52,47.86" transform="translate(17397.324 -7582.744)" fill="#5cb232"/>
      <path id="パス_108326" data-name="パス 108326" d="M13.576,35.819A15.436,15.436,0,0,0,2.825,40.162H2.8L2.78,40.14,13.508,29.434a15.609,15.609,0,0,0,6.1,7.49l.022.02a.023.023,0,0,1,.022.025s.022-.025.022,0c.157.112.315.2.472.315a15.683,15.683,0,0,0-6.567-1.464" transform="translate(17382.66 -7586.292)" fill="#92c17a"/>
      <path id="パス_108327" data-name="パス 108327" d="M8.125,41.2A15.632,15.632,0,0,1,22.676,20.014,15.579,15.579,0,0,1,38.263,35.6,15.656,15.656,0,0,1,22.676,51.187a15.517,15.517,0,0,1-7.062-1.709c-.27-.157-.562-.292-.832-.427h-.022c-.157-.112-.315-.2-.472-.315,0-.022-.022,0-.022,0v-.022h-.022l-.022-.022a15.609,15.609,0,0,1-6.1-7.49" transform="translate(17388.043 -7598.058)" fill="#5cb232"/>
      <path id="パス_108328" data-name="パス 108328" d="M19.044,68.6A15.555,15.555,0,0,0,10.88,54.9a15.476,15.476,0,0,0,18.308-3.126l.022.022L62.655,18.35l.045.045a15.954,15.954,0,0,1,9.289-2.721,15.573,15.573,0,0,1,11.246,26.36l-1.8,1.867c-5.511,6.118-35.514,35.491-35.514,35.491l-.022-.022A15.566,15.566,0,1,0,19.067,68.6Z" transform="translate(17392.779 -7603.48)" fill="#92c17a"/>
      <path id="パス_108329" data-name="パス 108329" d="M20,40.749A15.434,15.434,0,0,0,9.252,45.09l-.022-.022L44.721,9.554l1.867-1.8A15.336,15.336,0,0,1,57.339,3.414,15.557,15.557,0,0,1,68.584,29.751l-1.8,1.867-2.069,2.047L31.271,67.109l-.022-.022A15.336,15.336,0,0,0,35.59,56.336,15.579,15.579,0,0,0,20,40.749" transform="translate(17390.717 -7618.793)" fill="#92c17a"/>
      <path id="パス_108332" data-name="パス 108332" d="M2.8,40.162l-.022-.022L13.508,29.434" transform="translate(17382.66 -7586.292)" fill="none"/>
      <path id="パス_108333" data-name="パス 108333" d="M30.129,48.809a3.18,3.18,0,0,0,2.047-.9,3.08,3.08,0,0,0,1.057-2.564,4.066,4.066,0,0,0-4.3-3.868,5.077,5.077,0,0,0-2.452.765A5.007,5.007,0,0,0,24.1,46.852a6.389,6.389,0,0,0,6.7,6.073,8.066,8.066,0,0,0,7.6-8.412A10.015,10.015,0,0,0,27.88,35.022,12.528,12.528,0,0,0,16.05,48.2a15.586,15.586,0,0,0,3.756,9.379V57.6" transform="translate(17399.213 -7579.33)" fill="none" stroke="#fff" stroke-linecap="round" stroke-linejoin="round" stroke-width="2.3"/>
      <path id="パス_108334" data-name="パス 108334" d="M41.352,58.631A15.561,15.561,0,1,0,21.672,61a.022.022,0,0,1,.022.022h.022a15.728,15.728,0,0,0,8.389,2.452A15.368,15.368,0,0,0,41.352,58.631Z" transform="translate(17397.324 -7582.744)" fill="none" stroke="#5cb232" stroke-linecap="round" stroke-linejoin="round" stroke-width="1.3"/>
      <path id="パス_108335" data-name="パス 108335" d="M26.45,51.188l.022.023,13-12.977" transform="translate(17412.229 -7575.3)" fill="none"/>
      <path id="パス_108336" data-name="パス 108336" d="M33.92,18.393a15.968,15.968,0,0,1,9.289-2.719,15.573,15.573,0,0,1,11.246,26.36l-1.8,1.867-2.429,2.429" transform="translate(17421.559 -7603.48)" fill="none"/>
      <path id="パス_108337" data-name="パス 108337" d="M10.27,32.773a.023.023,0,0,1,.022.025" transform="translate(17392.018 -7582.121)" fill="none" stroke="#000" stroke-linecap="round" stroke-linejoin="round" stroke-width="1.3"/>
      <path id="パス_108338" data-name="パス 108338" d="M22.71,36.528a3.4,3.4,0,0,0,3.1-3.464,4.081,4.081,0,0,0-4.3-3.868,5.246,5.246,0,0,0-2.452.765,5.131,5.131,0,0,0-2.407,4.633,6.424,6.424,0,0,0,6.725,6.073,8.117,8.117,0,0,0,4.588-1.777,7.966,7.966,0,0,0,2.991-6.657,9.968,9.968,0,0,0-10.526-9.469A12.523,12.523,0,0,0,8.608,35.92a15.863,15.863,0,0,0,3.734,9.356" transform="translate(17389.92 -7594.645)" fill="none" stroke="#fff" stroke-linecap="round" stroke-linejoin="round" stroke-width="2.3"/>
      <path id="パス_108339" data-name="パス 108339" d="M33.922,46.351A15.336,15.336,0,0,0,38.263,35.6,15.557,15.557,0,0,0,11.926,24.355,15.548,15.548,0,0,0,8.125,41.2a15.609,15.609,0,0,0,6.1,7.49l.022.022h.022v.022s.022-.022.022,0c.157.112.315.2.472.315h.022c.27.157.54.292.832.427a15.476,15.476,0,0,0,18.308-3.126Z" transform="translate(17388.043 -7598.058)" fill="none" stroke="#5cb232" stroke-linecap="round" stroke-linejoin="round" stroke-width="1.3"/>
      <path id="パス_108340" data-name="パス 108340" d="M9.252,45.09l-.022-.022L44.721,9.554l1.867-1.8A15.336,15.336,0,0,1,57.339,3.414,15.557,15.557,0,0,1,68.584,29.751l-1.8,1.867-2.069,2.047L31.271,67.109l-.022-.022" transform="translate(17390.717 -7618.793)" fill="none"/>
      <path id="パス_108331" data-name="パス 108331" d="M22.8,33.736a15.681,15.681,0,0,0-6.567-1.462A15.6,15.6,0,0,0,7.8,61a.022.022,0,0,1,.022.022,15.806,15.806,0,0,0,8.412,2.452,15.6,15.6,0,0,0,7.422-29.306c-.27-.157-.562-.292-.832-.427" transform="translate(17380 -7582.744)" fill="none" stroke="#5cb232" stroke-linecap="round" stroke-linejoin="round" stroke-width="1.3"/>
      <path id="パス_108325" data-name="パス 108325" d="M.65,47.86A15.656,15.656,0,0,1,16.236,32.274,15.681,15.681,0,0,1,22.8,33.736h.022c.27.157.54.292.832.427a15.605,15.605,0,0,1-7.422,29.306,15.806,15.806,0,0,1-8.412-2.452A.022.022,0,0,0,7.8,61,15.589,15.589,0,0,1,.65,47.86" transform="translate(17380 -7582.744)" fill="#5cb232"/>
      <path id="パス_108330" data-name="パス 108330" d="M16.249,48.809a3.18,3.18,0,0,0,2.047-.9,3.017,3.017,0,0,0,1.057-2.564,4.06,4.06,0,0,0-4.273-3.868,4.929,4.929,0,0,0-2.452.765,5.025,5.025,0,0,0-2.407,4.611,6.4,6.4,0,0,0,6.725,6.073,7.87,7.87,0,0,0,4.588-1.777,7.956,7.956,0,0,0,2.991-6.635A10.015,10.015,0,0,0,14,35.022,12.528,12.528,0,0,0,2.17,48.2a15.586,15.586,0,0,0,3.756,9.379" transform="translate(17381.875 -7579.33)" fill="none" stroke="#fff" stroke-linecap="round" stroke-linejoin="round" stroke-width="2.3"/>
    </g>
  </g>
</svg>
