<svg xmlns="http://www.w3.org/2000/svg" width="180" height="180" viewBox="0 0 180 180">
  <g id="グループ_23682" data-name="グループ 23682" transform="translate(-994 -1194)">
    <rect id="浴場_" data-name="浴場１" width="180" height="180" transform="translate(994 1194)" fill="#fff"/>
    <g id="グループ_23609" data-name="グループ 23609" transform="translate(-16324.991 8717.573)">
      <g id="グループ_23681" data-name="グループ 23681">
        <path id="パス_108378" data-name="パス 108378" d="M32.358,32.5V47.858H29.69a1.979,1.979,0,0,1-1.98-1.96V34.44a1.962,1.962,0,0,1,1.98-1.94Z" transform="translate(17387.963 -7447.708)" fill="#d8e4fa"/>
        <path id="パス_108379" data-name="パス 108379" d="M14.574,5.619V37.872l-.121.869L.65,36.8V6.549l13.782-1.94Z" transform="translate(17360.34 -7476.182)" fill="#d8e4fa"/>
        <path id="パス_108380" data-name="パス 108380" d="M58.155,20.042A13.833,13.833,0,1,1,44.313,6.219,13.812,13.812,0,0,1,58.155,20.042" transform="translate(17390.805 -7474.538)" fill="#d8e4fa"/>
        <path id="パス_108381" data-name="パス 108381" d="M43.085,26.265a23.613,23.613,0,0,0,7.073-1.071V63.085a10.074,10.074,0,0,1-20.148,0V24.669l9.639,1.354a24.984,24.984,0,0,0,3.435.243" transform="translate(17390.313 -7455.703)" fill="#214995"/>
        <path id="パス_108382" data-name="パス 108382" d="M67.812,39.509A13.8,13.8,0,1,0,53.99,25.727,13.812,13.812,0,0,0,67.812,39.509M90.688,25.727A25.01,25.01,0,0,1,73.168,49.714a23.613,23.613,0,0,1-7.073,1.071,24.984,24.984,0,0,1-3.435-.243L53.02,49.189,7.49,42.783l.121-.869V9.661L7.47,8.65,62.659.89C77.492-1.191,90.688,10.51,90.688,25.727" transform="translate(17367.303 -7480.224)" fill="#214995"/>
        <line id="線_2596" data-name="線 2596" y2="32.253" transform="translate(17374.916 -7470.562)" fill="none"/>
        <path id="パス_108383" data-name="パス 108383" d="M80.13,49.714A25.01,25.01,0,0,0,97.651,25.727c0-15.217-13.2-26.92-28.029-24.836L14.432,8.651.65,10.591V40.843l13.8,1.94,45.53,6.406" transform="translate(17360.34 -7480.224)" fill="none"/>
        <path id="パス_108384" data-name="パス 108384" d="M58.155,20.042A13.833,13.833,0,1,1,44.313,6.219,13.812,13.812,0,0,1,58.155,20.042Z" transform="translate(17390.805 -7474.538)" fill="none"/>
        <path id="パス_108385" data-name="パス 108385" d="M30.01,40.493V24.67l9.639,1.354a24.984,24.984,0,0,0,3.435.243A23.613,23.613,0,0,0,50.158,25.2V63.086a10.074,10.074,0,0,1-20.148,0V55.852" transform="translate(17390.313 -7455.702)" fill="none"/>
        <path id="パス_108386" data-name="パス 108386" d="M32.358,32.5V47.858H29.69a1.979,1.979,0,0,1-1.98-1.96V34.44a1.962,1.962,0,0,1,1.98-1.94Z" transform="translate(17387.963 -7447.708)" fill="none"/>
      </g>
    </g>
  </g>
</svg>
