<svg xmlns="http://www.w3.org/2000/svg" xmlns:xlink="http://www.w3.org/1999/xlink" width="180" height="180" viewBox="0 0 180 180">
  <defs>
    <clipPath id="clip-path">
      <rect id="浴場_" data-name="浴場１" width="180" height="180" rx="30" transform="translate(992 1194)" fill="#fff" stroke="#222" stroke-width="1"/>
    </clipPath>
  </defs>
  <g id="グループ_24119" data-name="グループ 24119" transform="translate(-992 -1194)">
    <rect id="浴場_2" data-name="浴場１" width="180" height="180" transform="translate(992 1194)" fill="#fff"/>
    <g id="マスクグループ_375" data-name="マスクグループ 375" clip-path="url(#clip-path)">
      <g id="グループ_24117" data-name="グループ 24117" transform="translate(988.349 1266.147) rotate(-17)">
        <path id="パス_108601" data-name="パス 108601" d="M12.619,68.077c.064-.069.391-.436.74-.786q31.8-31.815,63.612-63.623c4.3-4.3,9.451-4.84,14.517-1.522,5.761,3.777,11.5,7.593,17.092,11.291L70.97,51.01c-1.606-2.408-3.393-5.064-5.155-7.735-1.467-2.226-3.544-3.329-6.122-2.715a8.221,8.221,0,0,0-3.636,2.134q-16.713,16.569-33.3,33.261A14.347,14.347,0,0,0,21.734,77.2l-9.115-9.122" transform="translate(16.216 -0.002)" fill="#5cb232"/>
        <path id="パス_108602" data-name="パス 108602" d="M20.027,104.359c-3.071,0-5.726.05-8.377-.046a2.408,2.408,0,0,1-1.412-.969A44.528,44.528,0,0,1,.026,72.754,43.98,43.98,0,0,1,13.181,42.306c2.146-2.175,4.3-4.339,6.407-6.467,1.417,1.5,2.77,2.939,4.314,4.579-1.572,1.542-3.448,3.393-5.333,5.235A37.4,37.4,0,0,0,8.512,61.923C4.271,76.294,6.97,89.255,16.743,100.675c.971,1.136,1.986,2.233,3.284,3.684" transform="translate(0 46.054)"/>
        <path id="パス_108603" data-name="パス 108603" d="M40.591,40.642C51.418,29.815,62.144,19.087,72.929,8.3c-.089-.016-.021-.025.016.007,3.38,2.824,3.38,2.845.311,5.916Q59.511,27.97,45.764,41.721c-2.077,2.077-2.079,2.079-4.175-.032-.35-.352-.686-.718-1-1.047" transform="translate(52.162 10.645)" fill="#92c17a"/>
        <path id="パス_108604" data-name="パス 108604" d="M14.269,31.04c3.048,3.041,5.985,5.969,9.012,8.992-1.581,1.616-3.211,3.4-5.007,5a2.1,2.1,0,0,1-2.015-.2c-2.319-2.141-4.52-4.412-6.736-6.663a1.49,1.49,0,0,1,.069-2.335c1.59-1.62,3.169-3.249,4.678-4.8" transform="translate(11.554 39.887)" fill="#92c17a"/>
        <path id="パス_108605" data-name="パス 108605" d="M67.7,24.766a7.356,7.356,0,0,1-1.344-.752c-1.008-.946-1.995-1.917-2.936-2.932-.738-.8-.909-1.858.016-2.447a2.545,2.545,0,0,1,2.317.073,15.741,15.741,0,0,1,3.046,3.03,2.149,2.149,0,0,1,.267,1.794c-.185.507-.884.825-1.366,1.234" transform="translate(80.712 23.633)" fill="#214995"/>
        <path id="パス_108606" data-name="パス 108606" d="M60.154,22.289a6.873,6.873,0,0,1,1.44.761c1.015.937,1.988,1.926,2.936,2.929a1.57,1.57,0,0,1,.066,2.372,1.609,1.609,0,0,1-2.5-.009,27.678,27.678,0,0,1-2.9-2.964,2.583,2.583,0,0,1-.336-1.949c.105-.443.811-.745,1.284-1.14" transform="translate(75.574 28.642)" fill="#214995"/>
        <path id="パス_108607" data-name="パス 108607" d="M54.376,29.138c-.29.393-.542,1.051-1,1.27a1.9,1.9,0,0,1-1.684-.046,27.477,27.477,0,0,1-3.6-3.656,1.953,1.953,0,0,1,.258-1.878,1.96,1.96,0,0,1,1.865-.34,44.764,44.764,0,0,1,3.8,3.681c.174.181.2.507.361.969" transform="translate(61.612 31.31)" fill="#214995"/>
        <path id="パス_108608" data-name="パス 108608" d="M62.566,20.9c-.313.416-.574,1.067-1.035,1.286a1.917,1.917,0,0,1-1.682-.057,24.07,24.07,0,0,1-3.508-3.517,2.076,2.076,0,0,1,.2-2.02,2.048,2.048,0,0,1,2-.235A34.179,34.179,0,0,1,62.1,19.822a3.985,3.985,0,0,1,.462,1.081" transform="translate(72.169 20.808)" fill="#214995"/>
        <path id="パス_108609" data-name="パス 108609" d="M58.382,24.84c-.046,1.3-1.476,2.278-2.395,1.561a25.013,25.013,0,0,1-3.834-3.862c-.274-.336-.016-1.446.366-1.871a1.816,1.816,0,0,1,1.746-.3,52,52,0,0,1,3.891,3.821c.171.176.181.51.226.649" transform="translate(66.874 26.022)" fill="#214995"/>
        <path id="パス_108610" data-name="パス 108610" d="M61.072,31.364c-.3.379-.578,1.058-1.042,1.227a2.176,2.176,0,0,1-1.81-.181,20.186,20.186,0,0,1-3.263-3.288,2.209,2.209,0,0,1,.032-2.054,1.935,1.935,0,0,1,1.835-.464,51.867,51.867,0,0,1,3.994,3.933c.135.139.133.411.254.827" transform="translate(70.317 34.066)" fill="#214995"/>
        <path id="パス_108611" data-name="パス 108611" d="M56.982,35.441c-.3.386-.569,1.069-1.031,1.243a2.155,2.155,0,0,1-1.812-.167,20.2,20.2,0,0,1-3.272-3.281,2.22,2.22,0,0,1,.011-2.054,1.953,1.953,0,0,1,1.83-.487,53.158,53.158,0,0,1,4,3.928c.137.139.142.407.272.818" transform="translate(65.051 39.33)" fill="#214995"/>
      </g>
    </g>
  </g>
</svg>
