<svg xmlns="http://www.w3.org/2000/svg" width="180" height="180" viewBox="0 0 180 180">
  <g id="グループ_23679" data-name="グループ 23679" transform="translate(-590 -1194)">
    <rect id="a76e774d6264b032ab7cf587a72603ca" width="180" height="180" transform="translate(590 1194)" fill="#fff"/>
    <g id="グループ_23617" data-name="グループ 23617" transform="translate(-16830.336 8802.144)">
      <path id="パス_108346" data-name="パス 108346" d="M408.668,36.577V47.645a3.1,3.1,0,0,1-3.087,3.087H387.652a3.1,3.1,0,0,1-3.087-3.087V36.577a3.086,3.086,0,0,1,3.087-3.087h17.929a3.086,3.086,0,0,1,3.087,3.087" transform="translate(17088.602 -7535.341)" fill="#facfcb"/>
      <path id="パス_108347" data-name="パス 108347" d="M434.965,20.517V54.1a2.982,2.982,0,0,1-2.979,2.979H415.1a2.971,2.971,0,0,1-2.979-2.979V20.517a2.974,2.974,0,0,1,2.979-3h16.881a2.986,2.986,0,0,1,2.979,3" transform="translate(17110.801 -7548.205)" fill="#fbe9b9"/>
      <path id="パス_108348" data-name="パス 108348" d="M437.427,3.954V14.462H411.175V3.954c0-1.806,1.011-3.3,2.221-3.3h21.81c1.21,0,2.221,1.5,2.221,3.3" transform="translate(17110.035 -7561.793)" fill="#fbe9b9"/>
      <path id="パス_108349" data-name="パス 108349" d="M407.12,10.34V22.978H385.165V10.34H407.12Z" transform="translate(17089.084 -7553.988)" fill="#facfcb"/>
      <path id="パス_108350" data-name="パス 108350" d="M387.565,17.477V7.98c0-4.044,2.961-7.33,6.644-7.33A6.318,6.318,0,0,1,398.9,2.8a7.689,7.689,0,0,1,1.95,5.182V18.145H387.565Z" transform="translate(17091.018 -7561.793)" fill="#facfcb"/>
      <path id="パス_108351" data-name="パス 108351" d="M446.879,10.539V78.913a2.126,2.126,0,0,1-1.986,2.239H409.559a2.14,2.14,0,0,1-2-2.239V10.539a2.14,2.14,0,0,1,2-2.239h35.334a2.126,2.126,0,0,1,1.986,2.239m-8.233,50.987V27.944a2.986,2.986,0,0,0-2.979-3H418.785a2.974,2.974,0,0,0-2.979,3V61.526a2.971,2.971,0,0,0,2.979,2.979h16.881a2.982,2.982,0,0,0,2.979-2.979" transform="translate(17107.119 -7555.631)" fill="#f4ba1d"/>
      <path id="パス_108352" data-name="パス 108352" d="M406.756,26.692h.181a13.05,13.05,0,0,1,9.605,9.5,15.05,15.05,0,0,1,.56,4.08v33.6H381.335V40.27a14.379,14.379,0,0,1,.578-4.08,12.975,12.975,0,0,1,9.732-9.515V17.34h15.112v9.352Zm4.514,33.961V49.586a3.086,3.086,0,0,0-3.087-3.087H390.254a3.086,3.086,0,0,0-3.087,3.087V60.654a3.1,3.1,0,0,0,3.087,3.087h17.929a3.1,3.1,0,0,0,3.087-3.087" transform="translate(17086 -7548.35)" fill="#e81e23"/>
      <path id="パス_108353" data-name="パス 108353" d="M388.56,22.978H407.12V10.34H385.165V22.978Z" transform="translate(17089.084 -7553.988)" fill="none"/>
      <line id="線_2586" data-name="線 2586" y1="9.334" transform="translate(17477.643 -7531.01)" fill="none"/>
      <path id="パス_108354" data-name="パス 108354" d="M395.415,26.662V17.4" transform="translate(17097.342 -7548.302)" fill="none"/>
      <path id="パス_108355" data-name="パス 108355" d="M387.565,17.477V7.98c0-4.044,2.961-7.33,6.644-7.33A6.318,6.318,0,0,1,398.9,2.8a7.689,7.689,0,0,1,1.95,5.182v9.5" transform="translate(17091.018 -7561.793)" fill="none"/>
      <path id="パス_108356" data-name="パス 108356" d="M406.937,22.528a13.05,13.05,0,0,1,9.605,9.5,15.05,15.05,0,0,1,.56,4.08v33.6H381.335v-33.6a14.379,14.379,0,0,1,.578-4.08,12.975,12.975,0,0,1,9.732-9.515" transform="translate(17086 -7544.185)" fill="none"/>
      <path id="パス_108357" data-name="パス 108357" d="M405.581,50.733H387.652a3.1,3.1,0,0,1-3.087-3.087V36.577a3.086,3.086,0,0,1,3.087-3.087h17.929a3.086,3.086,0,0,1,3.087,3.087V47.645A3.1,3.1,0,0,1,405.581,50.733Z" transform="translate(17088.602 -7535.341)" fill="none"/>
      <path id="パス_108358" data-name="パス 108358" d="M440.343,8.3h4.55a2.126,2.126,0,0,1,1.986,2.239V78.913a2.126,2.126,0,0,1-1.986,2.239H409.559a2.14,2.14,0,0,1-2-2.239V10.539a2.14,2.14,0,0,1,2-2.239h30.784Z" transform="translate(17107.119 -7555.631)" fill="none"/>
      <path id="パス_108359" data-name="パス 108359" d="M411.175,14.462V3.954c0-1.806,1.011-3.3,2.221-3.3h21.81c1.21,0,2.221,1.5,2.221,3.3V14.462" transform="translate(17110.035 -7561.793)" fill="none"/>
      <path id="パス_108360" data-name="パス 108360" d="M431.986,57.079H415.1a2.971,2.971,0,0,1-2.979-2.979V20.517a2.974,2.974,0,0,1,2.979-3h16.881a2.986,2.986,0,0,1,2.979,3V54.1A2.982,2.982,0,0,1,431.986,57.079Z" transform="translate(17110.801 -7548.205)" fill="none"/>
    </g>
  </g>
</svg>
