<svg xmlns="http://www.w3.org/2000/svg" width="180" height="180" viewBox="0 0 180 180">
  <g id="グループ_23680" data-name="グループ 23680" transform="translate(-789 -1194)">
    <rect id="浴場_" data-name="浴場１" width="180" height="180" transform="translate(789 1194)" fill="#fff"/>
    <g id="グループ_23616" data-name="グループ 23616" transform="translate(0.002 -1.93)">
      <g id="グループ_23613" data-name="グループ 23613" transform="matrix(0.921, 0.391, -0.391, 0.921, 905.883, 1243.717)">
        <path id="パス_108361" data-name="パス 108361" d="M0,48.945V0H25.333c2.864,0,5.214,3.9,5.214,8.691V82.8c0,3.707-1.643,7.509-5.463,8.636a6.806,6.806,0,0,1-7.662-2.713A11.58,11.58,0,0,1,16.372,81c.841-5.138,4.758-25.389,3.363-32.057H0Z" transform="translate(0 0)" fill="#e81e23"/>
        <path id="線_2587" data-name="線 2587" d="M0,.65A.65.65,0,0,1-.65,0,.65.65,0,0,1,0-.65H18.952A.65.65,0,0,1,19.6,0a.65.65,0,0,1-.65.65Z" transform="translate(0.17 8.156)" fill="#fff"/>
        <path id="線_2588" data-name="線 2588" d="M0,.65A.65.65,0,0,1-.65,0,.65.65,0,0,1,0-.65H18.952A.65.65,0,0,1,19.6,0a.65.65,0,0,1-.65.65Z" transform="translate(0.17 16.314)" fill="#fff"/>
        <path id="線_2589" data-name="線 2589" d="M0,.65A.65.65,0,0,1-.65,0,.65.65,0,0,1,0-.65H18.952A.65.65,0,0,1,19.6,0a.65.65,0,0,1-.65.65Z" transform="translate(0.17 24.472)" fill="#fff"/>
        <path id="線_2590" data-name="線 2590" d="M0,.65A.65.65,0,0,1-.65,0,.65.65,0,0,1,0-.65H18.952A.65.65,0,0,1,19.6,0a.65.65,0,0,1-.65.65Z" transform="translate(0.17 32.63)" fill="#fff"/>
        <path id="線_2591" data-name="線 2591" d="M0,.65A.65.65,0,0,1-.65,0,.65.65,0,0,1,0-.65H18.952A.65.65,0,0,1,19.6,0a.65.65,0,0,1-.65.65Z" transform="translate(0.17 40.788)" fill="#fff"/>
        <path id="パス_108362" data-name="パス 108362" d="M22.922,92.36a7.983,7.983,0,0,1-2.519-.406,6.778,6.778,0,0,1-3.711-2.9C15,86.237,15.255,82.733,15.559,80.9c.109-.667.273-1.608.464-2.7.668-3.825,1.677-9.6,2.389-15.272.793-6.309,1-10.788.608-13.331H0a.65.65,0,0,1-.65-.65.65.65,0,0,1,.65-.65H19.563a.65.65,0,0,1,.636.517c1.24,5.927-1.554,21.923-2.9,29.61-.19,1.086-.353,2.023-.462,2.685-.275,1.662-.515,4.817.966,7.279a5.407,5.407,0,0,0,3.007,2.336,6.675,6.675,0,0,0,3.918.087c3.68-1.086,4.992-4.851,4.992-8.011V8.691a11.444,11.444,0,0,0-1.44-5.809A3.882,3.882,0,0,0,25.161.65H0A.65.65,0,0,1-.65,0,.65.65,0,0,1,0-.65H25.161C26.785-.65,28.29.367,29.4,2.213a12.752,12.752,0,0,1,1.626,6.479V82.8a11.311,11.311,0,0,1-1.385,5.608A7.675,7.675,0,0,1,25.1,92.057,7.879,7.879,0,0,1,22.922,92.36Z" transform="translate(0.17 0)" fill="#e81e23"/>
      </g>
      <rect id="長方形_7840" data-name="長方形 7840" width="28.458" height="28.457" rx="8" transform="matrix(0.966, 0.259, -0.259, 0.966, 863.35, 1289.318)" fill="#e81e23"/>
      <rect id="長方形_7839" data-name="長方形 7839" width="35.802" height="35.801" rx="8" transform="translate(823.998 1291.498) rotate(-25)" fill="#facfcb"/>
      <g id="グループ_23614" data-name="グループ 23614" transform="translate(885.33 1232.929) rotate(31)">
        <path id="線_2597" data-name="線 2597" d="M1.5,33.965h-3V0h3Z" transform="translate(3.213 6.885)" fill="#e81e23"/>
        <ellipse id="楕円形_612" data-name="楕円形 612" cx="3.213" cy="5.049" rx="3.213" ry="5.049" transform="translate(0 0)" fill="#e81e23"/>
        <path id="楕円形_612_-_アウトライン" data-name="楕円形 612 - アウトライン" d="M3.213,1C2.166,1,1,2.663,1,5.049S2.166,9.1,3.213,9.1,5.426,7.435,5.426,5.049,4.26,1,3.213,1m0-1C4.987,0,6.426,2.26,6.426,5.049S4.987,10.1,3.213,10.1,0,7.837,0,5.049,1.438,0,3.213,0Z" transform="translate(0 0)" fill="#e81e23"/>
        <ellipse id="楕円形_613" data-name="楕円形 613" cx="3.213" cy="5.049" rx="3.213" ry="5.049" transform="translate(0 36.719)" fill="#e81e23"/>
        <path id="楕円形_613_-_アウトライン" data-name="楕円形 613 - アウトライン" d="M3.213,1C2.166,1,1,2.663,1,5.049S2.166,9.1,3.213,9.1,5.426,7.435,5.426,5.049,4.26,1,3.213,1m0-1C4.987,0,6.426,2.26,6.426,5.049S4.987,10.1,3.213,10.1,0,7.837,0,5.049,1.438,0,3.213,0Z" transform="translate(0 36.719)" fill="#e81e23"/>
      </g>
      <g id="グループ_23615" data-name="グループ 23615" transform="translate(885.713 1244.675) rotate(11)">
        <path id="線_2597-2" data-name="線 2597" d="M1.5,33.965h-3V0h3Z" transform="translate(3.213 6.885)" fill="#e81e23"/>
        <ellipse id="楕円形_612-2" data-name="楕円形 612" cx="3.213" cy="5.049" rx="3.213" ry="5.049" transform="translate(0)" fill="#e81e23"/>
        <path id="楕円形_612_-_アウトライン-2" data-name="楕円形 612 - アウトライン" d="M3.213,1C2.166,1,1,2.663,1,5.049S2.166,9.1,3.213,9.1,5.426,7.435,5.426,5.049,4.26,1,3.213,1m0-1C4.987,0,6.426,2.26,6.426,5.049S4.987,10.1,3.213,10.1,0,7.837,0,5.049,1.438,0,3.213,0Z" transform="translate(0)" fill="#e81e23"/>
        <ellipse id="楕円形_613-2" data-name="楕円形 613" cx="3.213" cy="5.049" rx="3.213" ry="5.049" transform="translate(0 36.719)" fill="#e81e23"/>
        <path id="楕円形_613_-_アウトライン-2" data-name="楕円形 613 - アウトライン" d="M3.213,1C2.166,1,1,2.663,1,5.049S2.166,9.1,3.213,9.1,5.426,7.435,5.426,5.049,4.26,1,3.213,1m0-1C4.987,0,6.426,2.26,6.426,5.049S4.987,10.1,3.213,10.1,0,7.837,0,5.049,1.438,0,3.213,0Z" transform="translate(0 36.719)" fill="#e81e23"/>
      </g>
    </g>
  </g>
</svg>
