<svg xmlns="http://www.w3.org/2000/svg" width="180" height="180" viewBox="0 0 180 180">
  <g id="グループ_23684" data-name="グループ 23684" transform="translate(-391 -1671)">
    <rect id="_6c04829a8341b402938a363799010af5" data-name="6c04829a8341b402938a363799010af5" width="180" height="180" transform="translate(391 1671)" fill="#fff"/>
    <g id="グループ_23612" data-name="グループ 23612" transform="translate(-17832.982 6831.348) rotate(8)">
      <path id="パス_108324" data-name="パス 108324" d="M14.52,47.86A15.656,15.656,0,0,1,30.106,32.274a15.573,15.573,0,0,1,11.246,26.36,15.374,15.374,0,0,1-11.246,4.836,15.728,15.728,0,0,1-8.389-2.452h-.022A.022.022,0,0,0,21.672,61,15.589,15.589,0,0,1,14.52,47.86" transform="translate(17397.324 -7582.744)" fill="#5cb232"/>
      <path id="パス_108326" data-name="パス 108326" d="M13.576,35.819A15.436,15.436,0,0,0,2.825,40.162H2.8L2.78,40.14,13.508,29.434a15.609,15.609,0,0,0,6.1,7.49l.022.02a.023.023,0,0,1,.022.025s.022-.025.022,0c.157.112.315.2.472.315a15.683,15.683,0,0,0-6.567-1.464" transform="translate(17382.66 -7586.292)" fill="#92c17a"/>
      <path id="パス_108327" data-name="パス 108327" d="M8.125,41.2A15.632,15.632,0,0,1,22.676,20.014,15.579,15.579,0,0,1,38.263,35.6,15.656,15.656,0,0,1,22.676,51.187a15.517,15.517,0,0,1-7.062-1.709c-.27-.157-.562-.292-.832-.427h-.022c-.157-.112-.315-.2-.472-.315,0-.022-.022,0-.022,0v-.022h-.022l-.022-.022a15.609,15.609,0,0,1-6.1-7.49" transform="translate(17388.043 -7598.058)" fill="#5cb232"/>
      <path id="パス_108328" data-name="パス 108328" d="M19.044,68.6A15.555,15.555,0,0,0,10.88,54.9a15.476,15.476,0,0,0,18.308-3.126l.022.022L62.655,18.35l.045.045a15.954,15.954,0,0,1,9.289-2.721,15.573,15.573,0,0,1,11.246,26.36l-1.8,1.867c-5.511,6.118-35.514,35.491-35.514,35.491l-.022-.022A15.566,15.566,0,1,0,19.067,68.6Z" transform="translate(17392.779 -7603.48)" fill="#92c17a"/>
      <path id="パス_108329" data-name="パス 108329" d="M20,40.749A15.434,15.434,0,0,0,9.252,45.09l-.022-.022L44.721,9.554l1.867-1.8A15.336,15.336,0,0,1,57.339,3.414,15.557,15.557,0,0,1,68.584,29.751l-1.8,1.867-2.069,2.047L31.271,67.109l-.022-.022A15.336,15.336,0,0,0,35.59,56.336,15.579,15.579,0,0,0,20,40.749" transform="translate(17390.717 -7618.793)" fill="#92c17a"/>
      <path id="パス_108332" data-name="パス 108332" d="M2.8,40.162l-.022-.022L13.508,29.434" transform="translate(17382.66 -7586.292)" fill="none"/>
      <path id="パス_108333" data-name="パス 108333" d="M19.806,58.753a1.149,1.149,0,0,1-.984-.555,16.815,16.815,0,0,1-2.709-4.485A16.632,16.632,0,0,1,14.9,48.26,13.678,13.678,0,0,1,27.82,33.873,11.165,11.165,0,0,1,39.554,44.452a9.1,9.1,0,0,1-3.418,7.591,8.985,8.985,0,0,1-5.273,2.03,7.539,7.539,0,0,1-7.909-7.152,6.151,6.151,0,0,1,2.926-5.657,6.268,6.268,0,0,1,3-.936,5.216,5.216,0,0,1,5.5,4.96V45.3a4.214,4.214,0,0,1-1.435,3.469,4.361,4.361,0,0,1-2.722,1.191,1.15,1.15,0,1,1-.191-2.292,2.032,2.032,0,0,0,1.329-.567,1.15,1.15,0,0,1,.088-.079,1.935,1.935,0,0,0,.634-1.618,2.907,2.907,0,0,0-3.09-2.774,3.908,3.908,0,0,0-1.9.591l-.005,0a3.858,3.858,0,0,0-1.841,3.552q0,.011,0,.022a5.239,5.239,0,0,0,5.495,4.982,6.7,6.7,0,0,0,3.94-1.517l.017-.013a6.8,6.8,0,0,0,2.556-5.674,8.865,8.865,0,0,0-9.317-8.4A11.389,11.389,0,0,0,17.2,48.142a14.34,14.34,0,0,0,1.044,4.7,14.526,14.526,0,0,0,2.436,3.986,1.15,1.15,0,0,1,.277.749V57.6A1.15,1.15,0,0,1,19.806,58.753Z" transform="translate(17399.213 -7579.33)" fill="#fff"/>
      <path id="パス_108334" data-name="パス 108334" d="M30.106,64.119a16.384,16.384,0,0,1-8.644-2.494.65.65,0,0,1-.2-.118,16.223,16.223,0,0,1-7.4-13.647A16.306,16.306,0,0,1,30.106,31.624,16.221,16.221,0,0,1,41.823,59.079,15.872,15.872,0,0,1,36.6,62.768,16.072,16.072,0,0,1,30.106,64.119Zm-8.084-3.675.041.024a15.093,15.093,0,0,0,8.043,2.352,14.78,14.78,0,0,0,5.969-1.242,14.579,14.579,0,0,0,4.8-3.391l.005-.005a14.914,14.914,0,0,0-21.076-21.1l0,0A14.762,14.762,0,0,0,15.17,47.86a14.927,14.927,0,0,0,6.808,12.559Z" transform="translate(17397.324 -7582.744)" fill="#5cb232"/>
      <path id="パス_108335" data-name="パス 108335" d="M26.45,51.188l.022.023,13-12.977" transform="translate(17412.229 -7575.3)" fill="none"/>
      <path id="パス_108336" data-name="パス 108336" d="M33.92,18.393a15.968,15.968,0,0,1,9.289-2.719,15.573,15.573,0,0,1,11.246,26.36l-1.8,1.867-2.429,2.429" transform="translate(17421.559 -7603.48)" fill="none"/>
      <path id="パス_108337" data-name="パス 108337" d="M10.292,33.448a.662.662,0,0,1-.022-1.325.674.674,0,0,1,.672.675A.65.65,0,0,1,10.292,33.448Z" transform="translate(17392.018 -7582.121)"/>
      <path id="パス_108338" data-name="パス 108338" d="M12.343,46.427a1.147,1.147,0,0,1-.881-.41,16.968,16.968,0,0,1-4-10.032v-.008A13.678,13.678,0,0,1,20.377,21.615,11.118,11.118,0,0,1,32.113,32.176a9.137,9.137,0,0,1-3.422,7.612,9.258,9.258,0,0,1-5.232,2.026h-.015A7.487,7.487,0,0,1,18,39.874a7.575,7.575,0,0,1-2.491-5.215,6.294,6.294,0,0,1,2.94-5.671l.014-.009a6.36,6.36,0,0,1,3-.933,5.231,5.231,0,0,1,5.5,4.96v.007a4.542,4.542,0,0,1-4.187,4.662,1.15,1.15,0,1,1-.131-2.3,1.906,1.906,0,0,0,1.277-.565,1.148,1.148,0,0,1,.105-.093,1.936,1.936,0,0,0,.639-1.6,2.942,2.942,0,0,0-3.09-2.773,4.109,4.109,0,0,0-1.9.592,3.994,3.994,0,0,0-1.866,3.59,5.289,5.289,0,0,0,1.738,3.642,5.2,5.2,0,0,0,3.773,1.349,6.97,6.97,0,0,0,3.934-1.525l.006,0a6.834,6.834,0,0,0,2.557-5.7A8.818,8.818,0,0,0,20.5,23.911H20.5A11.376,11.376,0,0,0,9.757,35.86a14.684,14.684,0,0,0,3.465,8.677,1.15,1.15,0,0,1-.88,1.89Z" transform="translate(17389.92 -7594.645)" fill="#fff"/>
      <path id="パス_108339" data-name="パス 108339" d="M22.676,51.837a16.259,16.259,0,0,1-7.346-1.775c-.3-.141-.551-.266-.785-.4a.65.65,0,0,1-.164-.085c-.066-.047-.136-.092-.21-.14-.053-.034-.108-.069-.164-.107a.649.649,0,0,1-.2-.134,16.352,16.352,0,0,1-3.721-3.344A16.238,16.238,0,0,1,34.159,24.117,16.132,16.132,0,0,1,38.913,35.6a16.415,16.415,0,0,1-9.746,14.886A16.077,16.077,0,0,1,22.676,51.837Zm-7.638-3.384a.65.65,0,0,1,.071.036c.227.132.467.255.777.4l.023.011a14.953,14.953,0,0,0,6.767,1.638A14.785,14.785,0,0,0,28.646,49.3a14.586,14.586,0,0,0,4.8-3.389l.008-.009a14.65,14.65,0,0,0,4.156-10.3A14.907,14.907,0,0,0,12.378,24.822l0,0a14.877,14.877,0,0,0-1.279,20.205,15.055,15.055,0,0,0,3.45,3.093.65.65,0,0,1,.115.07.662.662,0,0,1,.06.048c.05.034.1.068.157.1S14.983,48.415,15.039,48.453Z" transform="translate(17388.043 -7598.058)" fill="#5cb232"/>
      <path id="パス_108340" data-name="パス 108340" d="M9.252,45.09l-.022-.022L44.721,9.554l1.867-1.8A15.336,15.336,0,0,1,57.339,3.414,15.557,15.557,0,0,1,68.584,29.751l-1.8,1.867-2.069,2.047L31.271,67.109l-.022-.022" transform="translate(17390.717 -7618.793)" fill="none"/>
      <path id="パス_108331" data-name="パス 108331" d="M16.236,64.119a16.429,16.429,0,0,1-8.758-2.551.65.65,0,0,1-.082-.061A16.223,16.223,0,0,1,0,47.86,16.306,16.306,0,0,1,16.236,31.624a16.234,16.234,0,0,1,6.756,1.483.653.653,0,0,1,.125.047l.2.1c.217.106.44.216.661.344a16.355,16.355,0,0,1,6.149,5.854,16.246,16.246,0,0,1-13.89,24.668Zm-7.984-3.6a15.126,15.126,0,0,0,7.984,2.3A14.955,14.955,0,0,0,29.015,40.127a15.052,15.052,0,0,0-5.668-5.392l-.017-.01c-.183-.107-.388-.207-.587-.3l-.123-.06a.655.655,0,0,1-.09-.034,14.955,14.955,0,0,0-6.3-1.4,14.734,14.734,0,0,0-10.3,4.158l0,0A14.762,14.762,0,0,0,1.3,47.86,14.927,14.927,0,0,0,8.108,60.419.676.676,0,0,1,8.252,60.519Z" transform="translate(17380 -7582.744)" fill="#5cb232"/>
      <path id="パス_108325" data-name="パス 108325" d="M.65,47.86A15.656,15.656,0,0,1,16.236,32.274,15.681,15.681,0,0,1,22.8,33.736h.022c.27.157.54.292.832.427a15.605,15.605,0,0,1-7.422,29.306,15.806,15.806,0,0,1-8.412-2.452A.022.022,0,0,0,7.8,61,15.589,15.589,0,0,1,.65,47.86" transform="translate(17380 -7582.744)" fill="#5cb232"/>
      <path id="パス_108330" data-name="パス 108330" d="M5.926,58.731a1.147,1.147,0,0,1-.873-.4,16.822,16.822,0,0,1-2.821-4.617A16.632,16.632,0,0,1,1.021,48.26,13.678,13.678,0,0,1,13.94,33.873,11.165,11.165,0,0,1,25.674,44.452a9.1,9.1,0,0,1-3.418,7.591,8.96,8.96,0,0,1-5.25,2.03,7.546,7.546,0,0,1-7.933-7.158,6.187,6.187,0,0,1,2.944-5.649,6.118,6.118,0,0,1,3.006-.939A5.21,5.21,0,0,1,20.5,45.28a4.186,4.186,0,0,1-1.434,3.483,4.36,4.36,0,0,1-2.723,1.191,1.15,1.15,0,0,1-.191-2.292,2.032,2.032,0,0,0,1.329-.567,1.15,1.15,0,0,1,.088-.079,1.881,1.881,0,0,0,.635-1.6V45.4a2.91,2.91,0,0,0-3.067-2.777,3.765,3.765,0,0,0-1.886.582l-.026.016a3.892,3.892,0,0,0-1.856,3.562v.009a5.246,5.246,0,0,0,5.518,4.982A6.674,6.674,0,0,0,20.8,50.259l.017-.013a6.8,6.8,0,0,0,2.556-5.674,8.865,8.865,0,0,0-9.317-8.4A11.389,11.389,0,0,0,3.318,48.142a14.34,14.34,0,0,0,1.044,4.7A14.526,14.526,0,0,0,6.8,56.831a1.15,1.15,0,0,1-.872,1.9Z" transform="translate(17381.875 -7579.33)" fill="#fff"/>
    </g>
  </g>
</svg>
