<svg xmlns="http://www.w3.org/2000/svg" xmlns:xlink="http://www.w3.org/1999/xlink" width="184.947" height="59.417" viewBox="0 0 184.947 59.417">
  <defs>
    <clipPath id="clip-path">
      <rect id="長方形_7948" data-name="長方形 7948" width="184.947" height="59.417" fill="none"/>
    </clipPath>
  </defs>
  <g id="グループ_23660" data-name="グループ 23660" transform="translate(0 0)">
    <g id="グループ_23659" data-name="グループ 23659" transform="translate(0 0)" clip-path="url(#clip-path)">
      <path id="パス_108412" data-name="パス 108412" d="M23.737,58.877a44.773,44.773,0,0,1-2.878-4.557l.42-.479a24.848,24.848,0,0,1-1.559-3.656C19.3,48.926,19,47.668,18.7,46.408l-1.679-.659-.659-1.678-.719.479-1.439,1.977-1.8,1.258-.539.96c-1.318,1.139-2.7,2.217-4.2,3.357a9.743,9.743,0,0,1-5.335,1.738l-2.1.479L0,51.444,7.373,45.45c1.378-1.679,2.7-3.357,4.076-5.155a35.72,35.72,0,0,0,3.417-5.455,6.478,6.478,0,0,0-2.159-4.675,6.23,6.23,0,0,1-3.656-2.039l-.36-1.317.54-.96a6.6,6.6,0,0,1,4.136-1.379l1.5.12a13.817,13.817,0,0,0,5.694-1.139l.719-.659,1.139.359.96.42c3.357-.6,6.713-1.139,9.95-1.679s6.414-1.258,9.651-2.1l1.2-.9c0-.419.3-.539.779-.479a3.638,3.638,0,0,0,.779-1.858L44.6,16.079,44,16.2l-1.5-.24-.54.121-1.318-.3-2.158.3-1.5-.121-2.7,1.019a35.9,35.9,0,0,0-6.953,1.918,32.451,32.451,0,0,1-6.954,2.218,1.777,1.777,0,0,1-2.277,1.02l-3.058-.9a4.13,4.13,0,0,1-2.637.9c-.719-1.559-1.558-3.118-2.4-4.676l.839-.9.6-.96,2.038-.839.3-1.319a4.519,4.519,0,0,0-1.379-2.7l-.539-.3c-.18-1.2-.419-2.278-.659-3.357l.659-.9a39.3,39.3,0,0,1,4.856,1.438,9.491,9.491,0,0,1,4.017,2.817,2.639,2.639,0,0,1,.539,2.338l-.539.839H22.3l6.894-1.258.12-3.836-.66-1.319L26.074,4.749a8.694,8.694,0,0,1-.721-3.97C26.672.539,27.991.3,29.309,0a37.844,37.844,0,0,1,5.155,1.2l1.2-.06,3,4.329.12.84L36.624,8.526l-.6,2.816,6.234.061a7.193,7.193,0,0,1,2.4-.66l.78.12a19.366,19.366,0,0,0,.6-5.634l-.3-1.139.121-1.978-.54-.779,1.139-.12.539.12a52.026,52.026,0,0,1,6.534,1.978,16.76,16.76,0,0,1,2.337,3.6,4.035,4.035,0,0,0-1.2,1.619L53.289,9.664A6.646,6.646,0,0,0,52.27,12.9l.12,2.1c-.539,1.26-.959,2.578-1.438,3.777l.6.12,1.259-.36.48.779,1.258.6a2.273,2.273,0,0,1,.6,2.218l-.3.538.12.54-.419.659-.719.24-.3.659a8.235,8.235,0,0,1-5.935,2.339l-.779-.181-3.836.539-.72-.12c-1.378.241-15.465,3.3-15.465,3.3l-3.057,3.177-.36,1.738,2.157-.479.539.479.181.48h1.678c3.057-.3,6.115-.54,9.112-.84,3.057-.3,6.114-.6,9.111-1.02l.3.6,2.158,1.259.539.839L52.389,38.5l.12.9.12,1.2,1.379,1.618-.9,1.439-1.019.3-.3.72-.659.419s-4.436,9.351-5.4,10.67l-.779.54-.12.719-.6.06-.539.479-1.739-.9-.6-.779-3.776-.121-5.335.54L30.99,55.88c-.779.538-4.435,2.277-4.435,2.277a1.434,1.434,0,0,1-1.5,1.259ZM39.082,50a4.432,4.432,0,0,1,.72-2.218,10.532,10.532,0,0,0,1.5-2.037l.479-2.338-.24-.779a73.083,73.083,0,0,0-8.092.479c-1.438.36-2.757.78-4.016,1.2s-2.578.96-3.777,1.439c.6,1.738,1.2,3.237,1.858,4.676l2.4.18Z" transform="translate(0 0)" fill="#1a1311"/>
      <path id="パス_108413" data-name="パス 108413" d="M184.747,59.486a5.889,5.889,0,0,1-2.3-1.063,23.285,23.285,0,0,1-2.657-4.369,18.954,18.954,0,0,1-1.472-4.237.779.779,0,0,1,.354-.839l1.059-.652a36.585,36.585,0,0,0,6.437,1.95,22.034,22.034,0,0,0,3.07-4.547,22.809,22.809,0,0,0,1.949-4.961h-.709c-1.358.237-2.6.414-3.957.591a9.318,9.318,0,0,0-3.6,1.24,26.776,26.776,0,0,1-4.842,5.432,30.977,30.977,0,0,1-3.6,3.9,19.629,19.629,0,0,1-3.78,3.543,13.821,13.821,0,0,1-6.2,2.421h-1.358l-3.13-1.241V54.585c2.008-1,4.016-2.126,5.905-3.248A31.834,31.834,0,0,0,171.4,47.2l4.546-4.6a17.454,17.454,0,0,0,1.89-3.6c.472-1.3.945-2.6,1.3-3.957-2.3.531-4.605,1.123-6.849,1.713-2.244.531-4.429,1.122-6.554,1.713l-1.713-.3c-.65,2.008-1.358,4.074-2.126,6.141A59.9,59.9,0,0,1,155.872,55a9.768,9.768,0,0,1-3.72,1.535,2.969,2.969,0,0,1-1.654-.945l-.235-1.89c1.121-1,2.125-2.067,3.129-3.13.886-1.062,1.713-2.067,2.48-3.129l1.3-2.185.472-.886A57.572,57.572,0,0,0,160.832,33.8,60.958,60.958,0,0,0,161.9,22.286a19.756,19.756,0,0,1-1.181-4.37,11.743,11.743,0,0,1,.945-2.3l1-.885c6.082-.472,12.164-.768,18.246-.945,1.417-.237,2.894-.414,4.487-.591,1.535-.176,3.071-.235,4.606-.3l1,.06a1.809,1.809,0,0,1,1.948-.768l1-.059a4.726,4.726,0,0,1,2.717.767l.472.532,1.594,1,.768,2.185-1.122,2.42-1.594.709-1.063,2.539c-1.122,1-2.185,2.007-3.071,2.952a61.481,61.481,0,0,0-6.377.886,12.227,12.227,0,0,1-.413,3.484l.472.117a35.274,35.274,0,0,1,4.252-.294l4.251-.178a25.118,25.118,0,0,1,3.9-.59l.709.118,1.121-.118A3.7,3.7,0,0,1,204,30.08a3.533,3.533,0,0,1,.709,2.479l-1.772,1.949a28.341,28.341,0,0,0-11.4-.945,24.553,24.553,0,0,0-5.2.532l.354,1.416,1,.886h1.772a14.038,14.038,0,0,0,4.369-.886,8.036,8.036,0,0,1,3.72.886l2.632,2.987a.742.742,0,0,1-.006.989l-2.862,3.169L196.143,44.9c-.768,1.594-1.594,3.13-2.48,4.724a42.567,42.567,0,0,1-2.657,4.606l-1,1-.413.769a15.649,15.649,0,0,1-3.839,3.483ZM160.242,9.059a2.575,2.575,0,0,1-.65-2.3l.886-1.771,3.189-.177A18.492,18.492,0,0,0,169.1,5.4a68.61,68.61,0,0,1,15.176-.118c1.89-.354,3.72-.65,5.491-1.064a19.568,19.568,0,0,1,5.609-.294l.768.118,1-.118L199.1,5.1a3.585,3.585,0,0,1,.886,2.6L199.1,9.413l-1.831.827a103.318,103.318,0,0,0-13.523,0A46.8,46.8,0,0,0,174.59,11.3a78.325,78.325,0,0,1-9.093,1.359Zm19.014,19.6-1.181-1.713-1.3-.118a19.639,19.639,0,0,0-4.842,1c-1.535.531-3.13,1.122-4.783,1.654a3.181,3.181,0,0,0-1.064,2.421h1.3L174,31.2c2.3-.236,4.487-.591,6.613-1ZM190,17.148l-.531-.058-.827.058-.472-.058c-3.189.59-6.436,1.18-9.743,1.594a45.89,45.89,0,0,0-9.625,2.3l-.177,1.3.3,1,.65.119a24,24,0,0,1,4.193-.887,35.805,35.805,0,0,1,4.428-.235l1.713-.3,1.122.3c1.3-.237,2.657-.414,4.074-.709,1.358-.236,2.717-.413,4.016-.591.354-1.358.65-2.6.886-3.839" transform="translate(-19.767 -0.505)" fill="#1a1311"/>
      <path id="パス_108414" data-name="パス 108414" d="M73.659,50.956l-.236-1.535,2.184-2.48q2.57-1.506,4.961-3.011a31.938,31.938,0,0,0,4.665-3.6l.117-.59A9.494,9.494,0,0,1,85,36.488c.177-1.772.3-3.661.413-5.432s.178-3.6.178-5.491l-.355-.709-1.713,1.3-2.066.058a6.1,6.1,0,0,1-4.724-1.475,3.939,3.939,0,0,1-1.358-2.894,10.391,10.391,0,0,1,1.83-2.48,1.769,1.769,0,0,1,1.594-.59,6.05,6.05,0,0,0,3.189.885l3.72-.767.237-2.539c-.237-1.476-.531-3.07-.887-4.664-.412-1.594-.826-3.189-1.121-4.724a7.584,7.584,0,0,1,2.008-2.834h.768c1.3.413,2.657.885,3.956,1.239a8.943,8.943,0,0,1,3.484,2.185,3.387,3.387,0,0,1,.708,2.894l-.354.885-1.357,1.122a25.624,25.624,0,0,0-.71,4.015,1.3,1.3,0,0,0,1.3.828l1.831-.236a3.461,3.461,0,0,1,1.949.591c1-1.654,1.948-3.248,2.835-4.961a14.861,14.861,0,0,0,1.711-5.255l-2.3-3.661.413-.885,1.3-.945.118-.827,2.48.472,1.3,1.18a13.025,13.025,0,0,1,3.661,1.772,5.2,5.2,0,0,1,1.063,2.539l-.118,1.3a8.817,8.817,0,0,0,3.957.413,24.539,24.539,0,0,1,5.2-.532,16.955,16.955,0,0,0,4.9-.708,6.045,6.045,0,0,1,3.72,1.122,2.774,2.774,0,0,1,.65,2.657l-1.654,1.654h-.885a35.875,35.875,0,0,1-4.488-.531l-1.654.3-1.18-.3a20.144,20.144,0,0,0-3.839.472c-1.357.3-2.656.65-4.074.945a15.49,15.49,0,0,1-4.251.65l-1.123-.65L102.3,17.3a9.462,9.462,0,0,0,4.842,1.594c1.83-.413,3.661-.768,5.551-1.063a36.833,36.833,0,0,1,5.727-.354l1.123.413.826-.235.237-.591.353-.591a37.963,37.963,0,0,1,6.791,3.189l1,1.89a2.429,2.429,0,0,1-.945,1.831,12.547,12.547,0,0,0-2.953,1.476,20.76,20.76,0,0,1-3.483,6.023,2.956,2.956,0,0,1-2.362.472,7.007,7.007,0,0,0-3.9-.472,9.553,9.553,0,0,0-3.661.886,16.263,16.263,0,0,1-3.779,1.062l-.708-.058-1.123.531-1.535-1.712c-.294-1.3-.59-2.539-.826-3.838a14.707,14.707,0,0,0-1.3-3.6l-.885-.768a12.827,12.827,0,0,1-1.3-4.016l-1.122.236-.708,2.48c-2.008.472-4.016,1.063-5.964,1.654a24.869,24.869,0,0,0-1.064,5.314c-.177,1.89-.472,3.661-.826,5.492l1,.118,4.252-3.189.531.3.237,1.417c-1.182,1.889-2.362,3.839-3.661,5.727a20.74,20.74,0,0,0-2.48,2.6,15.687,15.687,0,0,1-2.6,2.657l-1.476,1.654-1.24.768a10.368,10.368,0,0,1-3.424,3.72,2.616,2.616,0,0,1-1.181,1.713,2.862,2.862,0,0,1-2.008.768,9.064,9.064,0,0,1-4.606-1.831m14.88,5.255-.413-1.476.887-.3a2.31,2.31,0,0,0,.531-1.535,4.283,4.283,0,0,1,2.185-.355l1.064.237a28.391,28.391,0,0,1,4.545-1.181l.119-1a25.346,25.346,0,0,0-.945-7.086c-.65-2.244-1.3-4.488-1.89-6.672l.826-.886.532-.354.117-.887.945.119.414.65,1.416.649,1-.531a13.855,13.855,0,0,0,5.256.768q3.9-.8,7.794-1.24c2.6-.3,5.2-.531,7.794-.945l1.358.65.472-.65.591-.3.413-.945h.827a44.941,44.941,0,0,1,5.2,3.13l.413.885.591.945a1.35,1.35,0,0,0-.591,1.654l-2.067,1.181-.767,3.012a11.494,11.494,0,0,1-.178,3.779l.413,1.772a12.74,12.74,0,0,1,5.9,2.657l.591,1.712-.472.768-2.954,1.535c-1.416-.413-2.952-.768-4.369-1.063a15.635,15.635,0,0,0-4.724-.177c-3.78.177-7.558.177-11.4.119-1.89.3-3.78.708-5.55,1.121-1.83.413-3.661.769-5.433,1.063l-1-.118a30.833,30.833,0,0,1-6.259.591,3,3,0,0,1-3.189-1.3M104.9,51.192l.591-.591-.118-1a5.622,5.622,0,0,0,.472-2.657,10.482,10.482,0,0,0-1.89-4.133l-1.89-.118a1.769,1.769,0,0,0-.766,1.476,23.525,23.525,0,0,1,.294,5.079,2.36,2.36,0,0,0-.413,1.831l.885.118.473-.118,1.3.118Zm13.522-24.978a31.833,31.833,0,0,0,1.123-6.436l-.65-.531a2.591,2.591,0,0,1-2.008.826,26.742,26.742,0,0,1-3.9.945,12.935,12.935,0,0,0-3.779,1.476,18.113,18.113,0,0,0-1,3.189l.354,1.83h.65a19.358,19.358,0,0,0,3.72-.472,21.049,21.049,0,0,1,3.956-.354h.531Zm-5.254,24.27a13.305,13.305,0,0,1-.472-2.6l.117-7.912-.354-1.949h-1.062l-.768.413-.118.945.591,1.831a16.871,16.871,0,0,0-1.418,2.717l.177.65-.3.885a5.748,5.748,0,0,1,.3,2.3l-.413,2.952,2.953.236Zm6.968-.413a14.629,14.629,0,0,0,.709-4.016c.059-1.475.177-2.835.354-4.192l-.237-1.122.3-1.476a4.232,4.232,0,0,0-.886-2.776l-1.18.118-1.122,2.067-.531.472-.118,1.181.118.65a20.189,20.189,0,0,0-.945,6.082l.119,1.24-.473,1.417.354.59.709.178Z" transform="translate(-9.659 -0.147)" fill="#1a1311"/>
    </g>
  </g>
</svg>
