<svg xmlns="http://www.w3.org/2000/svg" width="102.058" height="470.256" viewBox="0 0 102.058 470.256">
  <g id="グループ_23756" data-name="グループ 23756" transform="translate(-43.049 -2951.429)">
    <ellipse id="楕円形_519" data-name="楕円形 519" cx="16.879" cy="16.879" rx="16.879" ry="16.879" transform="matrix(1, -0.017, 0.017, 1, 98.461, 3112.615)" fill="#fff"/>
    <ellipse id="楕円形_525" data-name="楕円形 525" cx="16.587" cy="16.587" rx="16.587" ry="16.587" transform="matrix(1, -0.017, 0.017, 1, 91.562, 3292.516)" fill="#e81e23"/>
    <ellipse id="楕円形_520" data-name="楕円形 520" cx="12.759" cy="12.759" rx="12.759" ry="12.759" transform="translate(98.799 3392.489) rotate(9)" fill="#fff"/>
    <circle id="楕円形_522" data-name="楕円形 522" cx="4.5" cy="4.5" r="4.5" transform="translate(90 3187.219)" fill="#fff"/>
    <ellipse id="楕円形_524" data-name="楕円形 524" cx="6.33" cy="6.33" rx="6.33" ry="6.33" transform="matrix(1, -0.017, 0.017, 1, 132.229, 2951.65)" fill="#fff"/>
    <ellipse id="楕円形_523" data-name="楕円形 523" cx="12.659" cy="12.659" rx="12.659" ry="12.659" transform="matrix(1, -0.017, 0.017, 1, 117.127, 2973.016)" fill="#e81e23"/>
    <ellipse id="楕円形_521" data-name="楕円形 521" cx="31.898" cy="31.898" rx="31.898" ry="31.898" transform="translate(53.028 3298.955) rotate(9)" fill="#e81e23"/>
  </g>
</svg>
