<svg xmlns="http://www.w3.org/2000/svg" width="45.646" height="45.928" viewBox="0 0 45.646 45.928">
  <g id="グループ_23506" data-name="グループ 23506" transform="translate(-197.627 -3946.727)">
    <g id="グループ_23413" data-name="グループ 23413" transform="translate(197.627 3946.727)">
      <ellipse id="楕円形_183" data-name="楕円形 183" cx="20.108" cy="20.108" rx="20.108" ry="20.108" transform="translate(5.43 0)" fill="#f4ba1d"/>
      <path id="パス_1575" data-name="パス 1575" d="M0,.653,3.113,0l.011,4.249-2.6.284Z" transform="translate(19.427 45.928) rotate(-160)" fill="#f4ba1d"/>
      <path id="パス_1574" data-name="パス 1574" d="M0,.1,3.41,0l.011,4.249-2.6.284Z" transform="matrix(-0.848, -0.53, 0.53, -0.848, 12.846, 43.422)" fill="#f4ba1d"/>
      <path id="パス_1573" data-name="パス 1573" d="M0,0,2.959,1.073l-.646,3.42-2.2-.562Z" transform="matrix(-0.848, -0.53, 0.53, -0.848, 7.111, 38.689)" fill="#f4ba1d"/>
      <path id="パス_1572" data-name="パス 1572" d="M.468,0,2.6,1.61,1.477,3.849,0,3.1Z" transform="matrix(-0.848, -0.53, 0.53, -0.848, 3.647, 32.652)" fill="#f4ba1d"/>
      <path id="パス_1571" data-name="パス 1571" d="M1.066,0,2.383,1.79,1.449,3.446,0,2.034Z" transform="matrix(-0.848, -0.53, 0.53, -0.848, 2.021, 26.258)" fill="#f4ba1d"/>
      <path id="パス_1576" data-name="パス 1576" d="M.368,0,3.5.183l-1.3,3.55L0,3.5Z" transform="matrix(-0.995, 0.105, -0.105, -0.995, 27.1, 45.342)" fill="#f4ba1d"/>
    </g>
    <path id="パス_108466" data-name="パス 108466" d="M6.405-3.3,9.177-5.859c2.1-1.932,2.5-3.234,2.5-4.662,0-2.73-2.331-4.473-5.712-4.473a6.738,6.738,0,0,0-6.09,3.066l3.087,1.722a3,3,0,0,1,2.625-1.428c1.26,0,1.89.567,1.89,1.512,0,.609-.168,1.281-1.344,2.373L.63-2.6V0H12.075V-3.3Z" transform="translate(216.627 3973.907)" fill="#3c3636"/>
  </g>
</svg>
