<svg xmlns="http://www.w3.org/2000/svg" width="184.95" height="59.6" viewBox="0 0 184.95 59.6">
  <g id="グループ_23661" data-name="グループ 23661" transform="translate(-7197.243 486.189)">
    <path id="パス_108415" data-name="パス 108415" d="M24.052,59.059a45.14,45.14,0,0,1-2.886-4.57l.422-.482a25.018,25.018,0,0,1-1.564-3.667C19.6,49.077,19.3,47.815,19,46.552l-1.685-.661-.661-1.683-.721.481-1.443,1.984-1.8,1.262-.542.963c-1.322,1.142-2.7,2.224-4.208,3.367a9.774,9.774,0,0,1-5.351,1.743l-2.1.482L.243,51.6l7.4-6.013c1.382-1.684,2.707-3.367,4.088-5.171a35.83,35.83,0,0,0,3.428-5.472,6.5,6.5,0,0,0-2.166-4.689,6.252,6.252,0,0,1-3.667-2.045L8.96,26.891l.541-.963a6.629,6.629,0,0,1,4.149-1.383l1.5.12a13.86,13.86,0,0,0,5.712-1.142l.721-.661,1.142.36.963.422c3.367-.6,6.734-1.142,9.981-1.684s6.433-1.262,9.681-2.1l1.2-.9c0-.421.3-.541.781-.481a3.658,3.658,0,0,0,.782-1.863l-1.143-.481-.6.119-1.5-.24-.542.121-1.322-.3-2.165.3-1.5-.121-2.707,1.022a36.032,36.032,0,0,0-6.974,1.924,32.551,32.551,0,0,1-6.975,2.225A1.783,1.783,0,0,1,18.4,22.2l-3.067-.9a4.142,4.142,0,0,1-2.645.9c-.722-1.564-1.563-3.127-2.4-4.69l.842-.9.6-.963,2.045-.842.3-1.323a4.537,4.537,0,0,0-1.382-2.706l-.542-.3c-.18-1.2-.421-2.285-.661-3.367l.661-.9a39.378,39.378,0,0,1,4.871,1.443,9.515,9.515,0,0,1,4.029,2.826,2.647,2.647,0,0,1,.541,2.345l-.541.842H22.61L29.525,12.4l.12-3.848-.662-1.323L26.4,4.764A8.726,8.726,0,0,1,25.674.781C27,.541,28.32.3,29.642,0a37.961,37.961,0,0,1,5.171,1.2l1.2-.06,3.009,4.343.12.842L36.98,8.552l-.6,2.825,6.254.061a7.2,7.2,0,0,1,2.4-.662l.782.12a19.426,19.426,0,0,0,.6-5.651L46.12,4.1l.12-1.984L45.7,1.336l1.143-.12.541.12a52.186,52.186,0,0,1,6.554,1.984,16.812,16.812,0,0,1,2.344,3.607,4.048,4.048,0,0,0-1.2,1.624L53.7,9.694a6.666,6.666,0,0,0-1.023,3.248l.12,2.1c-.541,1.264-.962,2.586-1.443,3.789l.6.12,1.262-.361.482.781,1.262.6a2.28,2.28,0,0,1,.6,2.225l-.3.54.12.542-.421.661-.721.24-.3.661a8.26,8.26,0,0,1-5.953,2.346l-.781-.181-3.848.541-.721-.12c-1.383.241-15.513,3.308-15.513,3.308l-3.067,3.187-.36,1.743,2.164-.481.541.481.181.482h1.683c3.066-.3,6.134-.542,9.14-.842,3.066-.3,6.133-.6,9.139-1.023l.3.6,2.165,1.263.541.842,3.247,1.623.12.9.12,1.2,1.383,1.623-.9,1.443-1.022.3-.3.722-.661.42s-4.45,9.38-5.412,10.7l-.782.542-.12.721-.6.06-.541.481-1.744-.9-.6-.781-3.788-.121-5.351.542-1.263-.421c-.781.54-4.449,2.284-4.449,2.284a1.438,1.438,0,0,1-1.5,1.263Zm15.393-8.9a4.438,4.438,0,0,1,.722-2.225,10.564,10.564,0,0,0,1.5-2.044l.481-2.345-.24-.781a73.309,73.309,0,0,0-8.117.481c-1.443.361-2.766.782-4.028,1.2s-2.586.963-3.789,1.443c.6,1.743,1.2,3.247,1.864,4.69l2.405.18Z" transform="translate(7197 -486.189)" fill="#1a1311"/>
    <path id="パス_108416" data-name="パス 108416" d="M80.286,56.964a2.9,2.9,0,0,1-.754-2.09L80,54l-.173-.523c1.51-.232,3.019-.464,4.412-.754a36.586,36.586,0,0,1,4.411-.581v-.638c-.348-1.8-.754-3.6-1.161-5.457a44.062,44.062,0,0,1-.928-5.631l.29-1.8h.579l1.685.29a19.651,19.651,0,0,1,5.572-.987,34.816,34.816,0,0,1-2.09-5.573l1.684-1.1.116-.754.87-.058.813.058.408-1.045-.291-5.456-1.22-.174a1.821,1.821,0,0,0-.871,1.509,3.768,3.768,0,0,1,.871,2.728l-2.09,2.728a7.021,7.021,0,0,1-4.643,1.858l-.987-1.22a27.222,27.222,0,0,0,1.683-5.341l-.522-.754h-.988l-1.044.639-.463,2.09.115,1.509c-.405,1.335-.754,2.613-1.044,3.89-.349,1.277-.7,2.554-1.1,3.831l.116.639a2.88,2.88,0,0,1-1.1,2.322,3.239,3.239,0,0,1-2.786.639L79.3,40.42l-.176-.871a12.654,12.654,0,0,0,2.788-5.572c.405-1.974.754-4.122.986-6.211l-1.393-.174a9.312,9.312,0,0,1-3.889,1.451l-1.8-.987a4.455,4.455,0,0,1-.986-2.438l.522-.464V24.4l.928-.174.291-.871A23.477,23.477,0,0,0,82.9,21.728l.349-2.9a10,10,0,0,0-1.335-5.515l.464-1.1,1.161-.7L83.769,10,93.521.077h.755a8.9,8.9,0,0,1,5.341,2.67,3.361,3.361,0,0,1,.7,2.09,3.6,3.6,0,0,1-1.161,2.147,26.711,26.711,0,0,0-6.27,2.207c-1.973.986-4.006,1.916-6.036,2.786l-.116.929a6.005,6.005,0,0,1,1.393,4.3,7.532,7.532,0,0,0-.7,3.193h.7l1.973-.407a15.077,15.077,0,0,1-1.335-3.83,1.524,1.524,0,0,0,.87-1.684l1.684-.116a3.973,3.973,0,0,1-.813-2.148l.7-.986A4.694,4.694,0,0,1,95.438,10l.754.117c1.335-.407,2.613-.814,3.946-1.278a3.164,3.164,0,0,1,2.264,1.278,6.554,6.554,0,0,1,.581,2.96A3.775,3.775,0,0,0,102,16.04a21.753,21.753,0,0,0,3.308-2.147,8.628,8.628,0,0,0,.639-5.051v-.87l-.29-.522a6.19,6.19,0,0,1-.813-2.264l.58-1.161a2.061,2.061,0,0,1,2.089-.58,2.327,2.327,0,0,1,1.683.7l.987,1.335c1.916-.174,3.832-.348,5.747-.464l.7-.407.813-.928,2.553-.233a1.585,1.585,0,0,1,1.393.7,11.117,11.117,0,0,1,.523,3.424,14.052,14.052,0,0,0-1.8,3.309,30.68,30.68,0,0,0-1.1,3.773l1.219.116,2.5-.29.581.174,1.046-.29a10.9,10.9,0,0,1,1.741-4.121,3.035,3.035,0,0,1,1.973-.7,24.086,24.086,0,0,1,1.684,3.193c.463,1.044.871,2.206,1.277,3.309l-.871,1.8a86.393,86.393,0,0,1-8.65.464,6.2,6.2,0,0,1,1.684,4.528,37.227,37.227,0,0,1-3.773,5.514l-.407.407a9.6,9.6,0,0,0-1.974,1.741l-.115.754a20.829,20.829,0,0,0,6.616,2.786,45.28,45.28,0,0,1,6.909,2.031l.289,1.22a5.415,5.415,0,0,1-2.9,1.509L124,39.317l-.522-.174-.756,1.567a41.447,41.447,0,0,0-1.683,4.587c-.405,1.45-.87,2.96-1.335,4.353a32.36,32.36,0,0,0,6.269.117,13.709,13.709,0,0,1,3.715,1.1,32.371,32.371,0,0,0,3.309,1.277l.7,2.555-.87,1.45a2.2,2.2,0,0,1-1.625.7,10.153,10.153,0,0,0-5.225-.813q-10.621-.261-21.245,0a51.437,51.437,0,0,0-9.521.87c-3.134.639-6.327,1.219-9.461,1.8a8.305,8.305,0,0,1-5.457-1.741m15.5-5.746a3.016,3.016,0,0,0,.29-1.568V44.483l-.29-1.044-3.076,1.044-.523,7.025,1.335.057Zm.988-36.571-.581-.754c-.812.406-1.22.87-1.22,1.451l.58,2.5c.059.639.349.929.93.755a14.592,14.592,0,0,0,.29-3.948m7.43,35.526a16.292,16.292,0,0,0,.522-4.238,20.857,20.857,0,0,1,.465-4.353l-.348-.7c-1.8.174-3.251.348-4.527.523a10.818,10.818,0,0,1,.754,3.541,27.966,27.966,0,0,1-.059,5.4l.988.29.813-.174h.348Zm-1.045-16.079a29.245,29.245,0,0,0,5.863-3.309l-.986-1.335a20.15,20.15,0,0,1-3.483-2.147,2.947,2.947,0,0,1-.755-2.148,2.492,2.492,0,0,1-.813-2.206l.639-1.1a17.841,17.841,0,0,1,6.269-1.858c2.206-.29,4.471-.522,6.735-.812l-.7-.871a6.056,6.056,0,0,1-.87-4.063,57.291,57.291,0,0,0,.7-6.5l-.58-.175a36.851,36.851,0,0,0-4.354,3.251c-.29,1.568-.522,3.019-.7,4.411a7.716,7.716,0,0,1-2.089,3.948,13.982,13.982,0,0,1-3.309,1.741c-1.22.406-2.38.871-3.656,1.335a24.364,24.364,0,0,0-.464,5.165,31.289,31.289,0,0,0,.464,5.806v1.566h.639Zm9.752,15.789a36.517,36.517,0,0,0,1.626-4.644,20.375,20.375,0,0,0,.754-5.05,5.858,5.858,0,0,1-.928-2.264l.638-.639-.348-.465,2.9-.29c-.986-.58-1.974-1.1-2.9-1.625l-.7-.639H113.2c-1.278.7-2.556,1.451-3.831,2.09.929.639,3.182.328,4.343.618l-1.152,1.82-1.858.929c-.405,1.741-.7,3.425-.986,5.167a39.893,39.893,0,0,1-1.393,5.167h2.264l.523-.174.87.29.754-.29Zm1.451-24.555a9.089,9.089,0,0,0,2.089-4.063l-.523-.174-1.1.464-.87-.117c-.988.464-1.8.93-2.672,1.394l-2.263,1.219,3.134,3.541.58-.175Z" transform="translate(7187.389 -486.199)" fill="#1a1311"/>
    <path id="パス_108417" data-name="パス 108417" d="M184.443,58.658a5.907,5.907,0,0,1-2.31-1.066,23.357,23.357,0,0,1-2.666-4.383,19.012,19.012,0,0,1-1.477-4.25.782.782,0,0,1,.355-.842l1.062-.654a36.7,36.7,0,0,0,6.457,1.956,22.1,22.1,0,0,0,3.079-4.561,22.879,22.879,0,0,0,1.955-4.976h-.711c-1.362.238-2.606.416-3.969.593a9.347,9.347,0,0,0-3.613,1.244,26.859,26.859,0,0,1-4.857,5.449,31.073,31.073,0,0,1-3.613,3.909,19.689,19.689,0,0,1-3.791,3.554,13.864,13.864,0,0,1-6.219,2.429h-1.362l-3.14-1.245V53.742c2.014-1.007,4.028-2.133,5.924-3.258a31.9,31.9,0,0,0,5.508-4.147l4.56-4.619a17.507,17.507,0,0,0,1.9-3.613c.474-1.3.948-2.606,1.3-3.969-2.31.533-4.62,1.126-6.871,1.718-2.251.533-4.443,1.126-6.574,1.718l-1.718-.3c-.652,2.014-1.362,4.087-2.133,6.16a60.091,60.091,0,0,1-6.041,10.721,9.8,9.8,0,0,1-3.731,1.54,2.978,2.978,0,0,1-1.66-.948l-.236-1.9c1.125-1.006,2.132-2.073,3.139-3.14.889-1.065,1.718-2.073,2.488-3.139l1.3-2.192.474-.889a57.751,57.751,0,0,0,3.2-10.6,61.146,61.146,0,0,0,1.066-11.55,19.817,19.817,0,0,1-1.185-4.384,11.78,11.78,0,0,1,.948-2.31l1.007-.888c6.1-.474,12.2-.77,18.3-.948,1.422-.238,2.9-.416,4.5-.593,1.54-.177,3.08-.236,4.621-.3l1.007.06a1.814,1.814,0,0,1,1.954-.77l1.007-.059a4.74,4.74,0,0,1,2.725.769l.474.534,1.6,1.007.77,2.192-1.126,2.428-1.6.711-1.066,2.547c-1.126,1.006-2.191,2.013-3.079,2.961a61.655,61.655,0,0,0-6.4.889,12.265,12.265,0,0,1-.415,3.5l.474.118a35.383,35.383,0,0,1,4.265-.3l4.264-.179a25.2,25.2,0,0,1,3.91-.592l.711.118,1.125-.118a3.713,3.713,0,0,1,3.436,1.422,3.544,3.544,0,0,1,.711,2.487L202.686,33.6a28.429,28.429,0,0,0-11.431-.948,24.629,24.629,0,0,0-5.213.534l.355,1.421,1.007.889h1.777a14.081,14.081,0,0,0,4.383-.889,8.061,8.061,0,0,1,3.732.889l2.64,3a.745.745,0,0,1-.005.992l-2.872,3.179-1.185,1.362c-.77,1.6-1.6,3.14-2.488,4.738a42.7,42.7,0,0,1-2.665,4.621l-1.007,1.006-.415.771a15.709,15.709,0,0,1-3.85,3.494ZM159.861,8.076a2.583,2.583,0,0,1-.652-2.311l.889-1.776,3.2-.178a18.549,18.549,0,0,0,5.449.592,68.822,68.822,0,0,1,15.223-.118c1.9-.355,3.731-.652,5.508-1.067a19.629,19.629,0,0,1,5.627-.3l.77.118,1.007-.118,1.955,1.185a3.6,3.6,0,0,1,.889,2.606l-.889,1.718L197,9.259a103.637,103.637,0,0,0-13.565,0,46.949,46.949,0,0,0-9.181,1.065,78.568,78.568,0,0,1-9.121,1.363ZM178.934,27.74l-1.185-1.718-1.3-.118a19.7,19.7,0,0,0-4.857,1.007c-1.54.533-3.14,1.126-4.8,1.659A3.191,3.191,0,0,0,165.725,31h1.3l6.635-.711c2.31-.237,4.5-.592,6.634-1.008Zm10.78-11.55-.533-.058-.829.058-.474-.058c-3.2.592-6.456,1.184-9.773,1.6a46.032,46.032,0,0,0-9.655,2.31l-.178,1.3.3,1.006.652.119a24.076,24.076,0,0,1,4.206-.889,35.916,35.916,0,0,1,4.442-.236l1.718-.3,1.126.3c1.3-.238,2.666-.416,4.087-.711,1.362-.237,2.725-.415,4.028-.592.355-1.362.652-2.606.889-3.85" transform="translate(7177.721 -486.555)" fill="#1a1311"/>
  </g>
</svg>
