<svg xmlns="http://www.w3.org/2000/svg" width="184.95" height="57.077" viewBox="0 0 184.95 57.077">
  <g id="グループ_23663" data-name="グループ 23663" transform="translate(-7197 338.794)">
    <path id="パス_108421" data-name="パス 108421" d="M184.4,203.922a5.888,5.888,0,0,1-2.308-1.065,23.33,23.33,0,0,1-2.663-4.378,18.989,18.989,0,0,1-1.475-4.245.781.781,0,0,1,.355-.841l1.061-.653a36.584,36.584,0,0,0,6.45,1.953,22.077,22.077,0,0,0,3.076-4.556,22.852,22.852,0,0,0,1.953-4.97h-.71c-1.361.238-2.6.415-3.964.593A9.337,9.337,0,0,0,182.569,187a26.828,26.828,0,0,1-4.852,5.443,31.036,31.036,0,0,1-3.608,3.9,19.667,19.667,0,0,1-3.787,3.55,13.848,13.848,0,0,1-6.212,2.426h-1.361l-3.136-1.243v-2.07c2.012-1.006,4.024-2.13,5.917-3.254a31.862,31.862,0,0,0,5.5-4.142L175.587,187a17.486,17.486,0,0,0,1.893-3.609c.473-1.3.947-2.6,1.3-3.963-2.308.532-4.614,1.124-6.863,1.715-2.248.533-4.438,1.124-6.567,1.716l-1.716-.3c-.651,2.012-1.361,4.082-2.13,6.153a59.99,59.99,0,0,1-6.034,10.709,9.787,9.787,0,0,1-3.727,1.538,2.974,2.974,0,0,1-1.658-.947l-.236-1.893c1.123-1.005,2.129-2.071,3.135-3.136.888-1.064,1.716-2.07,2.485-3.135l1.3-2.189.473-.888a57.685,57.685,0,0,0,3.194-10.59,61.077,61.077,0,0,0,1.065-11.537,19.8,19.8,0,0,1-1.183-4.379,11.765,11.765,0,0,1,.947-2.308l1.006-.887c6.094-.473,12.188-.769,18.282-.947,1.42-.237,2.9-.415,4.5-.593,1.538-.177,3.077-.236,4.615-.295l1.006.059a1.812,1.812,0,0,1,1.952-.769l1.006-.059a4.729,4.729,0,0,1,2.722.769l.473.533,1.6,1.006.769,2.189L198.07,163.4l-1.6.71-1.065,2.544c-1.124,1.005-2.188,2.012-3.076,2.958a61.585,61.585,0,0,0-6.39.888,12.251,12.251,0,0,1-.414,3.491l.473.117a35.343,35.343,0,0,1,4.26-.295l4.259-.178a25.072,25.072,0,0,1,3.905-.592l.71.118,1.123-.118a3.708,3.708,0,0,1,3.432,1.42,3.54,3.54,0,0,1,.71,2.484l-1.775,1.953a28.4,28.4,0,0,0-11.418-.947,24.6,24.6,0,0,0-5.207.533l.355,1.419,1.006.888h1.775a14.065,14.065,0,0,0,4.378-.888,8.051,8.051,0,0,1,3.728.888l2.637,2.993a.743.743,0,0,1-.005.99l-2.869,3.176-1.183,1.36c-.769,1.6-1.6,3.136-2.485,4.733a42.656,42.656,0,0,1-2.662,4.615l-1.006,1.005-.414.77a15.691,15.691,0,0,1-3.845,3.49ZM159.85,153.4a2.58,2.58,0,0,1-.651-2.308l.888-1.774,3.2-.178a18.528,18.528,0,0,0,5.443.592,68.744,68.744,0,0,1,15.206-.118c1.893-.355,3.727-.651,5.5-1.066a19.606,19.606,0,0,1,5.62-.295l.769.118,1.006-.118,1.953,1.183a3.592,3.592,0,0,1,.888,2.6l-.888,1.716-1.834.828a103.522,103.522,0,0,0-13.549,0,46.827,46.827,0,0,0-9.17,1.065,78.661,78.661,0,0,1-9.11,1.361ZM178.9,173.039l-1.183-1.716-1.3-.118a19.679,19.679,0,0,0-4.852,1.006c-1.538.533-3.136,1.124-4.792,1.657a3.187,3.187,0,0,0-1.066,2.426h1.3l6.627-.71c2.308-.237,4.5-.592,6.626-1.007ZM189.669,161.5l-.533-.058-.828.058-.473-.058c-3.2.591-6.449,1.183-9.762,1.6a45.923,45.923,0,0,0-9.644,2.307l-.178,1.3.3,1.005.651.119a24.051,24.051,0,0,1,4.2-.888,35.876,35.876,0,0,1,4.437-.236l1.716-.3,1.124.3c1.3-.237,2.663-.415,4.082-.71,1.361-.237,2.722-.414,4.024-.592.355-1.361.651-2.6.888-3.846" transform="translate(7177.541 -486.29)" fill="#1a1311"/>
    <path id="パス_108422" data-name="パス 108422" d="M.593,199.96c-.178-.888-.414-1.716-.593-2.544a37.579,37.579,0,0,0,7.81-7.809,60.778,60.778,0,0,0,5.619-9.289h.593a60.793,60.793,0,0,1-2.427,9.051c-1.006,2.781-1.893,5.621-2.72,8.52l.177.711-.3.887-.472,1.538a5.824,5.824,0,0,1-3.374.769A23.631,23.631,0,0,1,.593,199.96M1.6,177.892.3,175.17A32.933,32.933,0,0,1,5.62,173.1c1.835-.532,3.669-1.006,5.562-1.478l1.42.828.828,1.005.118,2.071-.177,1.124-2.782,1.124a14.927,14.927,0,0,1-5.974,1.065,5.877,5.877,0,0,1-3.017-.947M7.336,161.03a8.308,8.308,0,0,1-3.313-3.669l-.473-.769-.592-.828a8.266,8.266,0,0,1,5.917-2.071l3.608.593a9.368,9.368,0,0,1,3.254,4.674l-1.184,2.071-3.372.413-1.007-.058-.767.236ZM46.681,204.1a11.431,11.431,0,0,0-2.6-1.184c-1.3-1.6-2.543-3.076-3.9-4.614-.473-1.42-1.006-2.782-1.6-4.2l.3-.828a8.347,8.347,0,0,1,3.491-.473l-2.781-.651a23.72,23.72,0,0,0-3.727.473c-1.183.3-2.425.592-3.669.828l-.651.651-1.479.355-.473-.118c-.709,1.716-1.36,3.549-1.952,5.384l-2.6,2.307a5.984,5.984,0,0,1-3.194.651,3.144,3.144,0,0,1-2.543-.888l-.237-1.716c1.064-.71,2.128-1.478,3.253-2.189a9.766,9.766,0,0,0,2.6-3.018,65.775,65.775,0,0,0,.947-13.606c-.591-2.189-1.183-4.379-1.953-6.509H23.31l-3.254.769-1.538-.355-.709.118-2.9-1.124-.118-.592.118-.592L13.9,170.91a8.065,8.065,0,0,1,2.07-1.774,24.128,24.128,0,0,1,5.5-.414,46.12,46.12,0,0,0,9.94-.473l1.775-.533L32.717,166l-.828-.355a31.43,31.43,0,0,0-5.561,2.071L22.6,166.355a4.286,4.286,0,0,1-.65-2.071,1.321,1.321,0,0,1-.888-1.538l.888-.413.65.118.652-.711,1.656.119c1.3-.059,2.663-.178,4.023-.355a20.044,20.044,0,0,0,3.905-.592l.118-.533-.355-1.42a14.36,14.36,0,0,0-4.555,1.006,11.958,11.958,0,0,1-4.5.827,6.427,6.427,0,0,1-2.959-1.36l-.355-.71.237-.651-.828-.828a5.07,5.07,0,0,0-.59-1.953l.237-.532c1.182-.178,2.425-.415,3.608-.711l6.212.356,3.609-.473.118-.829a31.5,31.5,0,0,1-1.3-4.91l1.657-.473,1.538.355.947-.118.593.118,1.3-.118,1.42.533.355,1.183a1.055,1.055,0,0,1,.473,1.243,1.735,1.735,0,0,0-.71,1.538,2.35,2.35,0,0,0,1.421.238c1.478-.178,2.958-.3,4.5-.415,1.6-.118,3.076-.177,4.674-.177l.947.592,1.539,1.36.3,1.835-.592,1.183a13.7,13.7,0,0,1-4.734.769,14.389,14.389,0,0,0-4.319-.592l-3.846.592-.237,1.183a72.055,72.055,0,0,1,8.756,0,17.639,17.639,0,0,0,2.664.888,3.821,3.821,0,0,1,.65,1.833l-.058.711-.948,1.36-.592.238-2.308-.238c-1.123.119-2.128.3-3.194.473l-2.781-.118-1.6.592-.592,1.6.355.591c4.083-.236,8.225-.591,12.189-1.064a13.342,13.342,0,0,1,5.264,1.361,12.569,12.569,0,0,1,1.065,2.426l-1.3,1.361c-5.739.177-11.419.177-16.98.118-1.479.295-2.958.591-4.378.828a17.1,17.1,0,0,0-4.2,1.243L30,172.981l-3.253.769a4.124,4.124,0,0,0,2.6,1.42c1.657-.354,3.432-.651,5.325-.947,1.774-.3,3.491-.473,5.206-.769l.3.828-.3,1.006h.533l.473-.888a3.233,3.233,0,0,1,1.124-1.065l1.716-1.006.768.119.77-.119,1.775.533a24.477,24.477,0,0,1,2.308,4.438,17.859,17.859,0,0,0-1.6,4.733c.415,6.509.651,13.016.828,19.524l-.354.71Zm-3.846-18.4-.237-1.361-2.07-.473a24.145,24.145,0,0,1-4.142,1.3c-1.42.355-2.958.709-4.378,1.006a2.236,2.236,0,0,0-.474,2.012,8.411,8.411,0,0,0,3.906.413,27.868,27.868,0,0,0,3.548-.591,25.006,25.006,0,0,1,3.609-.473,2.515,2.515,0,0,0,.237-1.834M32.3,180.85c1.6-.354,3.253-.651,5.028-.887,1.657-.238,3.314-.473,4.97-.769v-.888a2.831,2.831,0,0,0-.888-1.774l-.887-.119a13.114,13.114,0,0,1-4.32,1.3,8.738,8.738,0,0,0-4.2,1.658l-.238,1.36Z" transform="translate(7197 -486.231)" fill="#1a1311"/>
    <path id="パス_108423" data-name="パス 108423" d="M77.269,175.365a3.2,3.2,0,0,1-.769-2.188l.769-.769a20.384,20.384,0,0,1,4.083-2.309,10.345,10.345,0,0,1,4.378-.887,2.836,2.836,0,0,1,2.308.769,13.662,13.662,0,0,1,1.834,3.076,5.239,5.239,0,0,1-1.538,1.953,14.519,14.519,0,0,0-3.491,2.012A5.221,5.221,0,0,1,81,178.087a20.8,20.8,0,0,1-3.727-2.722m1.42,26.032a2.63,2.63,0,0,0-.828-1.6,1.379,1.379,0,0,1-.414-1.538l-.888-.888L76.5,195.9l.651-.238.118-.709a1.118,1.118,0,0,0,1.183-.651c1.775-2.248,3.49-4.615,5.148-7.041,1.064-1.242,2.129-2.543,3.135-3.9a62.329,62.329,0,0,1,3.431-5.5l.593-.118.71.414a11.718,11.718,0,0,1,.413,3.254,38.9,38.9,0,0,1-3.49,10.767A109.927,109.927,0,0,0,83.9,202.4l-1.124.592a4.386,4.386,0,0,1-1.893.237Zm12.9-38.338-.237-1.007.533-.828,1.183-.354-.71-.533a12.3,12.3,0,0,1-6.153,1.479A13.792,13.792,0,0,1,81,156.906l-1.005-2.543a4.639,4.639,0,0,1,.473-2.071l1.005-.118.651.118.947-.237,2.663.118a7.039,7.039,0,0,1,2.781-.355,6.067,6.067,0,0,1,4.851,2.13,20.473,20.473,0,0,1,1.6,2.958L93.835,159.1l-.651.769c1.183,0,2.426.059,3.609.117a30.691,30.691,0,0,1,4.674-.591c1.6-.06,3.136-.118,4.614-.3l.533.236,5.62-.887.71.118a10.311,10.311,0,0,0-3.491-4.083l-.533-.117-1.006-1.716-1.6-1.775-.118-1.42.533-1.3h.592v-.592l1.6-.118A11.58,11.58,0,0,1,113,147.8a9.422,9.422,0,0,1,3.313,1.952,3.113,3.113,0,0,1,1.183,2.426l-.119,1.005.3,3.728-.3.769.828.355a15.922,15.922,0,0,0,3.846-.473c1.183-.295,2.367-.592,3.669-.888l.533-.3,4.614.769L133,158.977l.533,1.538-.947,2.129-3.372.533a10.217,10.217,0,0,0-4.674-.533l-2.9.177-4.141-.413a81.35,81.35,0,0,0-10.117,1.479c-3.373.769-6.627,1.6-9.88,2.425a27.373,27.373,0,0,1-5.917-3.253m.769,36.03-.178-.71a10.869,10.869,0,0,0,2.13-4.2,31.8,31.8,0,0,0,.888-4.733l-.237-.888.71-.591.3-.829.828-.236-.414-.533h.947l.769.768.828.238c1.124.532,2.308,1.065,3.432,1.656a6.274,6.274,0,0,1,.888,2.485,18.64,18.64,0,0,1-3.136,5.384,9.125,9.125,0,0,1-6.153,3.2Zm19.879,5.384a33.229,33.229,0,0,1-3.313-1.478,17.374,17.374,0,0,1-2.958-2.012l-.769-1.183-1.124-.887-.355-1.184a6.826,6.826,0,0,1,5.206-2.071l.3-5.738-.888-6.331c-1.833.355-3.549.651-5.088.828a2.634,2.634,0,0,1-1.716-1.953l.414-.828-.414-.828.237-.887a30.052,30.052,0,0,0-2.248-4.852l-2.6-4.555.414-.888h1.183l.711-.533,2.129.118a42.024,42.024,0,0,1,6.981-1.183l.71.118,3.018-.473.592.118,5.739-.473a7.21,7.21,0,0,0,2.84.355c.769-.414,1.6-.828,2.308-1.243.888.3,1.656.592,2.425.888a3.271,3.271,0,0,1,3.018,1.657l.414,2.308-2.426,2.425c-.592,1.243-1.065,2.485-1.538,3.669a18.851,18.851,0,0,1-2.011,3.669,8.6,8.6,0,0,1-2.9,1.3,2.263,2.263,0,0,0-2.308-.593l-.828.119-1.715,1.36a17.894,17.894,0,0,0-.593,4.734l.119.709-.355,1.479v7.1a13.047,13.047,0,0,1,.355,4.379,2.044,2.044,0,0,1-1.3,1.6l-.237.947Zm7.4-29.463a32.522,32.522,0,0,0,1.361-5.5l-.592.473a69.007,69.007,0,0,1-6.981,2.307c-2.426.651-4.852,1.3-7.218,1.835v1.242l.237.888-.118.71.414,1.124,1.183.059c1.657-.3,3.314-.473,5.089-.651,1.657-.178,3.373-.355,5.148-.652a5.073,5.073,0,0,0,1.478-1.833m8.638,26.505a3.417,3.417,0,0,1-2.011-.828,25.179,25.179,0,0,1-2.485-2.544,32.061,32.061,0,0,0-2.248-5.265c-.828-1.715-1.716-3.431-2.6-5.148l.592-.354.3-1.006h1.006l-.3-.533a14.174,14.174,0,0,1,4.734,2.959c.591.413,1.064.828,1.6,1.243l1.657,1.478a6.717,6.717,0,0,1,2.367,1.361,10.565,10.565,0,0,1,1.42,4.023c-.533,1.3-1.125,2.486-1.716,3.669Z" transform="translate(7187.066 -486.189)" fill="#1a1311"/>
  </g>
</svg>
