<svg xmlns="http://www.w3.org/2000/svg" xmlns:xlink="http://www.w3.org/1999/xlink" width="620.747" height="101.897" viewBox="0 0 620.747 101.897">
  <defs>
    <clipPath id="clip-path">
      <rect id="長方形_7950" data-name="長方形 7950" width="620.747" height="68.474" transform="translate(0 0)" fill="none"/>
    </clipPath>
  </defs>
  <g id="グループ_23753" data-name="グループ 23753" transform="translate(-373 -10287.974)">
    <path id="パス_108470" data-name="パス 108470" d="M13.072-12.448,12-12.1A21.187,21.187,0,0,1,12.816-9.9l1.1-.352A16.223,16.223,0,0,0,13.072-12.448Zm1.648-.512-1.088.352a14.33,14.33,0,0,1,.864,2.176l1.1-.352C15.392-11.392,15.024-12.32,14.72-12.96ZM11.7-6.832V-7.36h1.2c.832,0,1.392.016,1.744.048V-9.44a9.481,9.481,0,0,1-1.76.112H11.7v-1.68a10.277,10.277,0,0,1,.112-1.488H9.52a10.559,10.559,0,0,1,.1,1.488v1.68H5.824V-10.9a12.76,12.76,0,0,1,.1-1.456H3.648c.048.5.1.976.1,1.44v1.584H2.384A10.579,10.579,0,0,1,.656-9.472V-7.3c.352-.016.928-.064,1.728-.064h1.36v2.176a12.94,12.94,0,0,1-.1,1.68h2.24c-.016-.32-.064-.96-.064-1.68V-7.36H9.616v.608c0,3.936-1.36,5.312-4.448,6.4L6.88,1.264C10.752-.448,11.7-2.864,11.7-6.832Zm13.9-1.3A2.062,2.062,0,0,0,23.552-6.08,2.062,2.062,0,0,0,25.6-4.032,2.062,2.062,0,0,0,27.648-6.08,2.062,2.062,0,0,0,25.6-8.128Zm22.448-4.288H45.632a11.287,11.287,0,0,1,.1,1.6v3.04c0,2.5-.208,3.7-1.312,4.9a7.239,7.239,0,0,1-3.84,2.016L42.24.9a9.421,9.421,0,0,0,3.888-2.3c1.184-1.312,1.856-2.8,1.856-6.24v-3.168C47.984-11.456,48.016-11.968,48.048-12.416Zm-7.424.128h-2.3a11.361,11.361,0,0,1,.064,1.232v5.392c0,.48-.064,1.1-.08,1.408h2.32c-.032-.368-.048-.992-.048-1.392v-5.408C40.576-11.568,40.592-11.92,40.624-12.288Zm15.488.736L54.048-10.5a36.269,36.269,0,0,1,2.7,4.832l2.112-1.2C58.272-7.984,56.9-10.432,56.112-11.552Zm10.928-2.32-1.328.544a18.965,18.965,0,0,1,1.28,2.144l1.328-.576C68.016-12.32,67.44-13.3,67.04-13.872Zm-2.16.512-1.328.544A15.2,15.2,0,0,1,64.784-10.7l-.912-.176a8.978,8.978,0,0,1-.24,1.888,11.385,11.385,0,0,1-7.2,8.48l1.92,1.632a13.988,13.988,0,0,0,7.584-9.808c.08-.32.288-1.12.464-1.7l-1.536-.3,1.264-.528A19.583,19.583,0,0,0,64.88-13.36Zm6.992,5.952V-4.9c.592-.048,1.664-.08,2.576-.08H83.04c.672,0,1.488.064,1.872.08V-7.408c-.416.032-1.12.1-1.872.1H74.448C73.616-7.312,72.448-7.36,71.872-7.408ZM93.024-1.536A17.573,17.573,0,0,1,92.864.7h2.5c-.064-.656-.144-1.776-.144-2.24V-6.064a46.214,46.214,0,0,1,5.776,2.384l.912-2.208a52.257,52.257,0,0,0-6.688-2.48v-2.368a17.4,17.4,0,0,1,.144-1.92h-2.5a11.107,11.107,0,0,1,.16,1.92ZM117.76-13.248l-1.264.512a21.832,21.832,0,0,1,1.248,2.224l1.28-.544A23.427,23.427,0,0,0,117.76-13.248Zm2.016-.592-1.264.528a18.669,18.669,0,0,1,1.28,2.192l1.264-.544A21.286,21.286,0,0,0,119.776-13.84Zm-5.376.976h-2.464a9.116,9.116,0,0,1,.112,1.472v1.216H108.64c-.608,0-1.088-.016-1.632-.064a9.9,9.9,0,0,1,.064,1.376V-6.1a12.2,12.2,0,0,1-.064,1.344h2.208a9.444,9.444,0,0,1-.064-1.184V-8.288h7.936A9.758,9.758,0,0,1,115.68-4.16a7.958,7.958,0,0,1-3.632,2.72,12.277,12.277,0,0,1-2.272.64l1.664,1.92a10.235,10.235,0,0,0,6.528-4.8,15.032,15.032,0,0,0,1.5-4.544c.064-.3.192-.912.3-1.264l-1.376-.848a4.14,4.14,0,0,1-1.328.16h-2.784v-1.216A9.116,9.116,0,0,1,114.4-12.864Zm10.512,8.3.944,1.888a33.379,33.379,0,0,0,4.592-1.872V-.32c0,.56-.048,1.408-.08,1.728h2.368a8.909,8.909,0,0,1-.112-1.728V-5.808a20.972,20.972,0,0,0,3.584-2.912l-1.584-1.552a16.669,16.669,0,0,1-3.984,3.424A21.127,21.127,0,0,1,124.912-4.56Zm19.456-7.712v2.064c.464-.032,1.152-.048,1.664-.048h6.128c.576,0,1.328.016,1.76.048v-2.064a15.085,15.085,0,0,1-1.728.08h-6.16A13.488,13.488,0,0,1,144.368-12.272Zm10.9,4.64-1.424-.88a3.375,3.375,0,0,1-1.168.16h-7.92c-.5,0-1.184-.048-1.856-.1v2.08c.672-.064,1.472-.08,1.856-.08h7.728a6.942,6.942,0,0,1-1.648,2.768A10.792,10.792,0,0,1,145.3-.88L146.88.928a11.981,11.981,0,0,0,5.712-3.456A11.5,11.5,0,0,0,154.96-6.96,5.927,5.927,0,0,1,155.264-7.632Zm6.88,10.864,1.472-.624a15.394,15.394,0,0,1-1.952-7.664,15.42,15.42,0,0,1,1.952-7.648l-1.472-.624a15.321,15.321,0,0,0-2.384,8.272A15.336,15.336,0,0,0,162.144,3.232ZM178.9-12.416H176.48a11.288,11.288,0,0,1,.1,1.6v3.04c0,2.5-.208,3.7-1.312,4.9a7.239,7.239,0,0,1-3.84,2.016L173.088.9a9.421,9.421,0,0,0,3.888-2.3c1.184-1.312,1.856-2.8,1.856-6.24v-3.168C178.832-11.456,178.864-11.968,178.9-12.416Zm-7.424.128h-2.3a11.36,11.36,0,0,1,.064,1.232v5.392c0,.48-.064,1.1-.08,1.408h2.32c-.032-.368-.048-.992-.048-1.392v-5.408C171.424-11.568,171.44-11.92,171.472-12.288Zm21.344-.192-2.336-.768a7.7,7.7,0,0,1-.72,1.68,14.088,14.088,0,0,1-4.992,5.152l1.792,1.328a18.238,18.238,0,0,0,4.032-3.872h4.5a11.374,11.374,0,0,1-2.272,4.368A12.751,12.751,0,0,1,186.368-.64l1.888,1.7a14.94,14.94,0,0,0,6.464-4.512A16.7,16.7,0,0,0,197.5-8.8a6.4,6.4,0,0,1,.528-1.152L196.4-10.96a5.13,5.13,0,0,1-1.392.192h-3.216c.016-.032.032-.048.048-.08C192.032-11.2,192.448-11.92,192.816-12.48Zm12,.208v2.064c.464-.032,1.152-.048,1.664-.048h6.128c.576,0,1.328.016,1.76.048v-2.064a15.085,15.085,0,0,1-1.728.08h-6.16A13.488,13.488,0,0,1,204.816-12.272Zm10.9,4.64-1.424-.88a3.375,3.375,0,0,1-1.168.16H205.2c-.5,0-1.184-.048-1.856-.1v2.08c.672-.064,1.472-.08,1.856-.08h7.728A6.942,6.942,0,0,1,211.28-3.68a10.792,10.792,0,0,1-5.536,2.8L207.328.928a11.981,11.981,0,0,0,5.712-3.456,11.5,11.5,0,0,0,2.368-4.432A5.927,5.927,0,0,1,215.712-7.632Zm4.128,1.408,1.008,2.016a32.06,32.06,0,0,0,5.648-2.3v5.12a17.916,17.916,0,0,1-.112,2.1h2.528a11,11,0,0,1-.144-2.1V-7.856a29.348,29.348,0,0,0,4.3-3.472l-1.728-1.648a20.512,20.512,0,0,1-4.512,3.888A25.728,25.728,0,0,1,219.84-6.224Zm19.328-4.64v2.32c.544-.032,1.28-.064,1.888-.064h6.608c.56,0,1.312.048,1.776.064v-2.32c-.448.048-1.136.1-1.776.1H241.04C240.5-10.768,239.744-10.8,239.168-10.864ZM237.824-3.04V-.592c.592-.048,1.376-.1,2-.1h9.184a17.381,17.381,0,0,1,1.76.1V-3.04a16.218,16.218,0,0,1-1.76.1h-9.184C239.2-2.944,238.448-2.992,237.824-3.04Zm20.08-9.12-1.5,1.6a33.268,33.268,0,0,1,4,3.456l1.632-1.664A32.314,32.314,0,0,0,257.9-12.16ZM255.9-1.5,257.248.608a17.327,17.327,0,0,0,5.936-2.256,17.014,17.014,0,0,0,5.92-5.92l-1.248-2.256A15.066,15.066,0,0,1,262.032-3.6,16.491,16.491,0,0,1,255.9-1.5Zm28.208-11.6-1.264.512a18.556,18.556,0,0,1,1.168,2.064l-.112-.064a5.04,5.04,0,0,1-1.392.192h-3.2c.016-.032.032-.048.048-.08a16.6,16.6,0,0,1,.976-1.632l-2.352-.768a7.241,7.241,0,0,1-.72,1.664,13.837,13.837,0,0,1-4.992,5.152l1.792,1.344a17.977,17.977,0,0,0,4.048-3.872h4.5a11.318,11.318,0,0,1-2.272,4.352,12.8,12.8,0,0,1-6.448,3.968l1.888,1.7A14.9,14.9,0,0,0,282.224-3.1a16.244,16.244,0,0,0,2.8-5.328,6.406,6.406,0,0,1,.528-1.152l-1.36-.832,1.184-.5A20.334,20.334,0,0,0,284.112-13.1Zm1.888-.72-1.264.512a16.963,16.963,0,0,1,1.3,2.208l1.264-.544A22.847,22.847,0,0,0,286-13.824Zm5.472,2.656v2.192c.4-.032,1.088-.064,1.52-.064h3.088v6.528h-4.064a10.362,10.362,0,0,1-1.568-.128V-.32a13.37,13.37,0,0,1,1.568-.08H302.56a12.837,12.837,0,0,1,1.5.08V-2.64a9.778,9.778,0,0,1-1.5.128h-4.24V-9.04H301.7c.464,0,1.024.032,1.5.064v-2.192c-.464.048-1.024.1-1.5.1h-8.7C292.544-11.072,291.888-11.12,291.472-11.168ZM319.7-12.416H317.28a11.288,11.288,0,0,1,.1,1.6v3.04c0,2.5-.208,3.7-1.312,4.9a7.239,7.239,0,0,1-3.84,2.016L313.888.9a9.421,9.421,0,0,0,3.888-2.3c1.184-1.312,1.856-2.8,1.856-6.24v-3.168C319.632-11.456,319.664-11.968,319.7-12.416Zm-7.424.128h-2.3a11.359,11.359,0,0,1,.064,1.232v5.392c0,.48-.064,1.1-.08,1.408h2.32c-.032-.368-.048-.992-.048-1.392v-5.408C312.224-11.568,312.24-11.92,312.272-12.288Zm27.456,1.456-1.264-1.184a8.251,8.251,0,0,1-1.632.144h-8.624a12.684,12.684,0,0,1-1.952-.16v2.224c.752-.064,1.28-.112,1.952-.112h8.336A9.515,9.515,0,0,1,333.6-6.944l1.664,1.328A16.3,16.3,0,0,0,339.1-10,8.054,8.054,0,0,1,339.728-10.832ZM333.2-8.672h-2.32a8.871,8.871,0,0,1,.112,1.44c0,2.624-.384,4.32-2.416,5.728a6.322,6.322,0,0,1-1.68.88L328.768.9C333.12-1.44,333.2-4.7,333.2-8.672Zm11.136,11.9a15.211,15.211,0,0,0,2.4-8.288,15.2,15.2,0,0,0-2.4-8.272l-1.456.624a15.42,15.42,0,0,1,1.952,7.648,15.394,15.394,0,0,1-1.952,7.664Z" transform="translate(509 10386.639)" fill="#3c3636"/>
    <g id="グループ_23667" data-name="グループ 23667" transform="translate(373 10287.974)">
      <g id="グループ_23666" data-name="グループ 23666" clip-path="url(#clip-path)">
        <path id="パス_108429" data-name="パス 108429" d="M29.857,19.425q0,3.746-.134,11.134t-.134,11.067q0,1.839.067,5.616t.067,5.751q0,2.307.2,7.122t.2,7.121q-1-.064-3.5-.234t-3.761-.167q-1.17,0-3.577.167t-3.678.234q.066-2.138.3-6.352t.234-6.252q.568-19.125.568-30.259,0-3.943-.267-11.367-2.609,0-7.824.268-5.015.468-8.626.969a12.817,12.817,0,0,0,.4-3.712A26.1,26.1,0,0,0,.268,7.389a2.219,2.219,0,0,1-.134-.552A2.293,2.293,0,0,0,0,6.285q4.413.269,6.72.268,9.63.3,16.149.3h9.195q2.307,0,6.653-.284t7.155-.285a16.8,16.8,0,0,0-.4,3.578,25.238,25.238,0,0,0,.4,4.38,102.05,102.05,0,0,0-15.747-1.237Z" fill="#0d3c52"/>
        <path id="パス_108430" data-name="パス 108430" d="M65.2,21.1l-.134,9.563a25.675,25.675,0,0,1,6.219-4.9,13.977,13.977,0,0,1,6.921-2.09,14.2,14.2,0,0,1,10.431,4.113q3.678,3.578,3.678,11.368V67.237q-1.069-.066-3.276-.235t-3.31-.167q-1.071,0-3.31.167t-3.244.235q.068-.869.235-2.842t.167-2.909l.268-8.091a75.952,75.952,0,0,0,.3-7.924,48.143,48.143,0,0,0-.7-8.927,7.2,7.2,0,0,0-2.491-3.828,6.576,6.576,0,0,0-4.229-1.488q-4.949,0-6.3,4.229a40.29,40.29,0,0,0-1.355,11.786q0,2.241.067,6.119t.2,7.756q.1,3.879.134,6.119-1.071-.066-3.21-.235t-3.21-.167q-1.036,0-3.143.167t-3.31.235q.269-3.812.268-5.751l.435-22.034q0-1.737.066-5.181t.067-5.25q0-14.71-.836-29.021a37.812,37.812,0,0,0,6.721.535A30.9,30.9,0,0,0,66.033,0Z" fill="#0d3c52"/>
        <path id="パス_108431" data-name="パス 108431" d="M113.543,46.006a50.814,50.814,0,0,0,.3,5.082,15.476,15.476,0,0,0,1.521,4.78,12.709,12.709,0,0,0,2.692,3.98,11.59,11.59,0,0,0,7.957,2.741,15.592,15.592,0,0,0,10.4-3.978l1.1.836-1.906,4.915a21.894,21.894,0,0,1-12.738,3.978,29.267,29.267,0,0,1-9.746-1.421,18.683,18.683,0,0,1-7.506-5.3q-5.082-5.75-5.082-16.583a25.061,25.061,0,0,1,2.407-11.167A17.98,17.98,0,0,1,110,26.179a20.99,20.99,0,0,1,10.966-2.774,19.57,19.57,0,0,1,10.315,2.506,14.95,14.95,0,0,1,6.068,6.938,25.445,25.445,0,0,1,1.939,10.281,22.829,22.829,0,0,1-.134,2.876Zm13.708-4.246a5.754,5.754,0,0,1-.067-1.037,5.511,5.511,0,0,0-.067-1q-.435-12.471-6.152-12.471-4.212,0-5.6,4.23a43.247,43.247,0,0,0-1.822,10.281Z" fill="#0d3c52"/>
        <path id="パス_108432" data-name="パス 108432" d="M195.725,44.233q-2.073-3.711-2.608-4.514-.335-.569-.7-.568c-.268,0-.4.189-.4.568q0,2.575.133,7.858t.134,7.89v2.441q.133,3.579.7,9.328-1.236-.066-3.644-.234t-3.611-.167q-1.17,0-3.644.167t-3.612.234l.134-1.639c.022-.69.056-1.421.1-2.189s.083-1.365.117-1.789.094-1.059.184-1.906q.4-5.751.4-17.553,0-2.64-.067-8.058t-.067-8.091q0-6.285-.535-19.726l6.152.267q2.106,0,6.352-.133t6.387-.134q10.665,0,14.376,1.805,7.824,4.513,7.824,13.006a15.087,15.087,0,0,1-3.711,10.482,18.479,18.479,0,0,1-10.131,5.534q3.411,6.152,15.748,25.042l3.143,5.082q-1.305-.066-4.046-.234t-4.046-.167q-3.945,0-8.057.4L198.467,49.014ZM192.281,21.9v6.987q0,4.246-.134,6.453,7.255,0,10.549-3.142t3.293-9.6a22.2,22.2,0,0,0-.4-4.513,8.864,8.864,0,0,0-1.822-4.03A6.492,6.492,0,0,0,200.79,12.1a15.116,15.116,0,0,0-4.029-.6q-2.307-.066-4.48-.134Z" fill="#0d3c52"/>
        <path id="パス_108433" data-name="パス 108433" d="M239.794,46.006a50.814,50.814,0,0,0,.3,5.082,15.476,15.476,0,0,0,1.521,4.78,12.709,12.709,0,0,0,2.692,3.98,11.589,11.589,0,0,0,7.957,2.741,15.592,15.592,0,0,0,10.4-3.978l1.1.836-1.906,4.915a21.9,21.9,0,0,1-12.738,3.978,29.267,29.267,0,0,1-9.746-1.421,18.676,18.676,0,0,1-7.506-5.3q-5.083-5.75-5.082-16.583A25.061,25.061,0,0,1,229.2,33.869a17.974,17.974,0,0,1,7.055-7.69,20.987,20.987,0,0,1,10.966-2.774,19.57,19.57,0,0,1,10.315,2.506,14.95,14.95,0,0,1,6.068,6.938,25.445,25.445,0,0,1,1.939,10.281,22.826,22.826,0,0,1-.134,2.876ZM253.5,41.76a5.754,5.754,0,0,1-.067-1.037,5.512,5.512,0,0,0-.067-1q-.435-12.471-6.152-12.471-4.212,0-5.6,4.23a43.246,43.246,0,0,0-1.822,10.281Z" fill="#0d3c52"/>
        <path id="パス_108434" data-name="パス 108434" d="M274.432,56a11.019,11.019,0,0,0,3.962,5.35,10.465,10.465,0,0,0,6.2,1.906,8.118,8.118,0,0,0,4.781-1.237,4.864,4.864,0,0,0,2.04-3.812,3.718,3.718,0,0,0-.97-2.491,9.6,9.6,0,0,0-2.374-1.955,28.16,28.16,0,0,0-3.176-1.606l-2.775-1.2q-1-.468-1.622-.786t-1.253-.635q-.636-.318-1.639-.786a10.254,10.254,0,0,1-4.915-4.5,13.127,13.127,0,0,1-1.8-6.6,14.078,14.078,0,0,1,1.939-7.339,11.613,11.613,0,0,1,5.717-4.831,21.217,21.217,0,0,1,7.69-1.806,20.581,20.581,0,0,1,12.872,4.113q-1.135,3.578-2.072,7.823h-2.608a8.89,8.89,0,0,0-2.959-5.166,7.848,7.848,0,0,0-5.366-2.222,8.313,8.313,0,0,0-4.7,1.254,4.242,4.242,0,0,0-1.889,3.794,3.707,3.707,0,0,0,.719,2.274,6.306,6.306,0,0,0,1.772,1.621,21.9,21.9,0,0,0,2.357,1.254q1.3.6,2.675,1.17,6.987,2.709,10.147,5.434t3.16,8.943A12.524,12.524,0,0,1,294.158,65.2a19.413,19.413,0,0,1-10.932,2.875,21.816,21.816,0,0,1-12.338-3.711q.7-3.678,1.371-8.359Z" fill="#0d3c52"/>
        <path id="パス_108435" data-name="パス 108435" d="M305.526,46.975q0-10.464,6.018-16.851a19.045,19.045,0,0,1,7.071-4.815,22.775,22.775,0,0,1,8.678-1.771,28.95,28.95,0,0,1,9.042,1.47,15.922,15.922,0,0,1,7.139,4.447q5.751,6.151,5.75,15.581a27.105,27.105,0,0,1-2.625,12.1,19.449,19.449,0,0,1-7.656,8.343,22.63,22.63,0,0,1-11.785,2.992,23.909,23.909,0,0,1-11.434-2.608,18.17,18.17,0,0,1-7.54-7.473,23.45,23.45,0,0,1-2.658-11.417m13.708-6.988a50.307,50.307,0,0,0-.436,6.854q0,17.787,8.36,17.788a5.7,5.7,0,0,0,5.049-2.458,19.282,19.282,0,0,0,2.607-6.436,56.37,56.37,0,0,0,1.1-12.07q0-1.5-.268-4.514-1.036-11.769-7.789-11.769a6.6,6.6,0,0,0-6.186,3.878,22.513,22.513,0,0,0-2.441,8.727" fill="#0d3c52"/>
        <path id="パス_108436" data-name="パス 108436" d="M383.729,36.544a7.485,7.485,0,0,0-4.514-1.2q-6.519,0-8.224,5.885a63.5,63.5,0,0,0-.535,10.4q0,8.661.535,15.614-1-.066-3.21-.234t-3.21-.167q-1.137,0-3.209.167t-3.11.234q.435-7.522.435-22.467,0-9.429-.435-20.128,3.877.267,5.75.267,2.04,0,6.186-.267l-.3,10.967q4.581-11.769,15.079-11.769a52.347,52.347,0,0,0-.535,6.419q0,.836.066,2.742t.068,2.875Z" fill="#0d3c52"/>
        <path id="パス_108437" data-name="パス 108437" d="M407.266,9.429q-.936,12.471-.936,15.78h7.924v4.514H406.33q-.568,12.138-.568,19.426,0,2.039.268,6.453a17.783,17.783,0,0,0,1.17,6q.868,1.788,3.644,1.789a15.156,15.156,0,0,0,3.009-.4q.2-.068.451-.167c.167-.068.385-.145.652-.235V66a2.638,2.638,0,0,0-.7.4,29.506,29.506,0,0,1-8.626,1.672q-6.486,0-9.128-3.662T393.859,54.1q0-4.546.535-14.109,0-1.739.067-5.149t.067-5.116h-6.285V25.209h6.285q0-1.8-.167-5.315t-.235-5.383q4.581-1.773,12.2-5.483Z" fill="#0d3c52"/>
        <path id="パス_108438" data-name="パス 108438" d="M480.421,67.236c-.4-.044-1.049-.122-1.939-.234a17.69,17.69,0,0,0-2.04-.167,18.92,18.92,0,0,0-3.979.4q-5.15-14.175-11.3-29.856t-12.538-31.1q5.55.57,7.824.568,2.307,0,7.79-.568,2.073,6.89,4.5,13.675T474.5,35.523q3.344,8.778,5.65,15.13,10.365-25.042,16.684-44.368l.6.15a3.4,3.4,0,0,1,.368.117,68.6,68.6,0,0,0,7.121-.267q-3.51,8.327-8.509,20.262T487.425,48.6q-3.994,10.116-7,18.64" fill="#0d3c52"/>
        <path id="パス_108439" data-name="パス 108439" d="M509.177,61.351q.066-1.437.134-4.246t.134-4.246q.3-10.163.3-13.574,0-3.278-.167-7.757-.2-4.479-.268-6.888h.7a56.716,56.716,0,0,0,6.419.268q2.172,0,6.319-.268l-.568,11.5q-.4,5.616-.4,17.252a123.04,123.04,0,0,0,.669,13.842L518.957,67q-2.493-.168-3.762-.167-1.07,0-3.176.167t-3.109.234ZM515.9,1.237a6.967,6.967,0,0,1,5.016,2.039,6.632,6.632,0,0,1,2.106,4.948,6.625,6.625,0,0,1-2.123,4.932,6.951,6.951,0,0,1-5,2.057,6.425,6.425,0,0,1-4.848-2.124,6.962,6.962,0,0,1-.016-9.763A6.457,6.457,0,0,1,515.9,1.237" fill="#0d3c52"/>
        <path id="パス_108440" data-name="パス 108440" d="M546.958,67.236q-1.071-.066-3.344-.234t-3.343-.167q-1.1,0-3.411.167t-3.309.234q.534-6.854.535-20.662V29.455q0-2.439-.068-7.288t-.066-7.256q0-3.242-.267-10.4a21.571,21.571,0,0,0-.167-2.207Q533.349.836,533.283,0a39.151,39.151,0,0,0,6.687.535A38.425,38.425,0,0,0,546.824,0q0,.6-.134,1.872t-.133,1.972q0,1.572-.068,4.782t-.066,4.781q0,2.508-.067,7.322t-.067,7.189q0,22.9.669,39.318" fill="#0d3c52"/>
        <path id="パス_108441" data-name="パス 108441" d="M571.733,67.236q-1.071-.066-3.344-.234t-3.343-.167q-1.1,0-3.411.167t-3.309.234q.534-6.854.535-20.662V29.455q0-2.439-.068-7.288t-.066-7.256q0-3.242-.267-10.4a21.589,21.589,0,0,0-.167-2.207q-.17-1.47-.235-2.306a39.152,39.152,0,0,0,6.687.535A38.426,38.426,0,0,0,571.6,0q0,.6-.134,1.872t-.133,1.972q0,1.572-.068,4.782t-.066,4.781q0,2.508-.067,7.322t-.067,7.189q0,22.9.669,39.318" fill="#0d3c52"/>
        <path id="パス_108442" data-name="パス 108442" d="M583.9,35.039l-1.071-5.316a20.536,20.536,0,0,1,7.506-4.363,27.482,27.482,0,0,1,8.91-1.521,21.667,21.667,0,0,1,11.385,2.925,10.185,10.185,0,0,1,5.065,8.977v5.885q0,2.942-.133,6.921-.169,3.979-.167,6.085,0,3.444.167,5.082.3,2.976,2.039,3.812a25.116,25.116,0,0,0,2.742.167q.4,0,.4,1.337v.836a33.647,33.647,0,0,1-4.379,1.772,20.794,20.794,0,0,1-3.678.568,8.988,8.988,0,0,1-5.366-1.688,9.529,9.529,0,0,1-3.427-4.631,12.453,12.453,0,0,1-4.848,4.731,13.269,13.269,0,0,1-6.519,1.722,13.544,13.544,0,0,1-9.2-3.043q-3.51-3.04-3.51-8.593a12.383,12.383,0,0,1,1.405-5.784,9.483,9.483,0,0,1,3.911-4.078q3.109-1.806,10.967-3.712a21.82,21.82,0,0,0,6.419-2.34q1.1-.936,1.1-3.41a6.666,6.666,0,0,0-2.49-5.25,8.545,8.545,0,0,0-5.734-2.139,14.33,14.33,0,0,0-9.83,4.112q-.3.269-.97.936Zm8.358,20.429q0,6.854,4.815,6.854,6.552,0,6.552-9.462,0-5.616.268-8.492-2.675,1.2-3.544,1.5-.735.3-1.989.719t-1.956.735a6.526,6.526,0,0,0-1.4.886q-2.742,2.275-2.741,7.256" fill="#0d3c52"/>
      </g>
    </g>
  </g>
</svg>
