<svg xmlns="http://www.w3.org/2000/svg" width="75.722" height="498.159" viewBox="0 0 75.722 498.159">
  <g id="グループ_23757" data-name="グループ 23757" transform="translate(-1237.5 -2607.061)">
    <ellipse id="楕円形_529" data-name="楕円形 529" cx="8.987" cy="8.987" rx="8.987" ry="8.987" transform="translate(1244.711 2876.205) rotate(7)" fill="#fff"/>
    <ellipse id="楕円形_527" data-name="楕円形 527" cx="14.638" cy="14.638" rx="14.638" ry="14.638" transform="translate(1249.227 2827.737) rotate(7)" fill="#e81e23"/>
    <ellipse id="楕円形_528" data-name="楕円形 528" cx="11.26" cy="11.26" rx="11.26" ry="11.26" transform="matrix(0.985, 0.174, -0.174, 0.985, 1241.411, 3079.13)" fill="#fff"/>
    <ellipse id="楕円形_532" data-name="楕円形 532" cx="4.504" cy="4.504" rx="4.504" ry="4.504" transform="translate(1300.749 2622.825)" fill="#fff"/>
    <ellipse id="楕円形_531" data-name="楕円形 531" cx="11.26" cy="11.26" rx="11.26" ry="11.26" transform="translate(1267.025 2644.769)" fill="#e81e23"/>
    <ellipse id="楕円形_533" data-name="楕円形 533" cx="7.882" cy="7.882" rx="7.882" ry="7.882" transform="translate(1262.55 2607.061)" fill="#fff"/>
    <ellipse id="楕円形_526" data-name="楕円形 526" cx="28.151" cy="28.151" rx="28.151" ry="28.151" transform="matrix(0.985, 0.174, -0.174, 0.985, 1257.775, 2996.942)" fill="#e81e23"/>
    <ellipse id="楕円形_530" data-name="楕円形 530" cx="9.008" cy="9.008" rx="9.008" ry="9.008" transform="translate(1291.74 2992.438)" fill="#e81e23"/>
  </g>
</svg>
