<svg xmlns="http://www.w3.org/2000/svg" width="45.646" height="45.928" viewBox="0 0 45.646 45.928">
  <g id="グループ_23509" data-name="グループ 23509" transform="translate(-197.627 -3946.727)">
    <g id="グループ_23413" data-name="グループ 23413" transform="translate(197.627 3946.727)">
      <ellipse id="楕円形_183" data-name="楕円形 183" cx="20.108" cy="20.108" rx="20.108" ry="20.108" transform="translate(5.43 0)" fill="#f4ba1d"/>
      <path id="パス_1575" data-name="パス 1575" d="M0,.653,3.113,0l.011,4.249-2.6.284Z" transform="translate(19.427 45.928) rotate(-160)" fill="#f4ba1d"/>
      <path id="パス_1574" data-name="パス 1574" d="M0,.1,3.41,0l.011,4.249-2.6.284Z" transform="matrix(-0.848, -0.53, 0.53, -0.848, 12.846, 43.422)" fill="#f4ba1d"/>
      <path id="パス_1573" data-name="パス 1573" d="M0,0,2.959,1.073l-.646,3.42-2.2-.562Z" transform="matrix(-0.848, -0.53, 0.53, -0.848, 7.111, 38.689)" fill="#f4ba1d"/>
      <path id="パス_1572" data-name="パス 1572" d="M.468,0,2.6,1.61,1.477,3.849,0,3.1Z" transform="matrix(-0.848, -0.53, 0.53, -0.848, 3.647, 32.652)" fill="#f4ba1d"/>
      <path id="パス_1571" data-name="パス 1571" d="M1.066,0,2.383,1.79,1.449,3.446,0,2.034Z" transform="matrix(-0.848, -0.53, 0.53, -0.848, 2.021, 26.258)" fill="#f4ba1d"/>
      <path id="パス_1576" data-name="パス 1576" d="M.368,0,3.5.183l-1.3,3.55L0,3.5Z" transform="matrix(-0.995, 0.105, -0.105, -0.995, 27.1, 45.342)" fill="#f4ba1d"/>
    </g>
    <path id="パス_108469" data-name="パス 108469" d="M6.216-9.345H5.229l.189-2.142H11.34V-14.7H1.974L1.239-6.111h3.99c2.247,0,2.856.588,2.856,1.491,0,.987-.945,1.554-2.352,1.554A7.462,7.462,0,0,1,1.659-4.284L.168-1.155A11.125,11.125,0,0,0,5.859.294c4.431,0,6.4-2.394,6.4-5.019C12.264-7.329,10.563-9.345,6.216-9.345Z" transform="translate(216.627 3973.907)" fill="#3c3636"/>
  </g>
</svg>
