<svg xmlns="http://www.w3.org/2000/svg" width="21.734" height="21.734" viewBox="0 0 21.734 21.734">
  <path id="Icon_akar-instagram-fill" data-name="Icon akar-instagram-fill" d="M7.887,1.565c1.159-.053,1.528-.065,4.48-.065s3.321.013,4.479.065a8,8,0,0,1,2.64.5,5.563,5.563,0,0,1,3.177,3.178,7.992,7.992,0,0,1,.506,2.638c.053,1.161.065,1.53.065,4.481s-.013,3.321-.065,4.48a7.967,7.967,0,0,1-.506,2.638,5.548,5.548,0,0,1-3.177,3.178,7.992,7.992,0,0,1-2.638.506c-1.16.053-1.529.065-4.481.065s-3.321-.013-4.48-.065a7.967,7.967,0,0,1-2.638-.506A5.553,5.553,0,0,1,2.07,19.486a8.021,8.021,0,0,1-.5-2.638c-.053-1.161-.065-1.53-.065-4.481s.013-3.321.065-4.479a8,8,0,0,1,.5-2.64A5.331,5.331,0,0,1,3.325,3.324,5.327,5.327,0,0,1,5.248,2.07a8.021,8.021,0,0,1,2.638-.5Zm8.872,1.956c-1.146-.052-1.49-.063-4.391-.063s-3.245.011-4.391.063A6.006,6.006,0,0,0,5.958,3.9,3.589,3.589,0,0,0,3.9,5.958a6.006,6.006,0,0,0-.374,2.018c-.052,1.146-.063,1.49-.063,4.391s.011,3.245.063,4.391A6.006,6.006,0,0,0,3.9,18.777a3.589,3.589,0,0,0,2.062,2.062,6.007,6.007,0,0,0,2.018.374c1.146.052,1.489.063,4.391.063s3.245-.011,4.391-.063a6.007,6.007,0,0,0,2.018-.374,3.589,3.589,0,0,0,2.062-2.062,6.007,6.007,0,0,0,.374-2.018c.052-1.146.063-1.49.063-4.391s-.011-3.245-.063-4.391a6.006,6.006,0,0,0-.374-2.018A3.589,3.589,0,0,0,18.777,3.9a6.006,6.006,0,0,0-2.018-.374Zm-5.779,12.2a3.626,3.626,0,1,0-2.237-3.35,3.625,3.625,0,0,0,2.237,3.35Zm-2.562-7.3a5.586,5.586,0,1,1,0,7.9A5.586,5.586,0,0,1,8.417,8.417Zm10.774-.8a1.321,1.321,0,1,0-1.84-.027A1.321,1.321,0,0,0,19.192,7.613Z" transform="translate(-1.5 -1.5)" fill="#fff"/>
</svg>
