<svg xmlns="http://www.w3.org/2000/svg" width="374.461" height="437.225" viewBox="0 0 374.461 437.225">
  <g id="グループ_24014" data-name="グループ 24014" transform="translate(-10.08 -1648.063)">
    <ellipse id="楕円形_614" data-name="楕円形 614" cx="12.091" cy="12.091" rx="12.091" ry="12.091" transform="translate(354.505 1767.03) rotate(-9)" fill="#fcedc8"/>
    <ellipse id="楕円形_618" data-name="楕円形 618" cx="4.751" cy="4.751" rx="4.751" ry="4.751" transform="translate(368.338 1942.763) rotate(-16)" fill="#e81e23"/>
    <ellipse id="楕円形_617" data-name="楕円形 617" cx="6.95" cy="6.95" rx="6.95" ry="6.95" transform="translate(355.94 1820.795) rotate(-8)" fill="#facfcb"/>
    <ellipse id="楕円形_616" data-name="楕円形 616" cx="4.534" cy="4.534" rx="4.534" ry="4.534" transform="translate(362.411 1649.481) rotate(-9)" fill="#facfcb"/>
    <g id="グループ_24013" data-name="グループ 24013">
      <ellipse id="楕円形_525" data-name="楕円形 525" cx="4.751" cy="4.751" rx="4.751" ry="4.751" transform="translate(23.904 2076.154) rotate(-16)" fill="#e81e23"/>
      <ellipse id="楕円形_520" data-name="楕円形 520" cx="9.14" cy="9.14" rx="9.14" ry="9.14" transform="matrix(1, 0.017, -0.017, 1, 10.399, 2050.072)" fill="#fcedc8"/>
      <g id="グループ_24012" data-name="グループ 24012">
        <ellipse id="楕円形_519" data-name="楕円形 519" cx="12.091" cy="12.091" rx="12.091" ry="12.091" transform="translate(15.582 1838.343) rotate(-9)" fill="#fcedc8"/>
        <ellipse id="楕円形_522" data-name="楕円形 522" cx="6.95" cy="6.95" rx="6.95" ry="6.95" transform="translate(17.018 1892.107) rotate(-8)" fill="#fcedc8"/>
        <ellipse id="楕円形_524" data-name="楕円形 524" cx="4.534" cy="4.534" rx="4.534" ry="4.534" transform="translate(23.488 1720.794) rotate(-9)" fill="#fcedc8"/>
        <ellipse id="楕円形_523" data-name="楕円形 523" cx="9.068" cy="9.068" rx="9.068" ry="9.068" transform="translate(14.905 1737.455) rotate(-9)" fill="#f5be28"/>
      </g>
    </g>
    <ellipse id="楕円形_615" data-name="楕円形 615" cx="9.068" cy="9.068" rx="9.068" ry="9.068" transform="translate(363.79 1677.143) rotate(-9)" fill="#f5be28"/>
    <ellipse id="楕円形_521" data-name="楕円形 521" cx="12.588" cy="12.587" rx="12.588" ry="12.587" transform="matrix(0.995, -0.105, 0.105, 0.995, 355.94, 1915.107)" fill="#facfcb"/>
  </g>
</svg>
