<svg xmlns="http://www.w3.org/2000/svg" width="41.689" height="43.204" viewBox="0 0 41.689 43.204">
  <g id="グループ_23332" data-name="グループ 23332" transform="matrix(0.921, 0.391, -0.391, 0.921, 9.123, -8.029)">
    <path id="パス_108150" data-name="パス 108150" d="M209.479,351.828c0,.887.057,1.778-.014,2.66a3.838,3.838,0,0,1-3.019,3.373c-.08.018-.175,0-.228.086l-2.018-.005c0-1.721-.18-3.451-.18-5.173.529,0,1.361.023,1.889,0a12.9,12.9,0,0,0,1.665-.052,4.977,4.977,0,0,0,1.905-.893" transform="translate(-182.267 -313.848)" fill="#b9b9b9"/>
    <path id="パス_108151" data-name="パス 108151" d="M161.569,352.115q0,2.582,0,5.164H159.5c-.065-.137-.206-.136-.323-.174a3.85,3.85,0,0,1-2.774-3.71c-.018-.771,0-1.543,0-2.315a3.874,3.874,0,0,0,1.962.953,29.2,29.2,0,0,0,3.2.071Z" transform="translate(-139.514 -313.18)" fill="#b9b9b9"/>
    <path id="パス_108152" data-name="パス 108152" d="M0,193.046a1.61,1.61,0,0,1,1.691-.96c1.562.041,3.126.01,4.689.013a1.3,1.3,0,1,1,0,2.583c-1.563,0-3.127-.028-4.689.013A1.61,1.61,0,0,1,0,193.735Z" transform="translate(0 -171.349)" fill="#f4ba1d"/>
    <path id="パス_108153" data-name="パス 108153" d="M209.478,124.109a4.977,4.977,0,0,1-1.905.893,12.894,12.894,0,0,1-1.665.052c-.528.018-1.058.007-1.586.009l-.311-.042q0-14.249,0-28.5a12.019,12.019,0,0,1,6.995,2.126,11.218,11.218,0,0,1,4.7,7.143,11.45,11.45,0,0,1-1.889,9.109,22.056,22.056,0,0,1-1.552,1.839,5.811,5.811,0,0,0-1.455,3.86,4.828,4.828,0,0,1-1.334,3.509" transform="translate(-182.266 -86.129)" fill="#f4ba1d"/>
    <path id="パス_108154" data-name="パス 108154" d="M108.4,96.492q0,14.249,0,28.5a29.172,29.172,0,0,1-3.2-.071,3.874,3.874,0,0,1-1.962-.953,3.941,3.941,0,0,1-1.293-2.988A6.807,6.807,0,0,0,99.892,116a10.809,10.809,0,0,1-3.046-6.722,11.286,11.286,0,0,1,3.7-9.794,11.017,11.017,0,0,1,6.818-2.936,6.122,6.122,0,0,1,1.029-.056" transform="translate(-86.339 -86.067)" fill="#f4ba1d"/>
    <path id="パス_108155" data-name="パス 108155" d="M339.938,192.2c.831,0,1.662,0,2.493,0a1.3,1.3,0,1,1,.022,2.582q-2.515.008-5.03,0a1.3,1.3,0,1,1,.021-2.582c.831,0,1.662,0,2.493,0" transform="translate(-299.747 -171.447)" fill="#f4ba1d"/>
    <path id="パス_108156" data-name="パス 108156" d="M56.82,57.962a1.3,1.3,0,0,1,.766-1.149,1.218,1.218,0,0,1,1.431.245c.535.5,1.04,1.028,1.557,1.545.7.7,1.4,1.394,2.094,2.1A1.236,1.236,0,0,1,63,62.048a1.258,1.258,0,0,1-.99.858,1.219,1.219,0,0,1-1.142-.358q-1.836-1.814-3.652-3.647a1.4,1.4,0,0,1-.392-.94" transform="translate(-50.686 -50.563)" fill="#f4ba1d"/>
    <path id="パス_108157" data-name="パス 108157" d="M300.112,57.971a1.406,1.406,0,0,1-.4.94c-1.2,1.208-2.4,2.421-3.622,3.615a1.289,1.289,0,1,1-1.818-1.826q1.793-1.826,3.619-3.619a1.219,1.219,0,0,1,1.464-.262,1.292,1.292,0,0,1,.756,1.15" transform="translate(-262.136 -50.565)" fill="#f4ba1d"/>
    <path id="パス_108158" data-name="パス 108158" d="M204.326,0a1.319,1.319,0,0,1,1.47,1.243q.014,2.662,0,5.324a1.319,1.319,0,0,1-1.47,1.243V0" transform="translate(-182.452)" fill="#f4ba1d"/>
    <path id="パス_108159" data-name="パス 108159" d="M193.6,0V7.81a1.245,1.245,0,0,1-1.29-1.306q-.016-2.6,0-5.2A1.245,1.245,0,0,1,193.6,0" transform="translate(-171.542)" fill="#f4ba1d"/>
  </g>
</svg>
