<svg xmlns="http://www.w3.org/2000/svg" width="71.582" height="71.979" viewBox="0 0 71.582 71.979">
  <g id="グループ_23670" data-name="グループ 23670" transform="translate(-277.418 -3596)">
    <g id="グループ_23292" data-name="グループ 23292" transform="translate(277.418 3596)">
      <path id="パス_1575" data-name="パス 1575" d="M0,1.024,4.879,0,4.9,6.659.822,7.1Z" transform="translate(30.447 71.979) rotate(-160)" fill="#f4ba1d"/>
      <path id="パス_1574" data-name="パス 1574" d="M0,.157,5.344,0l.017,6.659L1.287,7.1Z" transform="matrix(-0.848, -0.53, 0.53, -0.848, 20.132, 68.05)" fill="#f4ba1d"/>
      <path id="パス_1573" data-name="パス 1573" d="M0,0,4.637,1.681,3.624,7.041.176,6.16Z" transform="matrix(-0.848, -0.53, 0.53, -0.848, 11.145, 60.633)" fill="#f4ba1d"/>
      <path id="パス_1572" data-name="パス 1572" d="M.733,0,4.074,2.524,2.314,6.032,0,4.853Z" transform="matrix(-0.848, -0.53, 0.53, -0.848, 5.716, 51.172)" fill="#f4ba1d"/>
      <path id="パス_1571" data-name="パス 1571" d="M1.67,0,3.735,2.806,2.271,5.4,0,3.188Z" transform="matrix(-0.848, -0.53, 0.53, -0.848, 3.167, 41.152)" fill="#f4ba1d"/>
      <path id="パス_1576" data-name="パス 1576" d="M.577,0l4.9.287L3.438,5.85,0,5.489Z" transform="translate(42.471 71.061) rotate(174)" fill="#f4ba1d"/>
    </g>
    <g id="グループ_23669" data-name="グループ 23669">
      <ellipse id="楕円形_183" data-name="楕円形 183" cx="31.495" cy="31.495" rx="31.495" ry="31.495" transform="translate(286.009 3596)" fill="#f4ba1d"/>
      <path id="パス_108405" data-name="パス 108405" d="M13.176-14.94l5.688-6.48V-25.2H1.224v4.68H11.952L6.768-14.652V-10.8H9.432c3.312,0,4.716,1.188,4.716,3.1,0,2.052-1.8,3.24-4.716,3.24a12.239,12.239,0,0,1-7.2-2.268L-.036-2.268A17.327,17.327,0,0,0,9.576.432c7.164,0,10.44-3.888,10.44-8.136C20.016-11.412,17.712-14.22,13.176-14.94Z" transform="translate(307 3641)" fill="#fff"/>
    </g>
  </g>
</svg>
